G04 #@! TF.GenerationSoftware,KiCad,Pcbnew,5.1.5-52549c5~84~ubuntu16.04.1*
G04 #@! TF.CreationDate,2020-03-02T08:02:59+09:00*
G04 #@! TF.ProjectId,Akashi-04,416b6173-6869-42d3-9034-2e6b69636164,rev?*
G04 #@! TF.SameCoordinates,Original*
G04 #@! TF.FileFunction,Legend,Top*
G04 #@! TF.FilePolarity,Positive*
%FSLAX46Y46*%
G04 Gerber Fmt 4.6, Leading zero omitted, Abs format (unit mm)*
G04 Created by KiCad (PCBNEW 5.1.5-52549c5~84~ubuntu16.04.1) date 2020-03-02 08:02:59*
%MOMM*%
%LPD*%
G04 APERTURE LIST*
%ADD10C,0.150000*%
%ADD11C,0.120000*%
G04 APERTURE END LIST*
D10*
X165822380Y-76659523D02*
X166631904Y-76659523D01*
X166727142Y-76611904D01*
X166774761Y-76564285D01*
X166822380Y-76469047D01*
X166822380Y-76278571D01*
X166774761Y-76183333D01*
X166727142Y-76135714D01*
X166631904Y-76088095D01*
X165822380Y-76088095D01*
X166822380Y-75611904D02*
X165822380Y-75611904D01*
X166536666Y-75278571D01*
X165822380Y-74945238D01*
X166822380Y-74945238D01*
X166298571Y-74135714D02*
X166346190Y-73992857D01*
X166393809Y-73945238D01*
X166489047Y-73897619D01*
X166631904Y-73897619D01*
X166727142Y-73945238D01*
X166774761Y-73992857D01*
X166822380Y-74088095D01*
X166822380Y-74469047D01*
X165822380Y-74469047D01*
X165822380Y-74135714D01*
X165870000Y-74040476D01*
X165917619Y-73992857D01*
X166012857Y-73945238D01*
X166108095Y-73945238D01*
X166203333Y-73992857D01*
X166250952Y-74040476D01*
X166298571Y-74135714D01*
X166298571Y-74469047D01*
X166441428Y-73469047D02*
X166441428Y-72707142D01*
X166536666Y-72278571D02*
X166536666Y-71802380D01*
X166822380Y-72373809D02*
X165822380Y-72040476D01*
X166822380Y-71707142D01*
X166822380Y-71373809D02*
X165822380Y-71373809D01*
X165822380Y-71135714D01*
X165870000Y-70992857D01*
X165965238Y-70897619D01*
X166060476Y-70850000D01*
X166250952Y-70802380D01*
X166393809Y-70802380D01*
X166584285Y-70850000D01*
X166679523Y-70897619D01*
X166774761Y-70992857D01*
X166822380Y-71135714D01*
X166822380Y-71373809D01*
X166536666Y-70421428D02*
X166536666Y-69945238D01*
X166822380Y-70516666D02*
X165822380Y-70183333D01*
X166822380Y-69850000D01*
X165822380Y-69516666D02*
X166631904Y-69516666D01*
X166727142Y-69469047D01*
X166774761Y-69421428D01*
X166822380Y-69326190D01*
X166822380Y-69135714D01*
X166774761Y-69040476D01*
X166727142Y-68992857D01*
X166631904Y-68945238D01*
X165822380Y-68945238D01*
X166822380Y-67945238D02*
X166822380Y-68516666D01*
X166822380Y-68230952D02*
X165822380Y-68230952D01*
X165965238Y-68326190D01*
X166060476Y-68421428D01*
X166108095Y-68516666D01*
X165822380Y-67611904D02*
X165822380Y-66992857D01*
X166203333Y-67326190D01*
X166203333Y-67183333D01*
X166250952Y-67088095D01*
X166298571Y-67040476D01*
X166393809Y-66992857D01*
X166631904Y-66992857D01*
X166727142Y-67040476D01*
X166774761Y-67088095D01*
X166822380Y-67183333D01*
X166822380Y-67469047D01*
X166774761Y-67564285D01*
X166727142Y-67611904D01*
X165822380Y-66135714D02*
X165822380Y-66326190D01*
X165870000Y-66421428D01*
X165917619Y-66469047D01*
X166060476Y-66564285D01*
X166250952Y-66611904D01*
X166631904Y-66611904D01*
X166727142Y-66564285D01*
X166774761Y-66516666D01*
X166822380Y-66421428D01*
X166822380Y-66230952D01*
X166774761Y-66135714D01*
X166727142Y-66088095D01*
X166631904Y-66040476D01*
X166393809Y-66040476D01*
X166298571Y-66088095D01*
X166250952Y-66135714D01*
X166203333Y-66230952D01*
X166203333Y-66421428D01*
X166250952Y-66516666D01*
X166298571Y-66564285D01*
X166393809Y-66611904D01*
X166822380Y-65088095D02*
X166822380Y-65659523D01*
X166822380Y-65373809D02*
X165822380Y-65373809D01*
X165965238Y-65469047D01*
X166060476Y-65564285D01*
X166108095Y-65659523D01*
X166441428Y-64659523D02*
X166441428Y-63897619D01*
X166536666Y-63469047D02*
X166536666Y-62992857D01*
X166822380Y-63564285D02*
X165822380Y-63230952D01*
X166822380Y-62897619D01*
X148973214Y-101920000D02*
X149687500Y-101920000D01*
X148830357Y-102348571D02*
X149330357Y-100848571D01*
X149830357Y-102348571D01*
X150330357Y-102348571D02*
X150330357Y-100848571D01*
X150473214Y-101777142D02*
X150901785Y-102348571D01*
X150901785Y-101348571D02*
X150330357Y-101920000D01*
X152187500Y-102348571D02*
X152187500Y-101562857D01*
X152116071Y-101420000D01*
X151973214Y-101348571D01*
X151687500Y-101348571D01*
X151544642Y-101420000D01*
X152187500Y-102277142D02*
X152044642Y-102348571D01*
X151687500Y-102348571D01*
X151544642Y-102277142D01*
X151473214Y-102134285D01*
X151473214Y-101991428D01*
X151544642Y-101848571D01*
X151687500Y-101777142D01*
X152044642Y-101777142D01*
X152187500Y-101705714D01*
X152830357Y-102277142D02*
X152973214Y-102348571D01*
X153258928Y-102348571D01*
X153401785Y-102277142D01*
X153473214Y-102134285D01*
X153473214Y-102062857D01*
X153401785Y-101920000D01*
X153258928Y-101848571D01*
X153044642Y-101848571D01*
X152901785Y-101777142D01*
X152830357Y-101634285D01*
X152830357Y-101562857D01*
X152901785Y-101420000D01*
X153044642Y-101348571D01*
X153258928Y-101348571D01*
X153401785Y-101420000D01*
X154116071Y-102348571D02*
X154116071Y-100848571D01*
X154758928Y-102348571D02*
X154758928Y-101562857D01*
X154687500Y-101420000D01*
X154544642Y-101348571D01*
X154330357Y-101348571D01*
X154187500Y-101420000D01*
X154116071Y-101491428D01*
X155473214Y-102348571D02*
X155473214Y-101348571D01*
X155473214Y-100848571D02*
X155401785Y-100920000D01*
X155473214Y-100991428D01*
X155544642Y-100920000D01*
X155473214Y-100848571D01*
X155473214Y-100991428D01*
X156187500Y-101777142D02*
X157330357Y-101777142D01*
X158330357Y-100848571D02*
X158473214Y-100848571D01*
X158616071Y-100920000D01*
X158687500Y-100991428D01*
X158758928Y-101134285D01*
X158830357Y-101420000D01*
X158830357Y-101777142D01*
X158758928Y-102062857D01*
X158687500Y-102205714D01*
X158616071Y-102277142D01*
X158473214Y-102348571D01*
X158330357Y-102348571D01*
X158187500Y-102277142D01*
X158116071Y-102205714D01*
X158044642Y-102062857D01*
X157973214Y-101777142D01*
X157973214Y-101420000D01*
X158044642Y-101134285D01*
X158116071Y-100991428D01*
X158187500Y-100920000D01*
X158330357Y-100848571D01*
X160116071Y-101348571D02*
X160116071Y-102348571D01*
X159758928Y-100777142D02*
X159401785Y-101848571D01*
X160330357Y-101848571D01*
X161901785Y-101348571D02*
X162258928Y-102348571D01*
X162616071Y-101348571D01*
X163973214Y-102348571D02*
X163116071Y-102348571D01*
X163544642Y-102348571D02*
X163544642Y-100848571D01*
X163401785Y-101062857D01*
X163258928Y-101205714D01*
X163116071Y-101277142D01*
X164616071Y-102205714D02*
X164687500Y-102277142D01*
X164616071Y-102348571D01*
X164544642Y-102277142D01*
X164616071Y-102205714D01*
X164616071Y-102348571D01*
X165616071Y-100848571D02*
X165758928Y-100848571D01*
X165901785Y-100920000D01*
X165973214Y-100991428D01*
X166044642Y-101134285D01*
X166116071Y-101420000D01*
X166116071Y-101777142D01*
X166044642Y-102062857D01*
X165973214Y-102205714D01*
X165901785Y-102277142D01*
X165758928Y-102348571D01*
X165616071Y-102348571D01*
X165473214Y-102277142D01*
X165401785Y-102205714D01*
X165330357Y-102062857D01*
X165258928Y-101777142D01*
X165258928Y-101420000D01*
X165330357Y-101134285D01*
X165401785Y-100991428D01*
X165473214Y-100920000D01*
X165616071Y-100848571D01*
X166758928Y-102205714D02*
X166830357Y-102277142D01*
X166758928Y-102348571D01*
X166687500Y-102277142D01*
X166758928Y-102205714D01*
X166758928Y-102348571D01*
X167758928Y-100848571D02*
X167901785Y-100848571D01*
X168044642Y-100920000D01*
X168116071Y-100991428D01*
X168187500Y-101134285D01*
X168258928Y-101420000D01*
X168258928Y-101777142D01*
X168187500Y-102062857D01*
X168116071Y-102205714D01*
X168044642Y-102277142D01*
X167901785Y-102348571D01*
X167758928Y-102348571D01*
X167616071Y-102277142D01*
X167544642Y-102205714D01*
X167473214Y-102062857D01*
X167401785Y-101777142D01*
X167401785Y-101420000D01*
X167473214Y-101134285D01*
X167544642Y-100991428D01*
X167616071Y-100920000D01*
X167758928Y-100848571D01*
X149544642Y-103962857D02*
X149044642Y-103962857D01*
X149044642Y-104748571D02*
X149044642Y-103248571D01*
X149758928Y-103248571D01*
X150544642Y-104748571D02*
X150401785Y-104677142D01*
X150330357Y-104605714D01*
X150258928Y-104462857D01*
X150258928Y-104034285D01*
X150330357Y-103891428D01*
X150401785Y-103820000D01*
X150544642Y-103748571D01*
X150758928Y-103748571D01*
X150901785Y-103820000D01*
X150973214Y-103891428D01*
X151044642Y-104034285D01*
X151044642Y-104462857D01*
X150973214Y-104605714D01*
X150901785Y-104677142D01*
X150758928Y-104748571D01*
X150544642Y-104748571D01*
X151687500Y-104748571D02*
X151687500Y-103748571D01*
X151687500Y-104034285D02*
X151758928Y-103891428D01*
X151830357Y-103820000D01*
X151973214Y-103748571D01*
X152116071Y-103748571D01*
X153758928Y-104748571D02*
X153758928Y-103248571D01*
X154616071Y-104748571D01*
X154616071Y-103248571D01*
X155973214Y-103748571D02*
X155973214Y-104748571D01*
X155330357Y-103748571D02*
X155330357Y-104534285D01*
X155401785Y-104677142D01*
X155544642Y-104748571D01*
X155758928Y-104748571D01*
X155901785Y-104677142D01*
X155973214Y-104605714D01*
X157330357Y-104677142D02*
X157187500Y-104748571D01*
X156901785Y-104748571D01*
X156758928Y-104677142D01*
X156687500Y-104605714D01*
X156616071Y-104462857D01*
X156616071Y-104034285D01*
X156687500Y-103891428D01*
X156758928Y-103820000D01*
X156901785Y-103748571D01*
X157187500Y-103748571D01*
X157330357Y-103820000D01*
X158187500Y-104748571D02*
X158044642Y-104677142D01*
X157973214Y-104534285D01*
X157973214Y-103248571D01*
X159330357Y-104677142D02*
X159187500Y-104748571D01*
X158901785Y-104748571D01*
X158758928Y-104677142D01*
X158687500Y-104534285D01*
X158687500Y-103962857D01*
X158758928Y-103820000D01*
X158901785Y-103748571D01*
X159187500Y-103748571D01*
X159330357Y-103820000D01*
X159401785Y-103962857D01*
X159401785Y-104105714D01*
X158687500Y-104248571D01*
X160258928Y-104748571D02*
X160116071Y-104677142D01*
X160044642Y-104605714D01*
X159973214Y-104462857D01*
X159973214Y-104034285D01*
X160044642Y-103891428D01*
X160116071Y-103820000D01*
X160258928Y-103748571D01*
X160473214Y-103748571D01*
X160616071Y-103820000D01*
X160687500Y-103891428D01*
X160758928Y-104034285D01*
X160758928Y-104462857D01*
X160687500Y-104605714D01*
X160616071Y-104677142D01*
X160473214Y-104748571D01*
X160258928Y-104748571D01*
X161401785Y-104177142D02*
X162544642Y-104177142D01*
X164044642Y-103320000D02*
X163901785Y-103248571D01*
X163687500Y-103248571D01*
X163473214Y-103320000D01*
X163330357Y-103462857D01*
X163258928Y-103605714D01*
X163187500Y-103891428D01*
X163187500Y-104105714D01*
X163258928Y-104391428D01*
X163330357Y-104534285D01*
X163473214Y-104677142D01*
X163687500Y-104748571D01*
X163830357Y-104748571D01*
X164044642Y-104677142D01*
X164116071Y-104605714D01*
X164116071Y-104105714D01*
X163830357Y-104105714D01*
X165401785Y-103748571D02*
X165401785Y-104748571D01*
X165044642Y-103177142D02*
X164687500Y-104248571D01*
X165616071Y-104248571D01*
X166044642Y-103248571D02*
X166973214Y-103248571D01*
X166473214Y-103820000D01*
X166687500Y-103820000D01*
X166830357Y-103891428D01*
X166901785Y-103962857D01*
X166973214Y-104105714D01*
X166973214Y-104462857D01*
X166901785Y-104605714D01*
X166830357Y-104677142D01*
X166687500Y-104748571D01*
X166258928Y-104748571D01*
X166116071Y-104677142D01*
X166044642Y-104605714D01*
X168401785Y-104748571D02*
X167544642Y-104748571D01*
X167973214Y-104748571D02*
X167973214Y-103248571D01*
X167830357Y-103462857D01*
X167687500Y-103605714D01*
X167544642Y-103677142D01*
X169901785Y-104748571D02*
X169401785Y-104034285D01*
X169044642Y-104748571D02*
X169044642Y-103248571D01*
X169616071Y-103248571D01*
X169758928Y-103320000D01*
X169830357Y-103391428D01*
X169901785Y-103534285D01*
X169901785Y-103748571D01*
X169830357Y-103891428D01*
X169758928Y-103962857D01*
X169616071Y-104034285D01*
X169044642Y-104034285D01*
X171044642Y-103962857D02*
X171258928Y-104034285D01*
X171330357Y-104105714D01*
X171401785Y-104248571D01*
X171401785Y-104462857D01*
X171330357Y-104605714D01*
X171258928Y-104677142D01*
X171116071Y-104748571D01*
X170544642Y-104748571D01*
X170544642Y-103248571D01*
X171044642Y-103248571D01*
X171187500Y-103320000D01*
X171258928Y-103391428D01*
X171330357Y-103534285D01*
X171330357Y-103677142D01*
X171258928Y-103820000D01*
X171187500Y-103891428D01*
X171044642Y-103962857D01*
X170544642Y-103962857D01*
X136898095Y-104592380D02*
X136898095Y-103592380D01*
X137469523Y-104592380D02*
X137040952Y-104020952D01*
X137469523Y-103592380D02*
X136898095Y-104163809D01*
X145788095Y-104592380D02*
X145788095Y-103592380D01*
X146359523Y-104592380D02*
X145930952Y-104020952D01*
X146359523Y-103592380D02*
X145788095Y-104163809D01*
X178085714Y-61412380D02*
X177514285Y-61412380D01*
X177800000Y-61412380D02*
X177800000Y-60412380D01*
X177704761Y-60555238D01*
X177609523Y-60650476D01*
X177514285Y-60698095D01*
X117125714Y-61412380D02*
X116554285Y-61412380D01*
X116840000Y-61412380D02*
X116840000Y-60412380D01*
X116744761Y-60555238D01*
X116649523Y-60650476D01*
X116554285Y-60698095D01*
X165100000Y-93980000D02*
X137160000Y-93980000D01*
X137160000Y-93980000D02*
X137160000Y-35560000D01*
X137160000Y-35560000D02*
X165100000Y-35560000D01*
X165100000Y-35560000D02*
X165100000Y-93980000D01*
D11*
X133350000Y-72160000D02*
X133350000Y-72930000D01*
X133350000Y-80240000D02*
X133350000Y-79470000D01*
X131980000Y-72930000D02*
X131980000Y-79470000D01*
X134720000Y-72930000D02*
X131980000Y-72930000D01*
X134720000Y-79470000D02*
X134720000Y-72930000D01*
X131980000Y-79470000D02*
X134720000Y-79470000D01*
X176590000Y-108010000D02*
X175260000Y-108010000D01*
X176590000Y-106680000D02*
X176590000Y-108010000D01*
X176590000Y-105410000D02*
X173930000Y-105410000D01*
X173930000Y-105410000D02*
X173930000Y-87570000D01*
X176590000Y-105410000D02*
X176590000Y-87570000D01*
X176590000Y-87570000D02*
X173930000Y-87570000D01*
X125670000Y-92650000D02*
X127000000Y-92650000D01*
X125670000Y-93980000D02*
X125670000Y-92650000D01*
X125670000Y-95250000D02*
X128330000Y-95250000D01*
X128330000Y-95250000D02*
X128330000Y-108010000D01*
X125670000Y-95250000D02*
X125670000Y-108010000D01*
X125670000Y-108010000D02*
X128330000Y-108010000D01*
X125670000Y-69790000D02*
X127000000Y-69790000D01*
X125670000Y-71120000D02*
X125670000Y-69790000D01*
X125670000Y-72390000D02*
X128330000Y-72390000D01*
X128330000Y-72390000D02*
X128330000Y-90230000D01*
X125670000Y-72390000D02*
X125670000Y-90230000D01*
X125670000Y-90230000D02*
X128330000Y-90230000D01*
X176590000Y-86420000D02*
X175260000Y-86420000D01*
X176590000Y-85090000D02*
X176590000Y-86420000D01*
X176590000Y-83820000D02*
X173930000Y-83820000D01*
X173930000Y-83820000D02*
X173930000Y-60900000D01*
X176590000Y-83820000D02*
X176590000Y-60900000D01*
X176590000Y-60900000D02*
X173930000Y-60900000D01*
X136180000Y-107916000D02*
X136180000Y-107760000D01*
X136180000Y-105600000D02*
X136180000Y-105444000D01*
X132947665Y-107758608D02*
G75*
G03X136180000Y-107915516I1672335J1078608D01*
G01*
X132947665Y-105601392D02*
G75*
G02X136180000Y-105444484I1672335J-1078608D01*
G01*
X133578870Y-107759837D02*
G75*
G03X135660961Y-107760000I1041130J1079837D01*
G01*
X133578870Y-105600163D02*
G75*
G02X135660961Y-105600000I1041130J-1079837D01*
G01*
X142468870Y-105600163D02*
G75*
G02X144550961Y-105600000I1041130J-1079837D01*
G01*
X142468870Y-107759837D02*
G75*
G03X144550961Y-107760000I1041130J1079837D01*
G01*
X141837665Y-105601392D02*
G75*
G02X145070000Y-105444484I1672335J-1078608D01*
G01*
X141837665Y-107758608D02*
G75*
G03X145070000Y-107915516I1672335J1078608D01*
G01*
X145070000Y-105600000D02*
X145070000Y-105444000D01*
X145070000Y-107916000D02*
X145070000Y-107760000D01*
X135160000Y-96420000D02*
X135160000Y-99160000D01*
X135160000Y-99160000D02*
X141700000Y-99160000D01*
X141700000Y-99160000D02*
X141700000Y-96420000D01*
X141700000Y-96420000D02*
X135160000Y-96420000D01*
X134390000Y-97790000D02*
X135160000Y-97790000D01*
X142470000Y-97790000D02*
X141700000Y-97790000D01*
X142470000Y-101600000D02*
X141700000Y-101600000D01*
X134390000Y-101600000D02*
X135160000Y-101600000D01*
X141700000Y-100230000D02*
X135160000Y-100230000D01*
X141700000Y-102970000D02*
X141700000Y-100230000D01*
X135160000Y-102970000D02*
X141700000Y-102970000D01*
X135160000Y-100230000D02*
X135160000Y-102970000D01*
X180340000Y-51030000D02*
X180340000Y-50260000D01*
X180340000Y-42950000D02*
X180340000Y-43720000D01*
X181710000Y-50260000D02*
X181710000Y-43720000D01*
X178970000Y-50260000D02*
X181710000Y-50260000D01*
X178970000Y-43720000D02*
X178970000Y-50260000D01*
X181710000Y-43720000D02*
X178970000Y-43720000D01*
X176630000Y-43720000D02*
X173890000Y-43720000D01*
X173890000Y-43720000D02*
X173890000Y-50260000D01*
X173890000Y-50260000D02*
X176630000Y-50260000D01*
X176630000Y-50260000D02*
X176630000Y-43720000D01*
X175260000Y-42950000D02*
X175260000Y-43720000D01*
X175260000Y-51030000D02*
X175260000Y-50260000D01*
D10*
X160528095Y-95972380D02*
X160528095Y-96781904D01*
X160575714Y-96877142D01*
X160623333Y-96924761D01*
X160718571Y-96972380D01*
X160909047Y-96972380D01*
X161004285Y-96924761D01*
X161051904Y-96877142D01*
X161099523Y-96781904D01*
X161099523Y-95972380D01*
X162099523Y-96972380D02*
X161528095Y-96972380D01*
X161813809Y-96972380D02*
X161813809Y-95972380D01*
X161718571Y-96115238D01*
X161623333Y-96210476D01*
X161528095Y-96258095D01*
X131432380Y-76366666D02*
X130956190Y-76700000D01*
X131432380Y-76938095D02*
X130432380Y-76938095D01*
X130432380Y-76557142D01*
X130480000Y-76461904D01*
X130527619Y-76414285D01*
X130622857Y-76366666D01*
X130765714Y-76366666D01*
X130860952Y-76414285D01*
X130908571Y-76461904D01*
X130956190Y-76557142D01*
X130956190Y-76938095D01*
X130432380Y-76033333D02*
X130432380Y-75414285D01*
X130813333Y-75747619D01*
X130813333Y-75604761D01*
X130860952Y-75509523D01*
X130908571Y-75461904D01*
X131003809Y-75414285D01*
X131241904Y-75414285D01*
X131337142Y-75461904D01*
X131384761Y-75509523D01*
X131432380Y-75604761D01*
X131432380Y-75890476D01*
X131384761Y-75985714D01*
X131337142Y-76033333D01*
X133135714Y-77128571D02*
X133802380Y-77128571D01*
X132754761Y-77366666D02*
X133469047Y-77604761D01*
X133469047Y-76985714D01*
X133707142Y-76604761D02*
X133754761Y-76557142D01*
X133802380Y-76604761D01*
X133754761Y-76652380D01*
X133707142Y-76604761D01*
X133802380Y-76604761D01*
X132802380Y-76223809D02*
X132802380Y-75557142D01*
X133802380Y-75985714D01*
X133802380Y-75176190D02*
X132802380Y-75176190D01*
X133421428Y-75080952D02*
X133802380Y-74795238D01*
X133135714Y-74795238D02*
X133516666Y-75176190D01*
X174569523Y-109367142D02*
X174521904Y-109414761D01*
X174379047Y-109462380D01*
X174283809Y-109462380D01*
X174140952Y-109414761D01*
X174045714Y-109319523D01*
X173998095Y-109224285D01*
X173950476Y-109033809D01*
X173950476Y-108890952D01*
X173998095Y-108700476D01*
X174045714Y-108605238D01*
X174140952Y-108510000D01*
X174283809Y-108462380D01*
X174379047Y-108462380D01*
X174521904Y-108510000D01*
X174569523Y-108557619D01*
X174998095Y-109462380D02*
X174998095Y-108462380D01*
X175569523Y-109462380D01*
X175569523Y-108462380D01*
X176093333Y-109462380D02*
X176283809Y-109462380D01*
X176379047Y-109414761D01*
X176426666Y-109367142D01*
X176521904Y-109224285D01*
X176569523Y-109033809D01*
X176569523Y-108652857D01*
X176521904Y-108557619D01*
X176474285Y-108510000D01*
X176379047Y-108462380D01*
X176188571Y-108462380D01*
X176093333Y-108510000D01*
X176045714Y-108557619D01*
X175998095Y-108652857D01*
X175998095Y-108890952D01*
X176045714Y-108986190D01*
X176093333Y-109033809D01*
X176188571Y-109081428D01*
X176379047Y-109081428D01*
X176474285Y-109033809D01*
X176521904Y-108986190D01*
X176569523Y-108890952D01*
X126309523Y-109577142D02*
X126261904Y-109624761D01*
X126119047Y-109672380D01*
X126023809Y-109672380D01*
X125880952Y-109624761D01*
X125785714Y-109529523D01*
X125738095Y-109434285D01*
X125690476Y-109243809D01*
X125690476Y-109100952D01*
X125738095Y-108910476D01*
X125785714Y-108815238D01*
X125880952Y-108720000D01*
X126023809Y-108672380D01*
X126119047Y-108672380D01*
X126261904Y-108720000D01*
X126309523Y-108767619D01*
X126738095Y-109672380D02*
X126738095Y-108672380D01*
X127309523Y-109672380D01*
X127309523Y-108672380D01*
X127928571Y-109100952D02*
X127833333Y-109053333D01*
X127785714Y-109005714D01*
X127738095Y-108910476D01*
X127738095Y-108862857D01*
X127785714Y-108767619D01*
X127833333Y-108720000D01*
X127928571Y-108672380D01*
X128119047Y-108672380D01*
X128214285Y-108720000D01*
X128261904Y-108767619D01*
X128309523Y-108862857D01*
X128309523Y-108910476D01*
X128261904Y-109005714D01*
X128214285Y-109053333D01*
X128119047Y-109100952D01*
X127928571Y-109100952D01*
X127833333Y-109148571D01*
X127785714Y-109196190D01*
X127738095Y-109291428D01*
X127738095Y-109481904D01*
X127785714Y-109577142D01*
X127833333Y-109624761D01*
X127928571Y-109672380D01*
X128119047Y-109672380D01*
X128214285Y-109624761D01*
X128261904Y-109577142D01*
X128309523Y-109481904D01*
X128309523Y-109291428D01*
X128261904Y-109196190D01*
X128214285Y-109148571D01*
X128119047Y-109100952D01*
X126309523Y-69147142D02*
X126261904Y-69194761D01*
X126119047Y-69242380D01*
X126023809Y-69242380D01*
X125880952Y-69194761D01*
X125785714Y-69099523D01*
X125738095Y-69004285D01*
X125690476Y-68813809D01*
X125690476Y-68670952D01*
X125738095Y-68480476D01*
X125785714Y-68385238D01*
X125880952Y-68290000D01*
X126023809Y-68242380D01*
X126119047Y-68242380D01*
X126261904Y-68290000D01*
X126309523Y-68337619D01*
X126738095Y-69242380D02*
X126738095Y-68242380D01*
X127309523Y-69242380D01*
X127309523Y-68242380D01*
X128214285Y-68242380D02*
X128023809Y-68242380D01*
X127928571Y-68290000D01*
X127880952Y-68337619D01*
X127785714Y-68480476D01*
X127738095Y-68670952D01*
X127738095Y-69051904D01*
X127785714Y-69147142D01*
X127833333Y-69194761D01*
X127928571Y-69242380D01*
X128119047Y-69242380D01*
X128214285Y-69194761D01*
X128261904Y-69147142D01*
X128309523Y-69051904D01*
X128309523Y-68813809D01*
X128261904Y-68718571D01*
X128214285Y-68670952D01*
X128119047Y-68623333D01*
X127928571Y-68623333D01*
X127833333Y-68670952D01*
X127785714Y-68718571D01*
X127738095Y-68813809D01*
X174569523Y-60047142D02*
X174521904Y-60094761D01*
X174379047Y-60142380D01*
X174283809Y-60142380D01*
X174140952Y-60094761D01*
X174045714Y-59999523D01*
X173998095Y-59904285D01*
X173950476Y-59713809D01*
X173950476Y-59570952D01*
X173998095Y-59380476D01*
X174045714Y-59285238D01*
X174140952Y-59190000D01*
X174283809Y-59142380D01*
X174379047Y-59142380D01*
X174521904Y-59190000D01*
X174569523Y-59237619D01*
X174998095Y-60142380D02*
X174998095Y-59142380D01*
X175569523Y-60142380D01*
X175569523Y-59142380D01*
X176521904Y-59142380D02*
X176045714Y-59142380D01*
X175998095Y-59618571D01*
X176045714Y-59570952D01*
X176140952Y-59523333D01*
X176379047Y-59523333D01*
X176474285Y-59570952D01*
X176521904Y-59618571D01*
X176569523Y-59713809D01*
X176569523Y-59951904D01*
X176521904Y-60047142D01*
X176474285Y-60094761D01*
X176379047Y-60142380D01*
X176140952Y-60142380D01*
X176045714Y-60094761D01*
X175998095Y-60047142D01*
X137691904Y-107767380D02*
X137691904Y-106767380D01*
X137930000Y-106767380D01*
X138072857Y-106815000D01*
X138168095Y-106910238D01*
X138215714Y-107005476D01*
X138263333Y-107195952D01*
X138263333Y-107338809D01*
X138215714Y-107529285D01*
X138168095Y-107624523D01*
X138072857Y-107719761D01*
X137930000Y-107767380D01*
X137691904Y-107767380D01*
X139215714Y-107767380D02*
X138644285Y-107767380D01*
X138930000Y-107767380D02*
X138930000Y-106767380D01*
X138834761Y-106910238D01*
X138739523Y-107005476D01*
X138644285Y-107053095D01*
X146581904Y-107767380D02*
X146581904Y-106767380D01*
X146820000Y-106767380D01*
X146962857Y-106815000D01*
X147058095Y-106910238D01*
X147105714Y-107005476D01*
X147153333Y-107195952D01*
X147153333Y-107338809D01*
X147105714Y-107529285D01*
X147058095Y-107624523D01*
X146962857Y-107719761D01*
X146820000Y-107767380D01*
X146581904Y-107767380D01*
X147534285Y-106862619D02*
X147581904Y-106815000D01*
X147677142Y-106767380D01*
X147915238Y-106767380D01*
X148010476Y-106815000D01*
X148058095Y-106862619D01*
X148105714Y-106957857D01*
X148105714Y-107053095D01*
X148058095Y-107195952D01*
X147486666Y-107767380D01*
X148105714Y-107767380D01*
X130643333Y-98242380D02*
X130310000Y-97766190D01*
X130071904Y-98242380D02*
X130071904Y-97242380D01*
X130452857Y-97242380D01*
X130548095Y-97290000D01*
X130595714Y-97337619D01*
X130643333Y-97432857D01*
X130643333Y-97575714D01*
X130595714Y-97670952D01*
X130548095Y-97718571D01*
X130452857Y-97766190D01*
X130071904Y-97766190D01*
X131595714Y-98242380D02*
X131024285Y-98242380D01*
X131310000Y-98242380D02*
X131310000Y-97242380D01*
X131214761Y-97385238D01*
X131119523Y-97480476D01*
X131024285Y-97528095D01*
X138310952Y-98242380D02*
X137739523Y-98242380D01*
X138025238Y-98242380D02*
X138025238Y-97242380D01*
X137930000Y-97385238D01*
X137834761Y-97480476D01*
X137739523Y-97528095D01*
X138739523Y-98242380D02*
X138739523Y-97242380D01*
X138834761Y-97861428D02*
X139120476Y-98242380D01*
X139120476Y-97575714D02*
X138739523Y-97956666D01*
X130643333Y-102052380D02*
X130310000Y-101576190D01*
X130071904Y-102052380D02*
X130071904Y-101052380D01*
X130452857Y-101052380D01*
X130548095Y-101100000D01*
X130595714Y-101147619D01*
X130643333Y-101242857D01*
X130643333Y-101385714D01*
X130595714Y-101480952D01*
X130548095Y-101528571D01*
X130452857Y-101576190D01*
X130071904Y-101576190D01*
X131024285Y-101147619D02*
X131071904Y-101100000D01*
X131167142Y-101052380D01*
X131405238Y-101052380D01*
X131500476Y-101100000D01*
X131548095Y-101147619D01*
X131595714Y-101242857D01*
X131595714Y-101338095D01*
X131548095Y-101480952D01*
X130976666Y-102052380D01*
X131595714Y-102052380D01*
X138310952Y-102052380D02*
X137739523Y-102052380D01*
X138025238Y-102052380D02*
X138025238Y-101052380D01*
X137930000Y-101195238D01*
X137834761Y-101290476D01*
X137739523Y-101338095D01*
X138739523Y-102052380D02*
X138739523Y-101052380D01*
X138834761Y-101671428D02*
X139120476Y-102052380D01*
X139120476Y-101385714D02*
X138739523Y-101766666D01*
X178252380Y-47156666D02*
X177776190Y-47490000D01*
X178252380Y-47728095D02*
X177252380Y-47728095D01*
X177252380Y-47347142D01*
X177300000Y-47251904D01*
X177347619Y-47204285D01*
X177442857Y-47156666D01*
X177585714Y-47156666D01*
X177680952Y-47204285D01*
X177728571Y-47251904D01*
X177776190Y-47347142D01*
X177776190Y-47728095D01*
X177252380Y-46251904D02*
X177252380Y-46728095D01*
X177728571Y-46775714D01*
X177680952Y-46728095D01*
X177633333Y-46632857D01*
X177633333Y-46394761D01*
X177680952Y-46299523D01*
X177728571Y-46251904D01*
X177823809Y-46204285D01*
X178061904Y-46204285D01*
X178157142Y-46251904D01*
X178204761Y-46299523D01*
X178252380Y-46394761D01*
X178252380Y-46632857D01*
X178204761Y-46728095D01*
X178157142Y-46775714D01*
X179887619Y-48394761D02*
X179840000Y-48347142D01*
X179792380Y-48251904D01*
X179792380Y-48013809D01*
X179840000Y-47918571D01*
X179887619Y-47870952D01*
X179982857Y-47823333D01*
X180078095Y-47823333D01*
X180220952Y-47870952D01*
X180792380Y-48442380D01*
X180792380Y-47823333D01*
X180697142Y-47394761D02*
X180744761Y-47347142D01*
X180792380Y-47394761D01*
X180744761Y-47442380D01*
X180697142Y-47394761D01*
X180792380Y-47394761D01*
X179887619Y-46966190D02*
X179840000Y-46918571D01*
X179792380Y-46823333D01*
X179792380Y-46585238D01*
X179840000Y-46490000D01*
X179887619Y-46442380D01*
X179982857Y-46394761D01*
X180078095Y-46394761D01*
X180220952Y-46442380D01*
X180792380Y-47013809D01*
X180792380Y-46394761D01*
X180792380Y-45966190D02*
X179792380Y-45966190D01*
X180411428Y-45870952D02*
X180792380Y-45585238D01*
X180125714Y-45585238D02*
X180506666Y-45966190D01*
X173172380Y-47156666D02*
X172696190Y-47490000D01*
X173172380Y-47728095D02*
X172172380Y-47728095D01*
X172172380Y-47347142D01*
X172220000Y-47251904D01*
X172267619Y-47204285D01*
X172362857Y-47156666D01*
X172505714Y-47156666D01*
X172600952Y-47204285D01*
X172648571Y-47251904D01*
X172696190Y-47347142D01*
X172696190Y-47728095D01*
X173172380Y-46680476D02*
X173172380Y-46490000D01*
X173124761Y-46394761D01*
X173077142Y-46347142D01*
X172934285Y-46251904D01*
X172743809Y-46204285D01*
X172362857Y-46204285D01*
X172267619Y-46251904D01*
X172220000Y-46299523D01*
X172172380Y-46394761D01*
X172172380Y-46585238D01*
X172220000Y-46680476D01*
X172267619Y-46728095D01*
X172362857Y-46775714D01*
X172600952Y-46775714D01*
X172696190Y-46728095D01*
X172743809Y-46680476D01*
X172791428Y-46585238D01*
X172791428Y-46394761D01*
X172743809Y-46299523D01*
X172696190Y-46251904D01*
X172600952Y-46204285D01*
X174807619Y-48394761D02*
X174760000Y-48347142D01*
X174712380Y-48251904D01*
X174712380Y-48013809D01*
X174760000Y-47918571D01*
X174807619Y-47870952D01*
X174902857Y-47823333D01*
X174998095Y-47823333D01*
X175140952Y-47870952D01*
X175712380Y-48442380D01*
X175712380Y-47823333D01*
X175617142Y-47394761D02*
X175664761Y-47347142D01*
X175712380Y-47394761D01*
X175664761Y-47442380D01*
X175617142Y-47394761D01*
X175712380Y-47394761D01*
X174807619Y-46966190D02*
X174760000Y-46918571D01*
X174712380Y-46823333D01*
X174712380Y-46585238D01*
X174760000Y-46490000D01*
X174807619Y-46442380D01*
X174902857Y-46394761D01*
X174998095Y-46394761D01*
X175140952Y-46442380D01*
X175712380Y-47013809D01*
X175712380Y-46394761D01*
X175712380Y-45966190D02*
X174712380Y-45966190D01*
X175331428Y-45870952D02*
X175712380Y-45585238D01*
X175045714Y-45585238D02*
X175426666Y-45966190D01*
M02*
