G04 #@! TF.GenerationSoftware,KiCad,Pcbnew,5.1.5-52549c5~84~ubuntu16.04.1*
G04 #@! TF.CreationDate,2020-03-12T07:55:31+09:00*
G04 #@! TF.ProjectId,Akashi-04,416b6173-6869-42d3-9034-2e6b69636164,rev?*
G04 #@! TF.SameCoordinates,Original*
G04 #@! TF.FileFunction,Legend,Bot*
G04 #@! TF.FilePolarity,Positive*
%FSLAX46Y46*%
G04 Gerber Fmt 4.6, Leading zero omitted, Abs format (unit mm)*
G04 Created by KiCad (PCBNEW 5.1.5-52549c5~84~ubuntu16.04.1) date 2020-03-12 07:55:31*
%MOMM*%
%LPD*%
G04 APERTURE LIST*
%ADD10C,0.177800*%
%ADD11C,0.100000*%
%ADD12C,0.150000*%
%ADD13C,0.120000*%
G04 APERTURE END LIST*
D10*
X148617819Y-71451953D02*
X148134009Y-71790620D01*
X148617819Y-72032525D02*
X147601819Y-72032525D01*
X147601819Y-71645477D01*
X147650200Y-71548715D01*
X147698580Y-71500334D01*
X147795342Y-71451953D01*
X147940485Y-71451953D01*
X148037247Y-71500334D01*
X148085628Y-71548715D01*
X148134009Y-71645477D01*
X148134009Y-72032525D01*
X147601819Y-71113287D02*
X147601819Y-70484334D01*
X147988866Y-70823001D01*
X147988866Y-70677858D01*
X148037247Y-70581096D01*
X148085628Y-70532715D01*
X148182390Y-70484334D01*
X148424295Y-70484334D01*
X148521057Y-70532715D01*
X148569438Y-70581096D01*
X148617819Y-70677858D01*
X148617819Y-70968144D01*
X148569438Y-71064906D01*
X148521057Y-71113287D01*
X148617819Y-68839382D02*
X148085628Y-68839382D01*
X147988866Y-68887763D01*
X147940485Y-68984525D01*
X147940485Y-69178049D01*
X147988866Y-69274810D01*
X148569438Y-68839382D02*
X148617819Y-68936144D01*
X148617819Y-69178049D01*
X148569438Y-69274810D01*
X148472676Y-69323191D01*
X148375914Y-69323191D01*
X148279152Y-69274810D01*
X148230771Y-69178049D01*
X148230771Y-68936144D01*
X148182390Y-68839382D01*
X147940485Y-68355572D02*
X148617819Y-68355572D01*
X148037247Y-68355572D02*
X147988866Y-68307191D01*
X147940485Y-68210430D01*
X147940485Y-68065287D01*
X147988866Y-67968525D01*
X148085628Y-67920144D01*
X148617819Y-67920144D01*
X148617819Y-67000906D02*
X147601819Y-67000906D01*
X148569438Y-67000906D02*
X148617819Y-67097668D01*
X148617819Y-67291191D01*
X148569438Y-67387953D01*
X148521057Y-67436334D01*
X148424295Y-67484715D01*
X148134009Y-67484715D01*
X148037247Y-67436334D01*
X147988866Y-67387953D01*
X147940485Y-67291191D01*
X147940485Y-67097668D01*
X147988866Y-67000906D01*
X148617819Y-65162430D02*
X148134009Y-65501096D01*
X148617819Y-65743001D02*
X147601819Y-65743001D01*
X147601819Y-65355953D01*
X147650200Y-65259191D01*
X147698580Y-65210810D01*
X147795342Y-65162430D01*
X147940485Y-65162430D01*
X148037247Y-65210810D01*
X148085628Y-65259191D01*
X148134009Y-65355953D01*
X148134009Y-65743001D01*
X147940485Y-64291572D02*
X148617819Y-64291572D01*
X147553438Y-64533477D02*
X148279152Y-64775382D01*
X148279152Y-64146430D01*
X148617819Y-62985287D02*
X147940485Y-62985287D01*
X148037247Y-62985287D02*
X147988866Y-62936906D01*
X147940485Y-62840144D01*
X147940485Y-62695001D01*
X147988866Y-62598239D01*
X148085628Y-62549858D01*
X148617819Y-62549858D01*
X148085628Y-62549858D02*
X147988866Y-62501477D01*
X147940485Y-62404715D01*
X147940485Y-62259572D01*
X147988866Y-62162810D01*
X148085628Y-62114430D01*
X148617819Y-62114430D01*
X147940485Y-61195191D02*
X148617819Y-61195191D01*
X147940485Y-61630620D02*
X148472676Y-61630620D01*
X148569438Y-61582239D01*
X148617819Y-61485477D01*
X148617819Y-61340334D01*
X148569438Y-61243572D01*
X148521057Y-61195191D01*
X148569438Y-60759763D02*
X148617819Y-60663001D01*
X148617819Y-60469477D01*
X148569438Y-60372715D01*
X148472676Y-60324334D01*
X148424295Y-60324334D01*
X148327533Y-60372715D01*
X148279152Y-60469477D01*
X148279152Y-60614620D01*
X148230771Y-60711382D01*
X148134009Y-60759763D01*
X148085628Y-60759763D01*
X147988866Y-60711382D01*
X147940485Y-60614620D01*
X147940485Y-60469477D01*
X147988866Y-60372715D01*
X147940485Y-60034049D02*
X147940485Y-59647001D01*
X147601819Y-59888906D02*
X148472676Y-59888906D01*
X148569438Y-59840525D01*
X148617819Y-59743763D01*
X148617819Y-59647001D01*
X148617819Y-58534239D02*
X147601819Y-58534239D01*
X147988866Y-58534239D02*
X147940485Y-58437477D01*
X147940485Y-58243953D01*
X147988866Y-58147191D01*
X148037247Y-58098810D01*
X148134009Y-58050430D01*
X148424295Y-58050430D01*
X148521057Y-58098810D01*
X148569438Y-58147191D01*
X148617819Y-58243953D01*
X148617819Y-58437477D01*
X148569438Y-58534239D01*
X148569438Y-57227953D02*
X148617819Y-57324715D01*
X148617819Y-57518239D01*
X148569438Y-57615001D01*
X148472676Y-57663382D01*
X148085628Y-57663382D01*
X147988866Y-57615001D01*
X147940485Y-57518239D01*
X147940485Y-57324715D01*
X147988866Y-57227953D01*
X148085628Y-57179572D01*
X148182390Y-57179572D01*
X148279152Y-57663382D01*
X148617819Y-55970049D02*
X147940485Y-55970049D01*
X147601819Y-55970049D02*
X147650200Y-56018430D01*
X147698580Y-55970049D01*
X147650200Y-55921668D01*
X147601819Y-55970049D01*
X147698580Y-55970049D01*
X147940485Y-55486239D02*
X148617819Y-55486239D01*
X148037247Y-55486239D02*
X147988866Y-55437858D01*
X147940485Y-55341096D01*
X147940485Y-55195953D01*
X147988866Y-55099191D01*
X148085628Y-55050810D01*
X148617819Y-55050810D01*
X148569438Y-54615382D02*
X148617819Y-54518620D01*
X148617819Y-54325096D01*
X148569438Y-54228334D01*
X148472676Y-54179953D01*
X148424295Y-54179953D01*
X148327533Y-54228334D01*
X148279152Y-54325096D01*
X148279152Y-54470239D01*
X148230771Y-54567001D01*
X148134009Y-54615382D01*
X148085628Y-54615382D01*
X147988866Y-54567001D01*
X147940485Y-54470239D01*
X147940485Y-54325096D01*
X147988866Y-54228334D01*
X147940485Y-53889668D02*
X147940485Y-53502620D01*
X147601819Y-53744525D02*
X148472676Y-53744525D01*
X148569438Y-53696144D01*
X148617819Y-53599382D01*
X148617819Y-53502620D01*
X148617819Y-52728525D02*
X148085628Y-52728525D01*
X147988866Y-52776906D01*
X147940485Y-52873668D01*
X147940485Y-53067191D01*
X147988866Y-53163953D01*
X148569438Y-52728525D02*
X148617819Y-52825287D01*
X148617819Y-53067191D01*
X148569438Y-53163953D01*
X148472676Y-53212334D01*
X148375914Y-53212334D01*
X148279152Y-53163953D01*
X148230771Y-53067191D01*
X148230771Y-52825287D01*
X148182390Y-52728525D01*
X148617819Y-52099572D02*
X148569438Y-52196334D01*
X148472676Y-52244715D01*
X147601819Y-52244715D01*
X148617819Y-51567382D02*
X148569438Y-51664144D01*
X148472676Y-51712525D01*
X147601819Y-51712525D01*
X148569438Y-50793287D02*
X148617819Y-50890049D01*
X148617819Y-51083572D01*
X148569438Y-51180334D01*
X148472676Y-51228715D01*
X148085628Y-51228715D01*
X147988866Y-51180334D01*
X147940485Y-51083572D01*
X147940485Y-50890049D01*
X147988866Y-50793287D01*
X148085628Y-50744906D01*
X148182390Y-50744906D01*
X148279152Y-51228715D01*
X148617819Y-49874049D02*
X147601819Y-49874049D01*
X148569438Y-49874049D02*
X148617819Y-49970810D01*
X148617819Y-50164334D01*
X148569438Y-50261096D01*
X148521057Y-50309477D01*
X148424295Y-50357858D01*
X148134009Y-50357858D01*
X148037247Y-50309477D01*
X147988866Y-50261096D01*
X147940485Y-50164334D01*
X147940485Y-49970810D01*
X147988866Y-49874049D01*
X150319619Y-71887382D02*
X150271238Y-71984144D01*
X150222857Y-72032525D01*
X150126095Y-72080906D01*
X149835809Y-72080906D01*
X149739047Y-72032525D01*
X149690666Y-71984144D01*
X149642285Y-71887382D01*
X149642285Y-71742239D01*
X149690666Y-71645477D01*
X149739047Y-71597096D01*
X149835809Y-71548715D01*
X150126095Y-71548715D01*
X150222857Y-71597096D01*
X150271238Y-71645477D01*
X150319619Y-71742239D01*
X150319619Y-71887382D01*
X149642285Y-71113287D02*
X150319619Y-71113287D01*
X149739047Y-71113287D02*
X149690666Y-71064906D01*
X149642285Y-70968144D01*
X149642285Y-70823001D01*
X149690666Y-70726239D01*
X149787428Y-70677858D01*
X150319619Y-70677858D01*
X150319619Y-70048906D02*
X150271238Y-70145668D01*
X150174476Y-70194049D01*
X149303619Y-70194049D01*
X149642285Y-69758620D02*
X150319619Y-69516715D01*
X149642285Y-69274810D02*
X150319619Y-69516715D01*
X150561523Y-69613477D01*
X150609904Y-69661858D01*
X150658285Y-69758620D01*
X149642285Y-68210430D02*
X150319619Y-68016906D01*
X149835809Y-67823382D01*
X150319619Y-67629858D01*
X149642285Y-67436334D01*
X150319619Y-67049287D02*
X149303619Y-67049287D01*
X150319619Y-66613858D02*
X149787428Y-66613858D01*
X149690666Y-66662239D01*
X149642285Y-66759001D01*
X149642285Y-66904144D01*
X149690666Y-67000906D01*
X149739047Y-67049287D01*
X150271238Y-65743001D02*
X150319619Y-65839763D01*
X150319619Y-66033287D01*
X150271238Y-66130049D01*
X150174476Y-66178430D01*
X149787428Y-66178430D01*
X149690666Y-66130049D01*
X149642285Y-66033287D01*
X149642285Y-65839763D01*
X149690666Y-65743001D01*
X149787428Y-65694620D01*
X149884190Y-65694620D01*
X149980952Y-66178430D01*
X149642285Y-65259191D02*
X150319619Y-65259191D01*
X149739047Y-65259191D02*
X149690666Y-65210810D01*
X149642285Y-65114049D01*
X149642285Y-64968906D01*
X149690666Y-64872144D01*
X149787428Y-64823763D01*
X150319619Y-64823763D01*
X149303619Y-63275572D02*
X150029333Y-63275572D01*
X150174476Y-63323953D01*
X150271238Y-63420715D01*
X150319619Y-63565858D01*
X150319619Y-63662620D01*
X150319619Y-62791763D02*
X149303619Y-62791763D01*
X149303619Y-62404715D01*
X149352000Y-62307953D01*
X149400380Y-62259572D01*
X149497142Y-62211191D01*
X149642285Y-62211191D01*
X149739047Y-62259572D01*
X149787428Y-62307953D01*
X149835809Y-62404715D01*
X149835809Y-62791763D01*
X150319619Y-61243572D02*
X150319619Y-61824144D01*
X150319619Y-61533858D02*
X149303619Y-61533858D01*
X149448761Y-61630620D01*
X149545523Y-61727382D01*
X149593904Y-61824144D01*
X150319619Y-59598620D02*
X149787428Y-59598620D01*
X149690666Y-59647001D01*
X149642285Y-59743763D01*
X149642285Y-59937287D01*
X149690666Y-60034049D01*
X150271238Y-59598620D02*
X150319619Y-59695382D01*
X150319619Y-59937287D01*
X150271238Y-60034049D01*
X150174476Y-60082430D01*
X150077714Y-60082430D01*
X149980952Y-60034049D01*
X149932571Y-59937287D01*
X149932571Y-59695382D01*
X149884190Y-59598620D01*
X149642285Y-59114810D02*
X150319619Y-59114810D01*
X149739047Y-59114810D02*
X149690666Y-59066430D01*
X149642285Y-58969668D01*
X149642285Y-58824525D01*
X149690666Y-58727763D01*
X149787428Y-58679382D01*
X150319619Y-58679382D01*
X150319619Y-57760144D02*
X149303619Y-57760144D01*
X150271238Y-57760144D02*
X150319619Y-57856906D01*
X150319619Y-58050430D01*
X150271238Y-58147191D01*
X150222857Y-58195572D01*
X150126095Y-58243953D01*
X149835809Y-58243953D01*
X149739047Y-58195572D01*
X149690666Y-58147191D01*
X149642285Y-58050430D01*
X149642285Y-57856906D01*
X149690666Y-57760144D01*
X149303619Y-56211953D02*
X150029333Y-56211953D01*
X150174476Y-56260334D01*
X150271238Y-56357096D01*
X150319619Y-56502239D01*
X150319619Y-56599001D01*
X150319619Y-55728144D02*
X149303619Y-55728144D01*
X149303619Y-55341096D01*
X149352000Y-55244334D01*
X149400380Y-55195953D01*
X149497142Y-55147572D01*
X149642285Y-55147572D01*
X149739047Y-55195953D01*
X149787428Y-55244334D01*
X149835809Y-55341096D01*
X149835809Y-55728144D01*
X149400380Y-54760525D02*
X149352000Y-54712144D01*
X149303619Y-54615382D01*
X149303619Y-54373477D01*
X149352000Y-54276715D01*
X149400380Y-54228334D01*
X149497142Y-54179953D01*
X149593904Y-54179953D01*
X149739047Y-54228334D01*
X150319619Y-54808906D01*
X150319619Y-54179953D01*
X150319619Y-52970430D02*
X149642285Y-52970430D01*
X149303619Y-52970430D02*
X149352000Y-53018810D01*
X149400380Y-52970430D01*
X149352000Y-52922049D01*
X149303619Y-52970430D01*
X149400380Y-52970430D01*
X150271238Y-52535001D02*
X150319619Y-52438239D01*
X150319619Y-52244715D01*
X150271238Y-52147953D01*
X150174476Y-52099572D01*
X150126095Y-52099572D01*
X150029333Y-52147953D01*
X149980952Y-52244715D01*
X149980952Y-52389858D01*
X149932571Y-52486620D01*
X149835809Y-52535001D01*
X149787428Y-52535001D01*
X149690666Y-52486620D01*
X149642285Y-52389858D01*
X149642285Y-52244715D01*
X149690666Y-52147953D01*
X150271238Y-50454620D02*
X150319619Y-50551382D01*
X150319619Y-50744906D01*
X150271238Y-50841668D01*
X150222857Y-50890049D01*
X150126095Y-50938430D01*
X149835809Y-50938430D01*
X149739047Y-50890049D01*
X149690666Y-50841668D01*
X149642285Y-50744906D01*
X149642285Y-50551382D01*
X149690666Y-50454620D01*
X149642285Y-49583763D02*
X150319619Y-49583763D01*
X149642285Y-50019191D02*
X150174476Y-50019191D01*
X150271238Y-49970810D01*
X150319619Y-49874049D01*
X150319619Y-49728906D01*
X150271238Y-49632144D01*
X150222857Y-49583763D01*
X149642285Y-49245096D02*
X149642285Y-48858049D01*
X149303619Y-49099953D02*
X150174476Y-49099953D01*
X150271238Y-49051572D01*
X150319619Y-48954810D01*
X150319619Y-48858049D01*
X150271238Y-48471001D02*
X150319619Y-48471001D01*
X150416380Y-48519382D01*
X150464761Y-48567763D01*
X152021419Y-72032525D02*
X151344085Y-72032525D01*
X151537609Y-72032525D02*
X151440847Y-71984144D01*
X151392466Y-71935763D01*
X151344085Y-71839001D01*
X151344085Y-71742239D01*
X151973038Y-71016525D02*
X152021419Y-71113287D01*
X152021419Y-71306810D01*
X151973038Y-71403572D01*
X151876276Y-71451953D01*
X151489228Y-71451953D01*
X151392466Y-71403572D01*
X151344085Y-71306810D01*
X151344085Y-71113287D01*
X151392466Y-71016525D01*
X151489228Y-70968144D01*
X151585990Y-70968144D01*
X151682752Y-71451953D01*
X151973038Y-70581096D02*
X152021419Y-70484334D01*
X152021419Y-70290810D01*
X151973038Y-70194049D01*
X151876276Y-70145668D01*
X151827895Y-70145668D01*
X151731133Y-70194049D01*
X151682752Y-70290810D01*
X151682752Y-70435953D01*
X151634371Y-70532715D01*
X151537609Y-70581096D01*
X151489228Y-70581096D01*
X151392466Y-70532715D01*
X151344085Y-70435953D01*
X151344085Y-70290810D01*
X151392466Y-70194049D01*
X151344085Y-69710239D02*
X152360085Y-69710239D01*
X151392466Y-69710239D02*
X151344085Y-69613477D01*
X151344085Y-69419953D01*
X151392466Y-69323191D01*
X151440847Y-69274810D01*
X151537609Y-69226430D01*
X151827895Y-69226430D01*
X151924657Y-69274810D01*
X151973038Y-69323191D01*
X152021419Y-69419953D01*
X152021419Y-69613477D01*
X151973038Y-69710239D01*
X151973038Y-68403953D02*
X152021419Y-68500715D01*
X152021419Y-68694239D01*
X151973038Y-68791001D01*
X151876276Y-68839382D01*
X151489228Y-68839382D01*
X151392466Y-68791001D01*
X151344085Y-68694239D01*
X151344085Y-68500715D01*
X151392466Y-68403953D01*
X151489228Y-68355572D01*
X151585990Y-68355572D01*
X151682752Y-68839382D01*
X151973038Y-67484715D02*
X152021419Y-67581477D01*
X152021419Y-67775001D01*
X151973038Y-67871763D01*
X151924657Y-67920144D01*
X151827895Y-67968525D01*
X151537609Y-67968525D01*
X151440847Y-67920144D01*
X151392466Y-67871763D01*
X151344085Y-67775001D01*
X151344085Y-67581477D01*
X151392466Y-67484715D01*
X151344085Y-67194430D02*
X151344085Y-66807382D01*
X151005419Y-67049287D02*
X151876276Y-67049287D01*
X151973038Y-67000906D01*
X152021419Y-66904144D01*
X152021419Y-66807382D01*
X152021419Y-66468715D02*
X151344085Y-66468715D01*
X151005419Y-66468715D02*
X151053800Y-66517096D01*
X151102180Y-66468715D01*
X151053800Y-66420334D01*
X151005419Y-66468715D01*
X151102180Y-66468715D01*
X151344085Y-66081668D02*
X152021419Y-65839763D01*
X151344085Y-65597858D01*
X151973038Y-64823763D02*
X152021419Y-64920525D01*
X152021419Y-65114049D01*
X151973038Y-65210810D01*
X151876276Y-65259191D01*
X151489228Y-65259191D01*
X151392466Y-65210810D01*
X151344085Y-65114049D01*
X151344085Y-64920525D01*
X151392466Y-64823763D01*
X151489228Y-64775382D01*
X151585990Y-64775382D01*
X151682752Y-65259191D01*
X152021419Y-64194810D02*
X151973038Y-64291572D01*
X151876276Y-64339953D01*
X151005419Y-64339953D01*
X151344085Y-63904525D02*
X152021419Y-63662620D01*
X151344085Y-63420715D02*
X152021419Y-63662620D01*
X152263323Y-63759382D01*
X152311704Y-63807763D01*
X152360085Y-63904525D01*
D11*
X134977142Y-44276190D02*
X135024761Y-44228571D01*
X135072380Y-44085714D01*
X135072380Y-43990476D01*
X135024761Y-43847619D01*
X134929523Y-43752380D01*
X134834285Y-43704761D01*
X134643809Y-43657142D01*
X134500952Y-43657142D01*
X134310476Y-43704761D01*
X134215238Y-43752380D01*
X134120000Y-43847619D01*
X134072380Y-43990476D01*
X134072380Y-44085714D01*
X134120000Y-44228571D01*
X134167619Y-44276190D01*
X134072380Y-44895238D02*
X134072380Y-45085714D01*
X134120000Y-45180952D01*
X134215238Y-45276190D01*
X134405714Y-45323809D01*
X134739047Y-45323809D01*
X134929523Y-45276190D01*
X135024761Y-45180952D01*
X135072380Y-45085714D01*
X135072380Y-44895238D01*
X135024761Y-44800000D01*
X134929523Y-44704761D01*
X134739047Y-44657142D01*
X134405714Y-44657142D01*
X134215238Y-44704761D01*
X134120000Y-44800000D01*
X134072380Y-44895238D01*
X135072380Y-45752380D02*
X134072380Y-45752380D01*
X134072380Y-45990476D01*
X134120000Y-46133333D01*
X134215238Y-46228571D01*
X134310476Y-46276190D01*
X134500952Y-46323809D01*
X134643809Y-46323809D01*
X134834285Y-46276190D01*
X134929523Y-46228571D01*
X135024761Y-46133333D01*
X135072380Y-45990476D01*
X135072380Y-45752380D01*
X134548571Y-46752380D02*
X134548571Y-47085714D01*
X135072380Y-47228571D02*
X135072380Y-46752380D01*
X134072380Y-46752380D01*
X134072380Y-47228571D01*
X134977142Y-48228571D02*
X135024761Y-48180952D01*
X135072380Y-48038095D01*
X135072380Y-47942857D01*
X135024761Y-47800000D01*
X134929523Y-47704761D01*
X134834285Y-47657142D01*
X134643809Y-47609523D01*
X134500952Y-47609523D01*
X134310476Y-47657142D01*
X134215238Y-47704761D01*
X134120000Y-47800000D01*
X134072380Y-47942857D01*
X134072380Y-48038095D01*
X134120000Y-48180952D01*
X134167619Y-48228571D01*
X135072380Y-49419047D02*
X134072380Y-49419047D01*
X134167619Y-49847619D02*
X134120000Y-49895238D01*
X134072380Y-49990476D01*
X134072380Y-50228571D01*
X134120000Y-50323809D01*
X134167619Y-50371428D01*
X134262857Y-50419047D01*
X134358095Y-50419047D01*
X134500952Y-50371428D01*
X135072380Y-49800000D01*
X135072380Y-50419047D01*
X134977142Y-51419047D02*
X135024761Y-51371428D01*
X135072380Y-51228571D01*
X135072380Y-51133333D01*
X135024761Y-50990476D01*
X134929523Y-50895238D01*
X134834285Y-50847619D01*
X134643809Y-50800000D01*
X134500952Y-50800000D01*
X134310476Y-50847619D01*
X134215238Y-50895238D01*
X134120000Y-50990476D01*
X134072380Y-51133333D01*
X134072380Y-51228571D01*
X134120000Y-51371428D01*
X134167619Y-51419047D01*
X134786666Y-52561904D02*
X134786666Y-53038095D01*
X135072380Y-52466666D02*
X134072380Y-52799999D01*
X135072380Y-53133333D01*
X135072380Y-53895238D02*
X134072380Y-53895238D01*
X135024761Y-53895238D02*
X135072380Y-53799999D01*
X135072380Y-53609523D01*
X135024761Y-53514285D01*
X134977142Y-53466666D01*
X134881904Y-53419047D01*
X134596190Y-53419047D01*
X134500952Y-53466666D01*
X134453333Y-53514285D01*
X134405714Y-53609523D01*
X134405714Y-53799999D01*
X134453333Y-53895238D01*
X135072380Y-54799999D02*
X134072380Y-54799999D01*
X135024761Y-54799999D02*
X135072380Y-54704761D01*
X135072380Y-54514285D01*
X135024761Y-54419047D01*
X134977142Y-54371428D01*
X134881904Y-54323809D01*
X134596190Y-54323809D01*
X134500952Y-54371428D01*
X134453333Y-54419047D01*
X134405714Y-54514285D01*
X134405714Y-54704761D01*
X134453333Y-54799999D01*
X135072380Y-55276190D02*
X134405714Y-55276190D01*
X134596190Y-55276190D02*
X134500952Y-55323809D01*
X134453333Y-55371428D01*
X134405714Y-55466666D01*
X134405714Y-55561904D01*
X135024761Y-56276190D02*
X135072380Y-56180952D01*
X135072380Y-55990476D01*
X135024761Y-55895238D01*
X134929523Y-55847619D01*
X134548571Y-55847619D01*
X134453333Y-55895238D01*
X134405714Y-55990476D01*
X134405714Y-56180952D01*
X134453333Y-56276190D01*
X134548571Y-56323809D01*
X134643809Y-56323809D01*
X134739047Y-55847619D01*
X135024761Y-56704761D02*
X135072380Y-56799999D01*
X135072380Y-56990476D01*
X135024761Y-57085714D01*
X134929523Y-57133333D01*
X134881904Y-57133333D01*
X134786666Y-57085714D01*
X134739047Y-56990476D01*
X134739047Y-56847619D01*
X134691428Y-56752380D01*
X134596190Y-56704761D01*
X134548571Y-56704761D01*
X134453333Y-56752380D01*
X134405714Y-56847619D01*
X134405714Y-56990476D01*
X134453333Y-57085714D01*
X135024761Y-57514285D02*
X135072380Y-57609523D01*
X135072380Y-57799999D01*
X135024761Y-57895238D01*
X134929523Y-57942857D01*
X134881904Y-57942857D01*
X134786666Y-57895238D01*
X134739047Y-57799999D01*
X134739047Y-57657142D01*
X134691428Y-57561904D01*
X134596190Y-57514285D01*
X134548571Y-57514285D01*
X134453333Y-57561904D01*
X134405714Y-57657142D01*
X134405714Y-57799999D01*
X134453333Y-57895238D01*
X137936666Y-54865476D02*
X137936666Y-55341666D01*
X138222380Y-54770238D02*
X137222380Y-55103571D01*
X138222380Y-55436904D01*
X138222380Y-56198809D02*
X137222380Y-56198809D01*
X138174761Y-56198809D02*
X138222380Y-56103571D01*
X138222380Y-55913095D01*
X138174761Y-55817857D01*
X138127142Y-55770238D01*
X138031904Y-55722619D01*
X137746190Y-55722619D01*
X137650952Y-55770238D01*
X137603333Y-55817857D01*
X137555714Y-55913095D01*
X137555714Y-56103571D01*
X137603333Y-56198809D01*
X138222380Y-57103571D02*
X137222380Y-57103571D01*
X138174761Y-57103571D02*
X138222380Y-57008333D01*
X138222380Y-56817857D01*
X138174761Y-56722619D01*
X138127142Y-56675000D01*
X138031904Y-56627380D01*
X137746190Y-56627380D01*
X137650952Y-56675000D01*
X137603333Y-56722619D01*
X137555714Y-56817857D01*
X137555714Y-57008333D01*
X137603333Y-57103571D01*
X138222380Y-57579761D02*
X137555714Y-57579761D01*
X137746190Y-57579761D02*
X137650952Y-57627380D01*
X137603333Y-57675000D01*
X137555714Y-57770238D01*
X137555714Y-57865476D01*
X138174761Y-58579761D02*
X138222380Y-58484523D01*
X138222380Y-58294047D01*
X138174761Y-58198809D01*
X138079523Y-58151190D01*
X137698571Y-58151190D01*
X137603333Y-58198809D01*
X137555714Y-58294047D01*
X137555714Y-58484523D01*
X137603333Y-58579761D01*
X137698571Y-58627380D01*
X137793809Y-58627380D01*
X137889047Y-58151190D01*
X138174761Y-59008333D02*
X138222380Y-59103571D01*
X138222380Y-59294047D01*
X138174761Y-59389285D01*
X138079523Y-59436904D01*
X138031904Y-59436904D01*
X137936666Y-59389285D01*
X137889047Y-59294047D01*
X137889047Y-59151190D01*
X137841428Y-59055952D01*
X137746190Y-59008333D01*
X137698571Y-59008333D01*
X137603333Y-59055952D01*
X137555714Y-59151190D01*
X137555714Y-59294047D01*
X137603333Y-59389285D01*
X138174761Y-59817857D02*
X138222380Y-59913095D01*
X138222380Y-60103571D01*
X138174761Y-60198809D01*
X138079523Y-60246428D01*
X138031904Y-60246428D01*
X137936666Y-60198809D01*
X137889047Y-60103571D01*
X137889047Y-59960714D01*
X137841428Y-59865476D01*
X137746190Y-59817857D01*
X137698571Y-59817857D01*
X137603333Y-59865476D01*
X137555714Y-59960714D01*
X137555714Y-60103571D01*
X137603333Y-60198809D01*
X138822380Y-55103571D02*
X138822380Y-55198809D01*
X138870000Y-55294047D01*
X138917619Y-55341666D01*
X139012857Y-55389285D01*
X139203333Y-55436904D01*
X139441428Y-55436904D01*
X139631904Y-55389285D01*
X139727142Y-55341666D01*
X139774761Y-55294047D01*
X139822380Y-55198809D01*
X139822380Y-55103571D01*
X139774761Y-55008333D01*
X139727142Y-54960714D01*
X139631904Y-54913095D01*
X139441428Y-54865476D01*
X139203333Y-54865476D01*
X139012857Y-54913095D01*
X138917619Y-54960714D01*
X138870000Y-55008333D01*
X138822380Y-55103571D01*
X139822380Y-55770238D02*
X139155714Y-56294047D01*
X139155714Y-55770238D02*
X139822380Y-56294047D01*
X138822380Y-56579761D02*
X138822380Y-57198809D01*
X139203333Y-56865476D01*
X139203333Y-57008333D01*
X139250952Y-57103571D01*
X139298571Y-57151190D01*
X139393809Y-57198809D01*
X139631904Y-57198809D01*
X139727142Y-57151190D01*
X139774761Y-57103571D01*
X139822380Y-57008333D01*
X139822380Y-56722619D01*
X139774761Y-56627380D01*
X139727142Y-56579761D01*
X139250952Y-57770238D02*
X139203333Y-57675000D01*
X139155714Y-57627380D01*
X139060476Y-57579761D01*
X139012857Y-57579761D01*
X138917619Y-57627380D01*
X138870000Y-57675000D01*
X138822380Y-57770238D01*
X138822380Y-57960714D01*
X138870000Y-58055952D01*
X138917619Y-58103571D01*
X139012857Y-58151190D01*
X139060476Y-58151190D01*
X139155714Y-58103571D01*
X139203333Y-58055952D01*
X139250952Y-57960714D01*
X139250952Y-57770238D01*
X139298571Y-57675000D01*
X139346190Y-57627380D01*
X139441428Y-57579761D01*
X139631904Y-57579761D01*
X139727142Y-57627380D01*
X139774761Y-57675000D01*
X139822380Y-57770238D01*
X139822380Y-57960714D01*
X139774761Y-58055952D01*
X139727142Y-58103571D01*
X139631904Y-58151190D01*
X139441428Y-58151190D01*
X139346190Y-58103571D01*
X139298571Y-58055952D01*
X139250952Y-57960714D01*
X139489047Y-59579761D02*
X139489047Y-59198809D01*
X139822380Y-60675000D02*
X138822380Y-60675000D01*
X138822380Y-60913095D01*
X138870000Y-61055952D01*
X138965238Y-61151190D01*
X139060476Y-61198809D01*
X139250952Y-61246428D01*
X139393809Y-61246428D01*
X139584285Y-61198809D01*
X139679523Y-61151190D01*
X139774761Y-61055952D01*
X139822380Y-60913095D01*
X139822380Y-60675000D01*
X139774761Y-62055952D02*
X139822380Y-61960714D01*
X139822380Y-61770238D01*
X139774761Y-61675000D01*
X139679523Y-61627380D01*
X139298571Y-61627380D01*
X139203333Y-61675000D01*
X139155714Y-61770238D01*
X139155714Y-61960714D01*
X139203333Y-62055952D01*
X139298571Y-62103571D01*
X139393809Y-62103571D01*
X139489047Y-61627380D01*
X139155714Y-62389285D02*
X139155714Y-62770238D01*
X139822380Y-62532142D02*
X138965238Y-62532142D01*
X138870000Y-62579761D01*
X138822380Y-62675000D01*
X138822380Y-62770238D01*
X139822380Y-63532142D02*
X139298571Y-63532142D01*
X139203333Y-63484523D01*
X139155714Y-63389285D01*
X139155714Y-63198809D01*
X139203333Y-63103571D01*
X139774761Y-63532142D02*
X139822380Y-63436904D01*
X139822380Y-63198809D01*
X139774761Y-63103571D01*
X139679523Y-63055952D01*
X139584285Y-63055952D01*
X139489047Y-63103571D01*
X139441428Y-63198809D01*
X139441428Y-63436904D01*
X139393809Y-63532142D01*
X139155714Y-64436904D02*
X139822380Y-64436904D01*
X139155714Y-64008333D02*
X139679523Y-64008333D01*
X139774761Y-64055952D01*
X139822380Y-64151190D01*
X139822380Y-64294047D01*
X139774761Y-64389285D01*
X139727142Y-64436904D01*
X139822380Y-65055952D02*
X139774761Y-64960714D01*
X139679523Y-64913095D01*
X138822380Y-64913095D01*
X139155714Y-65294047D02*
X139155714Y-65675000D01*
X138822380Y-65436904D02*
X139679523Y-65436904D01*
X139774761Y-65484523D01*
X139822380Y-65579761D01*
X139822380Y-65675000D01*
X140422380Y-55103571D02*
X140422380Y-55198809D01*
X140470000Y-55294047D01*
X140517619Y-55341666D01*
X140612857Y-55389285D01*
X140803333Y-55436904D01*
X141041428Y-55436904D01*
X141231904Y-55389285D01*
X141327142Y-55341666D01*
X141374761Y-55294047D01*
X141422380Y-55198809D01*
X141422380Y-55103571D01*
X141374761Y-55008333D01*
X141327142Y-54960714D01*
X141231904Y-54913095D01*
X141041428Y-54865476D01*
X140803333Y-54865476D01*
X140612857Y-54913095D01*
X140517619Y-54960714D01*
X140470000Y-55008333D01*
X140422380Y-55103571D01*
X141422380Y-55770238D02*
X140755714Y-56294047D01*
X140755714Y-55770238D02*
X141422380Y-56294047D01*
X140422380Y-56579761D02*
X140422380Y-57198809D01*
X140803333Y-56865476D01*
X140803333Y-57008333D01*
X140850952Y-57103571D01*
X140898571Y-57151190D01*
X140993809Y-57198809D01*
X141231904Y-57198809D01*
X141327142Y-57151190D01*
X141374761Y-57103571D01*
X141422380Y-57008333D01*
X141422380Y-56722619D01*
X141374761Y-56627380D01*
X141327142Y-56579761D01*
X141422380Y-57675000D02*
X141422380Y-57865476D01*
X141374761Y-57960714D01*
X141327142Y-58008333D01*
X141184285Y-58103571D01*
X140993809Y-58151190D01*
X140612857Y-58151190D01*
X140517619Y-58103571D01*
X140470000Y-58055952D01*
X140422380Y-57960714D01*
X140422380Y-57770238D01*
X140470000Y-57675000D01*
X140517619Y-57627380D01*
X140612857Y-57579761D01*
X140850952Y-57579761D01*
X140946190Y-57627380D01*
X140993809Y-57675000D01*
X141041428Y-57770238D01*
X141041428Y-57960714D01*
X140993809Y-58055952D01*
X140946190Y-58103571D01*
X140850952Y-58151190D01*
X142022380Y-55103571D02*
X142022380Y-55198809D01*
X142070000Y-55294047D01*
X142117619Y-55341666D01*
X142212857Y-55389285D01*
X142403333Y-55436904D01*
X142641428Y-55436904D01*
X142831904Y-55389285D01*
X142927142Y-55341666D01*
X142974761Y-55294047D01*
X143022380Y-55198809D01*
X143022380Y-55103571D01*
X142974761Y-55008333D01*
X142927142Y-54960714D01*
X142831904Y-54913095D01*
X142641428Y-54865476D01*
X142403333Y-54865476D01*
X142212857Y-54913095D01*
X142117619Y-54960714D01*
X142070000Y-55008333D01*
X142022380Y-55103571D01*
X143022380Y-55770238D02*
X142355714Y-56294047D01*
X142355714Y-55770238D02*
X143022380Y-56294047D01*
X142022380Y-56579761D02*
X142022380Y-57198809D01*
X142403333Y-56865476D01*
X142403333Y-57008333D01*
X142450952Y-57103571D01*
X142498571Y-57151190D01*
X142593809Y-57198809D01*
X142831904Y-57198809D01*
X142927142Y-57151190D01*
X142974761Y-57103571D01*
X143022380Y-57008333D01*
X143022380Y-56722619D01*
X142974761Y-56627380D01*
X142927142Y-56579761D01*
X142736666Y-57579761D02*
X142736666Y-58055952D01*
X143022380Y-57484523D02*
X142022380Y-57817857D01*
X143022380Y-58151190D01*
X143622380Y-55103571D02*
X143622380Y-55198809D01*
X143670000Y-55294047D01*
X143717619Y-55341666D01*
X143812857Y-55389285D01*
X144003333Y-55436904D01*
X144241428Y-55436904D01*
X144431904Y-55389285D01*
X144527142Y-55341666D01*
X144574761Y-55294047D01*
X144622380Y-55198809D01*
X144622380Y-55103571D01*
X144574761Y-55008333D01*
X144527142Y-54960714D01*
X144431904Y-54913095D01*
X144241428Y-54865476D01*
X144003333Y-54865476D01*
X143812857Y-54913095D01*
X143717619Y-54960714D01*
X143670000Y-55008333D01*
X143622380Y-55103571D01*
X144622380Y-55770238D02*
X143955714Y-56294047D01*
X143955714Y-55770238D02*
X144622380Y-56294047D01*
X143622380Y-56579761D02*
X143622380Y-57198809D01*
X144003333Y-56865476D01*
X144003333Y-57008333D01*
X144050952Y-57103571D01*
X144098571Y-57151190D01*
X144193809Y-57198809D01*
X144431904Y-57198809D01*
X144527142Y-57151190D01*
X144574761Y-57103571D01*
X144622380Y-57008333D01*
X144622380Y-56722619D01*
X144574761Y-56627380D01*
X144527142Y-56579761D01*
X144098571Y-57960714D02*
X144146190Y-58103571D01*
X144193809Y-58151190D01*
X144289047Y-58198809D01*
X144431904Y-58198809D01*
X144527142Y-58151190D01*
X144574761Y-58103571D01*
X144622380Y-58008333D01*
X144622380Y-57627380D01*
X143622380Y-57627380D01*
X143622380Y-57960714D01*
X143670000Y-58055952D01*
X143717619Y-58103571D01*
X143812857Y-58151190D01*
X143908095Y-58151190D01*
X144003333Y-58103571D01*
X144050952Y-58055952D01*
X144098571Y-57960714D01*
X144098571Y-57627380D01*
X137222380Y-48848809D02*
X137936666Y-48848809D01*
X138079523Y-48801190D01*
X138174761Y-48705952D01*
X138222380Y-48563095D01*
X138222380Y-48467857D01*
X138222380Y-49325000D02*
X137222380Y-49325000D01*
X137222380Y-49705952D01*
X137270000Y-49801190D01*
X137317619Y-49848809D01*
X137412857Y-49896428D01*
X137555714Y-49896428D01*
X137650952Y-49848809D01*
X137698571Y-49801190D01*
X137746190Y-49705952D01*
X137746190Y-49325000D01*
X137317619Y-50277380D02*
X137270000Y-50325000D01*
X137222380Y-50420238D01*
X137222380Y-50658333D01*
X137270000Y-50753571D01*
X137317619Y-50801190D01*
X137412857Y-50848809D01*
X137508095Y-50848809D01*
X137650952Y-50801190D01*
X138222380Y-50229761D01*
X138222380Y-50848809D01*
X139727142Y-49134523D02*
X139774761Y-49086904D01*
X139822380Y-48944047D01*
X139822380Y-48848809D01*
X139774761Y-48705952D01*
X139679523Y-48610714D01*
X139584285Y-48563095D01*
X139393809Y-48515476D01*
X139250952Y-48515476D01*
X139060476Y-48563095D01*
X138965238Y-48610714D01*
X138870000Y-48705952D01*
X138822380Y-48848809D01*
X138822380Y-48944047D01*
X138870000Y-49086904D01*
X138917619Y-49134523D01*
X139822380Y-49705952D02*
X139774761Y-49610714D01*
X139679523Y-49563095D01*
X138822380Y-49563095D01*
X139822380Y-50229761D02*
X139774761Y-50134523D01*
X139727142Y-50086904D01*
X139631904Y-50039285D01*
X139346190Y-50039285D01*
X139250952Y-50086904D01*
X139203333Y-50134523D01*
X139155714Y-50229761D01*
X139155714Y-50372619D01*
X139203333Y-50467857D01*
X139250952Y-50515476D01*
X139346190Y-50563095D01*
X139631904Y-50563095D01*
X139727142Y-50515476D01*
X139774761Y-50467857D01*
X139822380Y-50372619D01*
X139822380Y-50229761D01*
X139774761Y-50944047D02*
X139822380Y-51039285D01*
X139822380Y-51229761D01*
X139774761Y-51325000D01*
X139679523Y-51372619D01*
X139631904Y-51372619D01*
X139536666Y-51325000D01*
X139489047Y-51229761D01*
X139489047Y-51086904D01*
X139441428Y-50991666D01*
X139346190Y-50944047D01*
X139298571Y-50944047D01*
X139203333Y-50991666D01*
X139155714Y-51086904D01*
X139155714Y-51229761D01*
X139203333Y-51325000D01*
X139774761Y-52182142D02*
X139822380Y-52086904D01*
X139822380Y-51896428D01*
X139774761Y-51801190D01*
X139679523Y-51753571D01*
X139298571Y-51753571D01*
X139203333Y-51801190D01*
X139155714Y-51896428D01*
X139155714Y-52086904D01*
X139203333Y-52182142D01*
X139298571Y-52229761D01*
X139393809Y-52229761D01*
X139489047Y-51753571D01*
X139822380Y-53086904D02*
X138822380Y-53086904D01*
X139774761Y-53086904D02*
X139822380Y-52991666D01*
X139822380Y-52801190D01*
X139774761Y-52705952D01*
X139727142Y-52658333D01*
X139631904Y-52610714D01*
X139346190Y-52610714D01*
X139250952Y-52658333D01*
X139203333Y-52705952D01*
X139155714Y-52801190D01*
X139155714Y-52991666D01*
X139203333Y-53086904D01*
X141327142Y-49134523D02*
X141374761Y-49086904D01*
X141422380Y-48944047D01*
X141422380Y-48848809D01*
X141374761Y-48705952D01*
X141279523Y-48610714D01*
X141184285Y-48563095D01*
X140993809Y-48515476D01*
X140850952Y-48515476D01*
X140660476Y-48563095D01*
X140565238Y-48610714D01*
X140470000Y-48705952D01*
X140422380Y-48848809D01*
X140422380Y-48944047D01*
X140470000Y-49086904D01*
X140517619Y-49134523D01*
X141422380Y-49705952D02*
X141374761Y-49610714D01*
X141279523Y-49563095D01*
X140422380Y-49563095D01*
X141422380Y-50229761D02*
X141374761Y-50134523D01*
X141327142Y-50086904D01*
X141231904Y-50039285D01*
X140946190Y-50039285D01*
X140850952Y-50086904D01*
X140803333Y-50134523D01*
X140755714Y-50229761D01*
X140755714Y-50372619D01*
X140803333Y-50467857D01*
X140850952Y-50515476D01*
X140946190Y-50563095D01*
X141231904Y-50563095D01*
X141327142Y-50515476D01*
X141374761Y-50467857D01*
X141422380Y-50372619D01*
X141422380Y-50229761D01*
X141374761Y-50944047D02*
X141422380Y-51039285D01*
X141422380Y-51229761D01*
X141374761Y-51325000D01*
X141279523Y-51372619D01*
X141231904Y-51372619D01*
X141136666Y-51325000D01*
X141089047Y-51229761D01*
X141089047Y-51086904D01*
X141041428Y-50991666D01*
X140946190Y-50944047D01*
X140898571Y-50944047D01*
X140803333Y-50991666D01*
X140755714Y-51086904D01*
X140755714Y-51229761D01*
X140803333Y-51325000D01*
X141374761Y-52182142D02*
X141422380Y-52086904D01*
X141422380Y-51896428D01*
X141374761Y-51801190D01*
X141279523Y-51753571D01*
X140898571Y-51753571D01*
X140803333Y-51801190D01*
X140755714Y-51896428D01*
X140755714Y-52086904D01*
X140803333Y-52182142D01*
X140898571Y-52229761D01*
X140993809Y-52229761D01*
X141089047Y-51753571D01*
X141422380Y-53086904D02*
X140422380Y-53086904D01*
X141374761Y-53086904D02*
X141422380Y-52991666D01*
X141422380Y-52801190D01*
X141374761Y-52705952D01*
X141327142Y-52658333D01*
X141231904Y-52610714D01*
X140946190Y-52610714D01*
X140850952Y-52658333D01*
X140803333Y-52705952D01*
X140755714Y-52801190D01*
X140755714Y-52991666D01*
X140803333Y-53086904D01*
X142022380Y-48753571D02*
X142022380Y-48944047D01*
X142070000Y-49039285D01*
X142165238Y-49134523D01*
X142355714Y-49182142D01*
X142689047Y-49182142D01*
X142879523Y-49134523D01*
X142974761Y-49039285D01*
X143022380Y-48944047D01*
X143022380Y-48753571D01*
X142974761Y-48658333D01*
X142879523Y-48563095D01*
X142689047Y-48515476D01*
X142355714Y-48515476D01*
X142165238Y-48563095D01*
X142070000Y-48658333D01*
X142022380Y-48753571D01*
X142355714Y-49610714D02*
X143355714Y-49610714D01*
X142403333Y-49610714D02*
X142355714Y-49705952D01*
X142355714Y-49896428D01*
X142403333Y-49991666D01*
X142450952Y-50039285D01*
X142546190Y-50086904D01*
X142831904Y-50086904D01*
X142927142Y-50039285D01*
X142974761Y-49991666D01*
X143022380Y-49896428D01*
X143022380Y-49705952D01*
X142974761Y-49610714D01*
X142974761Y-50896428D02*
X143022380Y-50801190D01*
X143022380Y-50610714D01*
X142974761Y-50515476D01*
X142879523Y-50467857D01*
X142498571Y-50467857D01*
X142403333Y-50515476D01*
X142355714Y-50610714D01*
X142355714Y-50801190D01*
X142403333Y-50896428D01*
X142498571Y-50944047D01*
X142593809Y-50944047D01*
X142689047Y-50467857D01*
X142355714Y-51372619D02*
X143022380Y-51372619D01*
X142450952Y-51372619D02*
X142403333Y-51420238D01*
X142355714Y-51515476D01*
X142355714Y-51658333D01*
X142403333Y-51753571D01*
X142498571Y-51801190D01*
X143022380Y-51801190D01*
X143622380Y-48753571D02*
X143622380Y-48944047D01*
X143670000Y-49039285D01*
X143765238Y-49134523D01*
X143955714Y-49182142D01*
X144289047Y-49182142D01*
X144479523Y-49134523D01*
X144574761Y-49039285D01*
X144622380Y-48944047D01*
X144622380Y-48753571D01*
X144574761Y-48658333D01*
X144479523Y-48563095D01*
X144289047Y-48515476D01*
X143955714Y-48515476D01*
X143765238Y-48563095D01*
X143670000Y-48658333D01*
X143622380Y-48753571D01*
X143955714Y-49610714D02*
X144955714Y-49610714D01*
X144003333Y-49610714D02*
X143955714Y-49705952D01*
X143955714Y-49896428D01*
X144003333Y-49991666D01*
X144050952Y-50039285D01*
X144146190Y-50086904D01*
X144431904Y-50086904D01*
X144527142Y-50039285D01*
X144574761Y-49991666D01*
X144622380Y-49896428D01*
X144622380Y-49705952D01*
X144574761Y-49610714D01*
X144574761Y-50896428D02*
X144622380Y-50801190D01*
X144622380Y-50610714D01*
X144574761Y-50515476D01*
X144479523Y-50467857D01*
X144098571Y-50467857D01*
X144003333Y-50515476D01*
X143955714Y-50610714D01*
X143955714Y-50801190D01*
X144003333Y-50896428D01*
X144098571Y-50944047D01*
X144193809Y-50944047D01*
X144289047Y-50467857D01*
X143955714Y-51372619D02*
X144622380Y-51372619D01*
X144050952Y-51372619D02*
X144003333Y-51420238D01*
X143955714Y-51515476D01*
X143955714Y-51658333D01*
X144003333Y-51753571D01*
X144098571Y-51801190D01*
X144622380Y-51801190D01*
X137222380Y-42498809D02*
X137936666Y-42498809D01*
X138079523Y-42451190D01*
X138174761Y-42355952D01*
X138222380Y-42213095D01*
X138222380Y-42117857D01*
X138222380Y-42975000D02*
X137222380Y-42975000D01*
X137222380Y-43355952D01*
X137270000Y-43451190D01*
X137317619Y-43498809D01*
X137412857Y-43546428D01*
X137555714Y-43546428D01*
X137650952Y-43498809D01*
X137698571Y-43451190D01*
X137746190Y-43355952D01*
X137746190Y-42975000D01*
X138222380Y-44498809D02*
X138222380Y-43927380D01*
X138222380Y-44213095D02*
X137222380Y-44213095D01*
X137365238Y-44117857D01*
X137460476Y-44022619D01*
X137508095Y-43927380D01*
X139727142Y-42784523D02*
X139774761Y-42736904D01*
X139822380Y-42594047D01*
X139822380Y-42498809D01*
X139774761Y-42355952D01*
X139679523Y-42260714D01*
X139584285Y-42213095D01*
X139393809Y-42165476D01*
X139250952Y-42165476D01*
X139060476Y-42213095D01*
X138965238Y-42260714D01*
X138870000Y-42355952D01*
X138822380Y-42498809D01*
X138822380Y-42594047D01*
X138870000Y-42736904D01*
X138917619Y-42784523D01*
X139822380Y-43355952D02*
X139774761Y-43260714D01*
X139679523Y-43213095D01*
X138822380Y-43213095D01*
X139822380Y-43879761D02*
X139774761Y-43784523D01*
X139727142Y-43736904D01*
X139631904Y-43689285D01*
X139346190Y-43689285D01*
X139250952Y-43736904D01*
X139203333Y-43784523D01*
X139155714Y-43879761D01*
X139155714Y-44022619D01*
X139203333Y-44117857D01*
X139250952Y-44165476D01*
X139346190Y-44213095D01*
X139631904Y-44213095D01*
X139727142Y-44165476D01*
X139774761Y-44117857D01*
X139822380Y-44022619D01*
X139822380Y-43879761D01*
X139774761Y-44594047D02*
X139822380Y-44689285D01*
X139822380Y-44879761D01*
X139774761Y-44975000D01*
X139679523Y-45022619D01*
X139631904Y-45022619D01*
X139536666Y-44975000D01*
X139489047Y-44879761D01*
X139489047Y-44736904D01*
X139441428Y-44641666D01*
X139346190Y-44594047D01*
X139298571Y-44594047D01*
X139203333Y-44641666D01*
X139155714Y-44736904D01*
X139155714Y-44879761D01*
X139203333Y-44975000D01*
X139774761Y-45832142D02*
X139822380Y-45736904D01*
X139822380Y-45546428D01*
X139774761Y-45451190D01*
X139679523Y-45403571D01*
X139298571Y-45403571D01*
X139203333Y-45451190D01*
X139155714Y-45546428D01*
X139155714Y-45736904D01*
X139203333Y-45832142D01*
X139298571Y-45879761D01*
X139393809Y-45879761D01*
X139489047Y-45403571D01*
X139822380Y-46736904D02*
X138822380Y-46736904D01*
X139774761Y-46736904D02*
X139822380Y-46641666D01*
X139822380Y-46451190D01*
X139774761Y-46355952D01*
X139727142Y-46308333D01*
X139631904Y-46260714D01*
X139346190Y-46260714D01*
X139250952Y-46308333D01*
X139203333Y-46355952D01*
X139155714Y-46451190D01*
X139155714Y-46641666D01*
X139203333Y-46736904D01*
X140422380Y-42403571D02*
X140422380Y-42594047D01*
X140470000Y-42689285D01*
X140565238Y-42784523D01*
X140755714Y-42832142D01*
X141089047Y-42832142D01*
X141279523Y-42784523D01*
X141374761Y-42689285D01*
X141422380Y-42594047D01*
X141422380Y-42403571D01*
X141374761Y-42308333D01*
X141279523Y-42213095D01*
X141089047Y-42165476D01*
X140755714Y-42165476D01*
X140565238Y-42213095D01*
X140470000Y-42308333D01*
X140422380Y-42403571D01*
X140755714Y-43260714D02*
X141755714Y-43260714D01*
X140803333Y-43260714D02*
X140755714Y-43355952D01*
X140755714Y-43546428D01*
X140803333Y-43641666D01*
X140850952Y-43689285D01*
X140946190Y-43736904D01*
X141231904Y-43736904D01*
X141327142Y-43689285D01*
X141374761Y-43641666D01*
X141422380Y-43546428D01*
X141422380Y-43355952D01*
X141374761Y-43260714D01*
X141374761Y-44546428D02*
X141422380Y-44451190D01*
X141422380Y-44260714D01*
X141374761Y-44165476D01*
X141279523Y-44117857D01*
X140898571Y-44117857D01*
X140803333Y-44165476D01*
X140755714Y-44260714D01*
X140755714Y-44451190D01*
X140803333Y-44546428D01*
X140898571Y-44594047D01*
X140993809Y-44594047D01*
X141089047Y-44117857D01*
X140755714Y-45022619D02*
X141422380Y-45022619D01*
X140850952Y-45022619D02*
X140803333Y-45070238D01*
X140755714Y-45165476D01*
X140755714Y-45308333D01*
X140803333Y-45403571D01*
X140898571Y-45451190D01*
X141422380Y-45451190D01*
X142927142Y-42784523D02*
X142974761Y-42736904D01*
X143022380Y-42594047D01*
X143022380Y-42498809D01*
X142974761Y-42355952D01*
X142879523Y-42260714D01*
X142784285Y-42213095D01*
X142593809Y-42165476D01*
X142450952Y-42165476D01*
X142260476Y-42213095D01*
X142165238Y-42260714D01*
X142070000Y-42355952D01*
X142022380Y-42498809D01*
X142022380Y-42594047D01*
X142070000Y-42736904D01*
X142117619Y-42784523D01*
X143022380Y-43355952D02*
X142974761Y-43260714D01*
X142879523Y-43213095D01*
X142022380Y-43213095D01*
X143022380Y-43879761D02*
X142974761Y-43784523D01*
X142927142Y-43736904D01*
X142831904Y-43689285D01*
X142546190Y-43689285D01*
X142450952Y-43736904D01*
X142403333Y-43784523D01*
X142355714Y-43879761D01*
X142355714Y-44022619D01*
X142403333Y-44117857D01*
X142450952Y-44165476D01*
X142546190Y-44213095D01*
X142831904Y-44213095D01*
X142927142Y-44165476D01*
X142974761Y-44117857D01*
X143022380Y-44022619D01*
X143022380Y-43879761D01*
X142974761Y-44594047D02*
X143022380Y-44689285D01*
X143022380Y-44879761D01*
X142974761Y-44975000D01*
X142879523Y-45022619D01*
X142831904Y-45022619D01*
X142736666Y-44975000D01*
X142689047Y-44879761D01*
X142689047Y-44736904D01*
X142641428Y-44641666D01*
X142546190Y-44594047D01*
X142498571Y-44594047D01*
X142403333Y-44641666D01*
X142355714Y-44736904D01*
X142355714Y-44879761D01*
X142403333Y-44975000D01*
X142974761Y-45832142D02*
X143022380Y-45736904D01*
X143022380Y-45546428D01*
X142974761Y-45451190D01*
X142879523Y-45403571D01*
X142498571Y-45403571D01*
X142403333Y-45451190D01*
X142355714Y-45546428D01*
X142355714Y-45736904D01*
X142403333Y-45832142D01*
X142498571Y-45879761D01*
X142593809Y-45879761D01*
X142689047Y-45403571D01*
X143022380Y-46736904D02*
X142022380Y-46736904D01*
X142974761Y-46736904D02*
X143022380Y-46641666D01*
X143022380Y-46451190D01*
X142974761Y-46355952D01*
X142927142Y-46308333D01*
X142831904Y-46260714D01*
X142546190Y-46260714D01*
X142450952Y-46308333D01*
X142403333Y-46355952D01*
X142355714Y-46451190D01*
X142355714Y-46641666D01*
X142403333Y-46736904D01*
X143622380Y-42403571D02*
X143622380Y-42594047D01*
X143670000Y-42689285D01*
X143765238Y-42784523D01*
X143955714Y-42832142D01*
X144289047Y-42832142D01*
X144479523Y-42784523D01*
X144574761Y-42689285D01*
X144622380Y-42594047D01*
X144622380Y-42403571D01*
X144574761Y-42308333D01*
X144479523Y-42213095D01*
X144289047Y-42165476D01*
X143955714Y-42165476D01*
X143765238Y-42213095D01*
X143670000Y-42308333D01*
X143622380Y-42403571D01*
X143955714Y-43260714D02*
X144955714Y-43260714D01*
X144003333Y-43260714D02*
X143955714Y-43355952D01*
X143955714Y-43546428D01*
X144003333Y-43641666D01*
X144050952Y-43689285D01*
X144146190Y-43736904D01*
X144431904Y-43736904D01*
X144527142Y-43689285D01*
X144574761Y-43641666D01*
X144622380Y-43546428D01*
X144622380Y-43355952D01*
X144574761Y-43260714D01*
X144574761Y-44546428D02*
X144622380Y-44451190D01*
X144622380Y-44260714D01*
X144574761Y-44165476D01*
X144479523Y-44117857D01*
X144098571Y-44117857D01*
X144003333Y-44165476D01*
X143955714Y-44260714D01*
X143955714Y-44451190D01*
X144003333Y-44546428D01*
X144098571Y-44594047D01*
X144193809Y-44594047D01*
X144289047Y-44117857D01*
X143955714Y-45022619D02*
X144622380Y-45022619D01*
X144050952Y-45022619D02*
X144003333Y-45070238D01*
X143955714Y-45165476D01*
X143955714Y-45308333D01*
X144003333Y-45403571D01*
X144098571Y-45451190D01*
X144622380Y-45451190D01*
D12*
X168960000Y-45333214D02*
X168888571Y-45261785D01*
X168674285Y-45118928D01*
X168531428Y-45047500D01*
X168317142Y-44976071D01*
X167960000Y-44904642D01*
X167674285Y-44904642D01*
X167317142Y-44976071D01*
X167102857Y-45047500D01*
X166960000Y-45118928D01*
X166745714Y-45261785D01*
X166674285Y-45333214D01*
X168245714Y-46761785D02*
X168317142Y-46690357D01*
X168388571Y-46476071D01*
X168388571Y-46333214D01*
X168317142Y-46118928D01*
X168174285Y-45976071D01*
X168031428Y-45904642D01*
X167745714Y-45833214D01*
X167531428Y-45833214D01*
X167245714Y-45904642D01*
X167102857Y-45976071D01*
X166960000Y-46118928D01*
X166888571Y-46333214D01*
X166888571Y-46476071D01*
X166960000Y-46690357D01*
X167031428Y-46761785D01*
X168960000Y-47261785D02*
X168888571Y-47333214D01*
X168674285Y-47476071D01*
X168531428Y-47547500D01*
X168317142Y-47618928D01*
X167960000Y-47690357D01*
X167674285Y-47690357D01*
X167317142Y-47618928D01*
X167102857Y-47547500D01*
X166960000Y-47476071D01*
X166745714Y-47333214D01*
X166674285Y-47261785D01*
X168317142Y-49476071D02*
X168388571Y-49690357D01*
X168388571Y-50047500D01*
X168317142Y-50190357D01*
X168245714Y-50261785D01*
X168102857Y-50333214D01*
X167960000Y-50333214D01*
X167817142Y-50261785D01*
X167745714Y-50190357D01*
X167674285Y-50047500D01*
X167602857Y-49761785D01*
X167531428Y-49618928D01*
X167460000Y-49547500D01*
X167317142Y-49476071D01*
X167174285Y-49476071D01*
X167031428Y-49547500D01*
X166960000Y-49618928D01*
X166888571Y-49761785D01*
X166888571Y-50118928D01*
X166960000Y-50333214D01*
X168317142Y-51547500D02*
X168388571Y-51404642D01*
X168388571Y-51118928D01*
X168317142Y-50976071D01*
X168174285Y-50904642D01*
X167602857Y-50904642D01*
X167460000Y-50976071D01*
X167388571Y-51118928D01*
X167388571Y-51404642D01*
X167460000Y-51547500D01*
X167602857Y-51618928D01*
X167745714Y-51618928D01*
X167888571Y-50904642D01*
X168388571Y-52261785D02*
X167388571Y-52261785D01*
X166888571Y-52261785D02*
X166960000Y-52190357D01*
X167031428Y-52261785D01*
X166960000Y-52333214D01*
X166888571Y-52261785D01*
X167031428Y-52261785D01*
X168388571Y-52976071D02*
X167388571Y-52976071D01*
X166888571Y-52976071D02*
X166960000Y-52904642D01*
X167031428Y-52976071D01*
X166960000Y-53047500D01*
X166888571Y-52976071D01*
X167031428Y-52976071D01*
X168317142Y-54333214D02*
X168388571Y-54190357D01*
X168388571Y-53904642D01*
X168317142Y-53761785D01*
X168245714Y-53690357D01*
X168102857Y-53618928D01*
X167674285Y-53618928D01*
X167531428Y-53690357D01*
X167460000Y-53761785D01*
X167388571Y-53904642D01*
X167388571Y-54190357D01*
X167460000Y-54333214D01*
X168388571Y-54976071D02*
X166888571Y-54976071D01*
X168388571Y-55618928D02*
X167602857Y-55618928D01*
X167460000Y-55547500D01*
X167388571Y-55404642D01*
X167388571Y-55190357D01*
X167460000Y-55047500D01*
X167531428Y-54976071D01*
X168388571Y-56333214D02*
X167388571Y-56333214D01*
X166888571Y-56333214D02*
X166960000Y-56261785D01*
X167031428Y-56333214D01*
X166960000Y-56404642D01*
X166888571Y-56333214D01*
X167031428Y-56333214D01*
X168388571Y-58190357D02*
X166888571Y-58190357D01*
X167602857Y-58190357D02*
X167602857Y-59047500D01*
X168388571Y-59047500D02*
X166888571Y-59047500D01*
X168388571Y-59976071D02*
X168317142Y-59833214D01*
X168245714Y-59761785D01*
X168102857Y-59690357D01*
X167674285Y-59690357D01*
X167531428Y-59761785D01*
X167460000Y-59833214D01*
X167388571Y-59976071D01*
X167388571Y-60190357D01*
X167460000Y-60333214D01*
X167531428Y-60404642D01*
X167674285Y-60476071D01*
X168102857Y-60476071D01*
X168245714Y-60404642D01*
X168317142Y-60333214D01*
X168388571Y-60190357D01*
X168388571Y-59976071D01*
X168388571Y-61118928D02*
X167388571Y-61118928D01*
X167674285Y-61118928D02*
X167531428Y-61190357D01*
X167460000Y-61261785D01*
X167388571Y-61404642D01*
X167388571Y-61547500D01*
X168388571Y-62047500D02*
X167388571Y-62047500D01*
X166888571Y-62047500D02*
X166960000Y-61976071D01*
X167031428Y-62047500D01*
X166960000Y-62118928D01*
X166888571Y-62047500D01*
X167031428Y-62047500D01*
X168317142Y-63333214D02*
X168388571Y-63190357D01*
X168388571Y-62904642D01*
X168317142Y-62761785D01*
X168174285Y-62690357D01*
X167602857Y-62690357D01*
X167460000Y-62761785D01*
X167388571Y-62904642D01*
X167388571Y-63190357D01*
X167460000Y-63333214D01*
X167602857Y-63404642D01*
X167745714Y-63404642D01*
X167888571Y-62690357D01*
X167031428Y-65118928D02*
X166960000Y-65190357D01*
X166888571Y-65333214D01*
X166888571Y-65690357D01*
X166960000Y-65833214D01*
X167031428Y-65904642D01*
X167174285Y-65976071D01*
X167317142Y-65976071D01*
X167531428Y-65904642D01*
X168388571Y-65047500D01*
X168388571Y-65976071D01*
X166888571Y-66904642D02*
X166888571Y-67047500D01*
X166960000Y-67190357D01*
X167031428Y-67261785D01*
X167174285Y-67333214D01*
X167460000Y-67404642D01*
X167817142Y-67404642D01*
X168102857Y-67333214D01*
X168245714Y-67261785D01*
X168317142Y-67190357D01*
X168388571Y-67047500D01*
X168388571Y-66904642D01*
X168317142Y-66761785D01*
X168245714Y-66690357D01*
X168102857Y-66618928D01*
X167817142Y-66547500D01*
X167460000Y-66547500D01*
X167174285Y-66618928D01*
X167031428Y-66690357D01*
X166960000Y-66761785D01*
X166888571Y-66904642D01*
X167031428Y-67976071D02*
X166960000Y-68047500D01*
X166888571Y-68190357D01*
X166888571Y-68547500D01*
X166960000Y-68690357D01*
X167031428Y-68761785D01*
X167174285Y-68833214D01*
X167317142Y-68833214D01*
X167531428Y-68761785D01*
X168388571Y-67904642D01*
X168388571Y-68833214D01*
X166888571Y-69761785D02*
X166888571Y-69904642D01*
X166960000Y-70047500D01*
X167031428Y-70118928D01*
X167174285Y-70190357D01*
X167460000Y-70261785D01*
X167817142Y-70261785D01*
X168102857Y-70190357D01*
X168245714Y-70118928D01*
X168317142Y-70047500D01*
X168388571Y-69904642D01*
X168388571Y-69761785D01*
X168317142Y-69618928D01*
X168245714Y-69547500D01*
X168102857Y-69476071D01*
X167817142Y-69404642D01*
X167460000Y-69404642D01*
X167174285Y-69476071D01*
X167031428Y-69547500D01*
X166960000Y-69618928D01*
X166888571Y-69761785D01*
X170788571Y-44904642D02*
X169288571Y-44904642D01*
X170788571Y-45547500D02*
X170002857Y-45547500D01*
X169860000Y-45476071D01*
X169788571Y-45333214D01*
X169788571Y-45118928D01*
X169860000Y-44976071D01*
X169931428Y-44904642D01*
X169788571Y-46047500D02*
X169788571Y-46618928D01*
X169288571Y-46261785D02*
X170574285Y-46261785D01*
X170717142Y-46333214D01*
X170788571Y-46476071D01*
X170788571Y-46618928D01*
X169788571Y-46904642D02*
X169788571Y-47476071D01*
X169288571Y-47118928D02*
X170574285Y-47118928D01*
X170717142Y-47190357D01*
X170788571Y-47333214D01*
X170788571Y-47476071D01*
X169788571Y-47976071D02*
X171288571Y-47976071D01*
X169860000Y-47976071D02*
X169788571Y-48118928D01*
X169788571Y-48404642D01*
X169860000Y-48547500D01*
X169931428Y-48618928D01*
X170074285Y-48690357D01*
X170502857Y-48690357D01*
X170645714Y-48618928D01*
X170717142Y-48547500D01*
X170788571Y-48404642D01*
X170788571Y-48118928D01*
X170717142Y-47976071D01*
X170717142Y-49261785D02*
X170788571Y-49404642D01*
X170788571Y-49690357D01*
X170717142Y-49833214D01*
X170574285Y-49904642D01*
X170502857Y-49904642D01*
X170360000Y-49833214D01*
X170288571Y-49690357D01*
X170288571Y-49476071D01*
X170217142Y-49333214D01*
X170074285Y-49261785D01*
X170002857Y-49261785D01*
X169860000Y-49333214D01*
X169788571Y-49476071D01*
X169788571Y-49690357D01*
X169860000Y-49833214D01*
X170645714Y-50547500D02*
X170717142Y-50618928D01*
X170788571Y-50547500D01*
X170717142Y-50476071D01*
X170645714Y-50547500D01*
X170788571Y-50547500D01*
X169860000Y-50547500D02*
X169931428Y-50618928D01*
X170002857Y-50547500D01*
X169931428Y-50476071D01*
X169860000Y-50547500D01*
X170002857Y-50547500D01*
X169217142Y-52333214D02*
X171145714Y-51047500D01*
X169217142Y-53904642D02*
X171145714Y-52618928D01*
X169788571Y-55047500D02*
X171002857Y-55047500D01*
X171145714Y-54976071D01*
X171217142Y-54904642D01*
X171288571Y-54761785D01*
X171288571Y-54547500D01*
X171217142Y-54404642D01*
X170717142Y-55047500D02*
X170788571Y-54904642D01*
X170788571Y-54618928D01*
X170717142Y-54476071D01*
X170645714Y-54404642D01*
X170502857Y-54333214D01*
X170074285Y-54333214D01*
X169931428Y-54404642D01*
X169860000Y-54476071D01*
X169788571Y-54618928D01*
X169788571Y-54904642D01*
X169860000Y-55047500D01*
X170788571Y-55761785D02*
X169788571Y-55761785D01*
X169288571Y-55761785D02*
X169360000Y-55690357D01*
X169431428Y-55761785D01*
X169360000Y-55833214D01*
X169288571Y-55761785D01*
X169431428Y-55761785D01*
X169788571Y-56261785D02*
X169788571Y-56833214D01*
X169288571Y-56476071D02*
X170574285Y-56476071D01*
X170717142Y-56547500D01*
X170788571Y-56690357D01*
X170788571Y-56833214D01*
X170788571Y-57333214D02*
X169288571Y-57333214D01*
X170788571Y-57976071D02*
X170002857Y-57976071D01*
X169860000Y-57904642D01*
X169788571Y-57761785D01*
X169788571Y-57547500D01*
X169860000Y-57404642D01*
X169931428Y-57333214D01*
X169788571Y-59333214D02*
X170788571Y-59333214D01*
X169788571Y-58690357D02*
X170574285Y-58690357D01*
X170717142Y-58761785D01*
X170788571Y-58904642D01*
X170788571Y-59118928D01*
X170717142Y-59261785D01*
X170645714Y-59333214D01*
X170788571Y-60047500D02*
X169288571Y-60047500D01*
X169860000Y-60047500D02*
X169788571Y-60190357D01*
X169788571Y-60476071D01*
X169860000Y-60618928D01*
X169931428Y-60690357D01*
X170074285Y-60761785D01*
X170502857Y-60761785D01*
X170645714Y-60690357D01*
X170717142Y-60618928D01*
X170788571Y-60476071D01*
X170788571Y-60190357D01*
X170717142Y-60047500D01*
X170645714Y-61404642D02*
X170717142Y-61476071D01*
X170788571Y-61404642D01*
X170717142Y-61333214D01*
X170645714Y-61404642D01*
X170788571Y-61404642D01*
X170717142Y-62761785D02*
X170788571Y-62618928D01*
X170788571Y-62333214D01*
X170717142Y-62190357D01*
X170645714Y-62118928D01*
X170502857Y-62047500D01*
X170074285Y-62047500D01*
X169931428Y-62118928D01*
X169860000Y-62190357D01*
X169788571Y-62333214D01*
X169788571Y-62618928D01*
X169860000Y-62761785D01*
X170788571Y-63618928D02*
X170717142Y-63476071D01*
X170645714Y-63404642D01*
X170502857Y-63333214D01*
X170074285Y-63333214D01*
X169931428Y-63404642D01*
X169860000Y-63476071D01*
X169788571Y-63618928D01*
X169788571Y-63833214D01*
X169860000Y-63976071D01*
X169931428Y-64047500D01*
X170074285Y-64118928D01*
X170502857Y-64118928D01*
X170645714Y-64047500D01*
X170717142Y-63976071D01*
X170788571Y-63833214D01*
X170788571Y-63618928D01*
X170788571Y-64761785D02*
X169788571Y-64761785D01*
X169931428Y-64761785D02*
X169860000Y-64833214D01*
X169788571Y-64976071D01*
X169788571Y-65190357D01*
X169860000Y-65333214D01*
X170002857Y-65404642D01*
X170788571Y-65404642D01*
X170002857Y-65404642D02*
X169860000Y-65476071D01*
X169788571Y-65618928D01*
X169788571Y-65833214D01*
X169860000Y-65976071D01*
X170002857Y-66047500D01*
X170788571Y-66047500D01*
X169217142Y-67833214D02*
X171145714Y-66547500D01*
X170717142Y-68261785D02*
X170788571Y-68404642D01*
X170788571Y-68690357D01*
X170717142Y-68833214D01*
X170574285Y-68904642D01*
X170502857Y-68904642D01*
X170360000Y-68833214D01*
X170288571Y-68690357D01*
X170288571Y-68476071D01*
X170217142Y-68333214D01*
X170074285Y-68261785D01*
X170002857Y-68261785D01*
X169860000Y-68333214D01*
X169788571Y-68476071D01*
X169788571Y-68690357D01*
X169860000Y-68833214D01*
X169788571Y-70190357D02*
X170788571Y-70190357D01*
X169788571Y-69547500D02*
X170574285Y-69547500D01*
X170717142Y-69618928D01*
X170788571Y-69761785D01*
X170788571Y-69976071D01*
X170717142Y-70118928D01*
X170645714Y-70190357D01*
X170788571Y-70904642D02*
X169788571Y-70904642D01*
X169288571Y-70904642D02*
X169360000Y-70833214D01*
X169431428Y-70904642D01*
X169360000Y-70976071D01*
X169288571Y-70904642D01*
X169431428Y-70904642D01*
X170788571Y-71618928D02*
X169288571Y-71618928D01*
X170217142Y-71761785D02*
X170788571Y-72190357D01*
X169788571Y-72190357D02*
X170360000Y-71618928D01*
X170788571Y-73476071D02*
X170002857Y-73476071D01*
X169860000Y-73404642D01*
X169788571Y-73261785D01*
X169788571Y-72976071D01*
X169860000Y-72833214D01*
X170717142Y-73476071D02*
X170788571Y-73333214D01*
X170788571Y-72976071D01*
X170717142Y-72833214D01*
X170574285Y-72761785D01*
X170431428Y-72761785D01*
X170288571Y-72833214D01*
X170217142Y-72976071D01*
X170217142Y-73333214D01*
X170145714Y-73476071D01*
X169788571Y-74190357D02*
X170788571Y-74190357D01*
X169931428Y-74190357D02*
X169860000Y-74261785D01*
X169788571Y-74404642D01*
X169788571Y-74618928D01*
X169860000Y-74761785D01*
X170002857Y-74833214D01*
X170788571Y-74833214D01*
X169788571Y-76190357D02*
X170788571Y-76190357D01*
X169217142Y-75833214D02*
X170288571Y-75476071D01*
X170288571Y-76404642D01*
X169788571Y-77618928D02*
X171002857Y-77618928D01*
X171145714Y-77547500D01*
X171217142Y-77476071D01*
X171288571Y-77333214D01*
X171288571Y-77118928D01*
X171217142Y-76976071D01*
X170717142Y-77618928D02*
X170788571Y-77476071D01*
X170788571Y-77190357D01*
X170717142Y-77047500D01*
X170645714Y-76976071D01*
X170502857Y-76904642D01*
X170074285Y-76904642D01*
X169931428Y-76976071D01*
X169860000Y-77047500D01*
X169788571Y-77190357D01*
X169788571Y-77476071D01*
X169860000Y-77618928D01*
X170788571Y-78333214D02*
X169788571Y-78333214D01*
X169288571Y-78333214D02*
X169360000Y-78261785D01*
X169431428Y-78333214D01*
X169360000Y-78404642D01*
X169288571Y-78333214D01*
X169431428Y-78333214D01*
X169788571Y-78833214D02*
X169788571Y-79404642D01*
X169288571Y-79047500D02*
X170574285Y-79047500D01*
X170717142Y-79118928D01*
X170788571Y-79261785D01*
X170788571Y-79404642D01*
X170788571Y-79904642D02*
X169288571Y-79904642D01*
X170788571Y-80547500D02*
X170002857Y-80547500D01*
X169860000Y-80476071D01*
X169788571Y-80333214D01*
X169788571Y-80118928D01*
X169860000Y-79976071D01*
X169931428Y-79904642D01*
X169788571Y-81904642D02*
X170788571Y-81904642D01*
X169788571Y-81261785D02*
X170574285Y-81261785D01*
X170717142Y-81333214D01*
X170788571Y-81476071D01*
X170788571Y-81690357D01*
X170717142Y-81833214D01*
X170645714Y-81904642D01*
X170788571Y-82618928D02*
X169288571Y-82618928D01*
X169860000Y-82618928D02*
X169788571Y-82761785D01*
X169788571Y-83047500D01*
X169860000Y-83190357D01*
X169931428Y-83261785D01*
X170074285Y-83333214D01*
X170502857Y-83333214D01*
X170645714Y-83261785D01*
X170717142Y-83190357D01*
X170788571Y-83047500D01*
X170788571Y-82761785D01*
X170717142Y-82618928D01*
X169217142Y-85047500D02*
X171145714Y-83761785D01*
X170360000Y-85476071D02*
X170360000Y-86190357D01*
X170788571Y-85333214D02*
X169288571Y-85833214D01*
X170788571Y-86333214D01*
X170788571Y-86833214D02*
X169288571Y-86833214D01*
X170217142Y-86976071D02*
X170788571Y-87404642D01*
X169788571Y-87404642D02*
X170360000Y-86833214D01*
X170788571Y-88690357D02*
X170002857Y-88690357D01*
X169860000Y-88618928D01*
X169788571Y-88476071D01*
X169788571Y-88190357D01*
X169860000Y-88047500D01*
X170717142Y-88690357D02*
X170788571Y-88547500D01*
X170788571Y-88190357D01*
X170717142Y-88047500D01*
X170574285Y-87976071D01*
X170431428Y-87976071D01*
X170288571Y-88047500D01*
X170217142Y-88190357D01*
X170217142Y-88547500D01*
X170145714Y-88690357D01*
X170717142Y-89333214D02*
X170788571Y-89476071D01*
X170788571Y-89761785D01*
X170717142Y-89904642D01*
X170574285Y-89976071D01*
X170502857Y-89976071D01*
X170360000Y-89904642D01*
X170288571Y-89761785D01*
X170288571Y-89547500D01*
X170217142Y-89404642D01*
X170074285Y-89333214D01*
X170002857Y-89333214D01*
X169860000Y-89404642D01*
X169788571Y-89547500D01*
X169788571Y-89761785D01*
X169860000Y-89904642D01*
X170788571Y-90618928D02*
X169288571Y-90618928D01*
X170788571Y-91261785D02*
X170002857Y-91261785D01*
X169860000Y-91190357D01*
X169788571Y-91047500D01*
X169788571Y-90833214D01*
X169860000Y-90690357D01*
X169931428Y-90618928D01*
X170788571Y-91976071D02*
X169788571Y-91976071D01*
X169288571Y-91976071D02*
X169360000Y-91904642D01*
X169431428Y-91976071D01*
X169360000Y-92047500D01*
X169288571Y-91976071D01*
X169431428Y-91976071D01*
X170217142Y-92690357D02*
X170217142Y-93833214D01*
X169288571Y-94833214D02*
X169288571Y-94976071D01*
X169360000Y-95118928D01*
X169431428Y-95190357D01*
X169574285Y-95261785D01*
X169860000Y-95333214D01*
X170217142Y-95333214D01*
X170502857Y-95261785D01*
X170645714Y-95190357D01*
X170717142Y-95118928D01*
X170788571Y-94976071D01*
X170788571Y-94833214D01*
X170717142Y-94690357D01*
X170645714Y-94618928D01*
X170502857Y-94547500D01*
X170217142Y-94476071D01*
X169860000Y-94476071D01*
X169574285Y-94547500D01*
X169431428Y-94618928D01*
X169360000Y-94690357D01*
X169288571Y-94833214D01*
X169788571Y-96618928D02*
X170788571Y-96618928D01*
X169217142Y-96261785D02*
X170288571Y-95904642D01*
X170288571Y-96833214D01*
D13*
X146050000Y-75970000D02*
X146050000Y-76740000D01*
X146050000Y-84050000D02*
X146050000Y-83280000D01*
X147420000Y-76740000D02*
X147420000Y-83280000D01*
X144680000Y-76740000D02*
X147420000Y-76740000D01*
X144680000Y-83280000D02*
X144680000Y-76740000D01*
X147420000Y-83280000D02*
X144680000Y-83280000D01*
X151130000Y-75970000D02*
X151130000Y-76740000D01*
X151130000Y-84050000D02*
X151130000Y-83280000D01*
X152500000Y-76740000D02*
X152500000Y-83280000D01*
X149760000Y-76740000D02*
X152500000Y-76740000D01*
X149760000Y-83280000D02*
X149760000Y-76740000D01*
X152500000Y-83280000D02*
X149760000Y-83280000D01*
X154860000Y-59960000D02*
G75*
G03X154160000Y-60660000I0J-700000D01*
G01*
X154160000Y-61260000D02*
G75*
G03X154860000Y-61960000I700000J0D01*
G01*
X156260000Y-61960000D02*
G75*
G03X156960000Y-61260000I0J700000D01*
G01*
X156960000Y-60660000D02*
G75*
G03X156260000Y-59960000I-700000J0D01*
G01*
X156960000Y-61260000D02*
X156960000Y-60660000D01*
X154860000Y-61960000D02*
X156260000Y-61960000D01*
X154160000Y-60660000D02*
X154160000Y-61260000D01*
X156260000Y-59960000D02*
X154860000Y-59960000D01*
X154890000Y-67580000D02*
G75*
G03X154190000Y-68280000I0J-700000D01*
G01*
X154190000Y-68880000D02*
G75*
G03X154890000Y-69580000I700000J0D01*
G01*
X156290000Y-69580000D02*
G75*
G03X156990000Y-68880000I0J700000D01*
G01*
X156990000Y-68280000D02*
G75*
G03X156290000Y-67580000I-700000J0D01*
G01*
X156990000Y-68880000D02*
X156990000Y-68280000D01*
X154890000Y-69580000D02*
X156290000Y-69580000D01*
X154190000Y-68280000D02*
X154190000Y-68880000D01*
X156290000Y-67580000D02*
X154890000Y-67580000D01*
X119380000Y-59630000D02*
X118050000Y-59630000D01*
X118050000Y-59630000D02*
X118050000Y-60960000D01*
X120650000Y-59630000D02*
X120650000Y-62230000D01*
X120650000Y-62230000D02*
X118050000Y-62230000D01*
X118050000Y-62230000D02*
X118050000Y-108010000D01*
X123250000Y-108010000D02*
X118050000Y-108010000D01*
X123250000Y-59630000D02*
X123250000Y-108010000D01*
X123250000Y-59630000D02*
X120650000Y-59630000D01*
X184210000Y-59630000D02*
X181610000Y-59630000D01*
X184210000Y-59630000D02*
X184210000Y-108010000D01*
X184210000Y-108010000D02*
X179010000Y-108010000D01*
X179010000Y-62230000D02*
X179010000Y-108010000D01*
X181610000Y-62230000D02*
X179010000Y-62230000D01*
X181610000Y-59630000D02*
X181610000Y-62230000D01*
X179010000Y-59630000D02*
X179010000Y-60960000D01*
X180340000Y-59630000D02*
X179010000Y-59630000D01*
D12*
X148872380Y-79843333D02*
X148396190Y-79510000D01*
X148872380Y-79271904D02*
X147872380Y-79271904D01*
X147872380Y-79652857D01*
X147920000Y-79748095D01*
X147967619Y-79795714D01*
X148062857Y-79843333D01*
X148205714Y-79843333D01*
X148300952Y-79795714D01*
X148348571Y-79748095D01*
X148396190Y-79652857D01*
X148396190Y-79271904D01*
X148205714Y-80700476D02*
X148872380Y-80700476D01*
X147824761Y-80462380D02*
X148539047Y-80224285D01*
X148539047Y-80843333D01*
X145835714Y-79081428D02*
X146502380Y-79081428D01*
X145454761Y-78843333D02*
X146169047Y-78605238D01*
X146169047Y-79224285D01*
X146407142Y-79605238D02*
X146454761Y-79652857D01*
X146502380Y-79605238D01*
X146454761Y-79557619D01*
X146407142Y-79605238D01*
X146502380Y-79605238D01*
X145502380Y-79986190D02*
X145502380Y-80652857D01*
X146502380Y-80224285D01*
X146502380Y-81033809D02*
X145502380Y-81033809D01*
X146121428Y-81129047D02*
X146502380Y-81414761D01*
X145835714Y-81414761D02*
X146216666Y-81033809D01*
X153952380Y-79843333D02*
X153476190Y-79510000D01*
X153952380Y-79271904D02*
X152952380Y-79271904D01*
X152952380Y-79652857D01*
X153000000Y-79748095D01*
X153047619Y-79795714D01*
X153142857Y-79843333D01*
X153285714Y-79843333D01*
X153380952Y-79795714D01*
X153428571Y-79748095D01*
X153476190Y-79652857D01*
X153476190Y-79271904D01*
X152952380Y-80176666D02*
X152952380Y-80795714D01*
X153333333Y-80462380D01*
X153333333Y-80605238D01*
X153380952Y-80700476D01*
X153428571Y-80748095D01*
X153523809Y-80795714D01*
X153761904Y-80795714D01*
X153857142Y-80748095D01*
X153904761Y-80700476D01*
X153952380Y-80605238D01*
X153952380Y-80319523D01*
X153904761Y-80224285D01*
X153857142Y-80176666D01*
X150915714Y-79081428D02*
X151582380Y-79081428D01*
X150534761Y-78843333D02*
X151249047Y-78605238D01*
X151249047Y-79224285D01*
X151487142Y-79605238D02*
X151534761Y-79652857D01*
X151582380Y-79605238D01*
X151534761Y-79557619D01*
X151487142Y-79605238D01*
X151582380Y-79605238D01*
X150582380Y-79986190D02*
X150582380Y-80652857D01*
X151582380Y-80224285D01*
X151582380Y-81033809D02*
X150582380Y-81033809D01*
X151201428Y-81129047D02*
X151582380Y-81414761D01*
X150915714Y-81414761D02*
X151296666Y-81033809D01*
X156393333Y-58612380D02*
X156393333Y-59326666D01*
X156440952Y-59469523D01*
X156536190Y-59564761D01*
X156679047Y-59612380D01*
X156774285Y-59612380D01*
X155917142Y-59612380D02*
X155917142Y-58612380D01*
X155536190Y-58612380D01*
X155440952Y-58660000D01*
X155393333Y-58707619D01*
X155345714Y-58802857D01*
X155345714Y-58945714D01*
X155393333Y-59040952D01*
X155440952Y-59088571D01*
X155536190Y-59136190D01*
X155917142Y-59136190D01*
X154964761Y-58707619D02*
X154917142Y-58660000D01*
X154821904Y-58612380D01*
X154583809Y-58612380D01*
X154488571Y-58660000D01*
X154440952Y-58707619D01*
X154393333Y-58802857D01*
X154393333Y-58898095D01*
X154440952Y-59040952D01*
X155012380Y-59612380D01*
X154393333Y-59612380D01*
X156423333Y-66232380D02*
X156423333Y-66946666D01*
X156470952Y-67089523D01*
X156566190Y-67184761D01*
X156709047Y-67232380D01*
X156804285Y-67232380D01*
X155947142Y-67232380D02*
X155947142Y-66232380D01*
X155566190Y-66232380D01*
X155470952Y-66280000D01*
X155423333Y-66327619D01*
X155375714Y-66422857D01*
X155375714Y-66565714D01*
X155423333Y-66660952D01*
X155470952Y-66708571D01*
X155566190Y-66756190D01*
X155947142Y-66756190D01*
X154423333Y-67232380D02*
X154994761Y-67232380D01*
X154709047Y-67232380D02*
X154709047Y-66232380D01*
X154804285Y-66375238D01*
X154899523Y-66470476D01*
X154994761Y-66518095D01*
X121340476Y-58547142D02*
X121388095Y-58594761D01*
X121530952Y-58642380D01*
X121626190Y-58642380D01*
X121769047Y-58594761D01*
X121864285Y-58499523D01*
X121911904Y-58404285D01*
X121959523Y-58213809D01*
X121959523Y-58070952D01*
X121911904Y-57880476D01*
X121864285Y-57785238D01*
X121769047Y-57690000D01*
X121626190Y-57642380D01*
X121530952Y-57642380D01*
X121388095Y-57690000D01*
X121340476Y-57737619D01*
X120911904Y-58642380D02*
X120911904Y-57642380D01*
X120340476Y-58642380D01*
X120340476Y-57642380D01*
X119959523Y-57642380D02*
X119292857Y-57642380D01*
X119721428Y-58642380D01*
X182776666Y-58547142D02*
X182824285Y-58594761D01*
X182967142Y-58642380D01*
X183062380Y-58642380D01*
X183205238Y-58594761D01*
X183300476Y-58499523D01*
X183348095Y-58404285D01*
X183395714Y-58213809D01*
X183395714Y-58070952D01*
X183348095Y-57880476D01*
X183300476Y-57785238D01*
X183205238Y-57690000D01*
X183062380Y-57642380D01*
X182967142Y-57642380D01*
X182824285Y-57690000D01*
X182776666Y-57737619D01*
X182348095Y-58642380D02*
X182348095Y-57642380D01*
X181776666Y-58642380D01*
X181776666Y-57642380D01*
X180776666Y-58642380D02*
X181348095Y-58642380D01*
X181062380Y-58642380D02*
X181062380Y-57642380D01*
X181157619Y-57785238D01*
X181252857Y-57880476D01*
X181348095Y-57928095D01*
X180157619Y-57642380D02*
X180062380Y-57642380D01*
X179967142Y-57690000D01*
X179919523Y-57737619D01*
X179871904Y-57832857D01*
X179824285Y-58023333D01*
X179824285Y-58261428D01*
X179871904Y-58451904D01*
X179919523Y-58547142D01*
X179967142Y-58594761D01*
X180062380Y-58642380D01*
X180157619Y-58642380D01*
X180252857Y-58594761D01*
X180300476Y-58547142D01*
X180348095Y-58451904D01*
X180395714Y-58261428D01*
X180395714Y-58023333D01*
X180348095Y-57832857D01*
X180300476Y-57737619D01*
X180252857Y-57690000D01*
X180157619Y-57642380D01*
M02*
