G04 #@! TF.GenerationSoftware,KiCad,Pcbnew,5.1.5-52549c5~84~ubuntu16.04.1*
G04 #@! TF.CreationDate,2020-03-02T08:02:59+09:00*
G04 #@! TF.ProjectId,Akashi-04,416b6173-6869-42d3-9034-2e6b69636164,rev?*
G04 #@! TF.SameCoordinates,Original*
G04 #@! TF.FileFunction,Soldermask,Top*
G04 #@! TF.FilePolarity,Negative*
%FSLAX46Y46*%
G04 Gerber Fmt 4.6, Leading zero omitted, Abs format (unit mm)*
G04 Created by KiCad (PCBNEW 5.1.5-52549c5~84~ubuntu16.04.1) date 2020-03-02 08:02:59*
%MOMM*%
%LPD*%
G04 APERTURE LIST*
%ADD10C,0.100000*%
G04 APERTURE END LIST*
D10*
G36*
X145731000Y-107631000D02*
G01*
X143829000Y-107631000D01*
X143829000Y-105729000D01*
X145731000Y-105729000D01*
X145731000Y-107631000D01*
G37*
G36*
X142517395Y-105765546D02*
G01*
X142690466Y-105837234D01*
X142690467Y-105837235D01*
X142846227Y-105941310D01*
X142978690Y-106073773D01*
X142978691Y-106073775D01*
X143082766Y-106229534D01*
X143154454Y-106402605D01*
X143191000Y-106586333D01*
X143191000Y-106773667D01*
X143154454Y-106957395D01*
X143082766Y-107130466D01*
X143082765Y-107130467D01*
X142978690Y-107286227D01*
X142846227Y-107418690D01*
X142767818Y-107471081D01*
X142690466Y-107522766D01*
X142517395Y-107594454D01*
X142333667Y-107631000D01*
X142146333Y-107631000D01*
X141962605Y-107594454D01*
X141789534Y-107522766D01*
X141712182Y-107471081D01*
X141633773Y-107418690D01*
X141501310Y-107286227D01*
X141397235Y-107130467D01*
X141397234Y-107130466D01*
X141325546Y-106957395D01*
X141289000Y-106773667D01*
X141289000Y-106586333D01*
X141325546Y-106402605D01*
X141397234Y-106229534D01*
X141501309Y-106073775D01*
X141501310Y-106073773D01*
X141633773Y-105941310D01*
X141789533Y-105837235D01*
X141789534Y-105837234D01*
X141962605Y-105765546D01*
X142146333Y-105729000D01*
X142333667Y-105729000D01*
X142517395Y-105765546D01*
G37*
G36*
X133627395Y-105765546D02*
G01*
X133800466Y-105837234D01*
X133800467Y-105837235D01*
X133956227Y-105941310D01*
X134088690Y-106073773D01*
X134088691Y-106073775D01*
X134192766Y-106229534D01*
X134264454Y-106402605D01*
X134301000Y-106586333D01*
X134301000Y-106773667D01*
X134264454Y-106957395D01*
X134192766Y-107130466D01*
X134192765Y-107130467D01*
X134088690Y-107286227D01*
X133956227Y-107418690D01*
X133877818Y-107471081D01*
X133800466Y-107522766D01*
X133627395Y-107594454D01*
X133443667Y-107631000D01*
X133256333Y-107631000D01*
X133072605Y-107594454D01*
X132899534Y-107522766D01*
X132822182Y-107471081D01*
X132743773Y-107418690D01*
X132611310Y-107286227D01*
X132507235Y-107130467D01*
X132507234Y-107130466D01*
X132435546Y-106957395D01*
X132399000Y-106773667D01*
X132399000Y-106586333D01*
X132435546Y-106402605D01*
X132507234Y-106229534D01*
X132611309Y-106073775D01*
X132611310Y-106073773D01*
X132743773Y-105941310D01*
X132899533Y-105837235D01*
X132899534Y-105837234D01*
X133072605Y-105765546D01*
X133256333Y-105729000D01*
X133443667Y-105729000D01*
X133627395Y-105765546D01*
G37*
G36*
X136841000Y-107631000D02*
G01*
X134939000Y-107631000D01*
X134939000Y-105729000D01*
X136841000Y-105729000D01*
X136841000Y-107631000D01*
G37*
G36*
X127113512Y-105783927D02*
G01*
X127262812Y-105813624D01*
X127426784Y-105881544D01*
X127574354Y-105980147D01*
X127699853Y-106105646D01*
X127798456Y-106253216D01*
X127866376Y-106417188D01*
X127901000Y-106591259D01*
X127901000Y-106768741D01*
X127866376Y-106942812D01*
X127798456Y-107106784D01*
X127699853Y-107254354D01*
X127574354Y-107379853D01*
X127426784Y-107478456D01*
X127262812Y-107546376D01*
X127113512Y-107576073D01*
X127088742Y-107581000D01*
X126911258Y-107581000D01*
X126886488Y-107576073D01*
X126737188Y-107546376D01*
X126573216Y-107478456D01*
X126425646Y-107379853D01*
X126300147Y-107254354D01*
X126201544Y-107106784D01*
X126133624Y-106942812D01*
X126099000Y-106768741D01*
X126099000Y-106591259D01*
X126133624Y-106417188D01*
X126201544Y-106253216D01*
X126300147Y-106105646D01*
X126425646Y-105980147D01*
X126573216Y-105881544D01*
X126737188Y-105813624D01*
X126886488Y-105783927D01*
X126911258Y-105779000D01*
X127088742Y-105779000D01*
X127113512Y-105783927D01*
G37*
G36*
X182993512Y-105783927D02*
G01*
X183142812Y-105813624D01*
X183306784Y-105881544D01*
X183454354Y-105980147D01*
X183579853Y-106105646D01*
X183678456Y-106253216D01*
X183746376Y-106417188D01*
X183781000Y-106591259D01*
X183781000Y-106768741D01*
X183746376Y-106942812D01*
X183678456Y-107106784D01*
X183579853Y-107254354D01*
X183454354Y-107379853D01*
X183306784Y-107478456D01*
X183142812Y-107546376D01*
X182993512Y-107576073D01*
X182968742Y-107581000D01*
X182791258Y-107581000D01*
X182766488Y-107576073D01*
X182617188Y-107546376D01*
X182453216Y-107478456D01*
X182305646Y-107379853D01*
X182180147Y-107254354D01*
X182081544Y-107106784D01*
X182013624Y-106942812D01*
X181979000Y-106768741D01*
X181979000Y-106591259D01*
X182013624Y-106417188D01*
X182081544Y-106253216D01*
X182180147Y-106105646D01*
X182305646Y-105980147D01*
X182453216Y-105881544D01*
X182617188Y-105813624D01*
X182766488Y-105783927D01*
X182791258Y-105779000D01*
X182968742Y-105779000D01*
X182993512Y-105783927D01*
G37*
G36*
X180453512Y-105783927D02*
G01*
X180602812Y-105813624D01*
X180766784Y-105881544D01*
X180914354Y-105980147D01*
X181039853Y-106105646D01*
X181138456Y-106253216D01*
X181206376Y-106417188D01*
X181241000Y-106591259D01*
X181241000Y-106768741D01*
X181206376Y-106942812D01*
X181138456Y-107106784D01*
X181039853Y-107254354D01*
X180914354Y-107379853D01*
X180766784Y-107478456D01*
X180602812Y-107546376D01*
X180453512Y-107576073D01*
X180428742Y-107581000D01*
X180251258Y-107581000D01*
X180226488Y-107576073D01*
X180077188Y-107546376D01*
X179913216Y-107478456D01*
X179765646Y-107379853D01*
X179640147Y-107254354D01*
X179541544Y-107106784D01*
X179473624Y-106942812D01*
X179439000Y-106768741D01*
X179439000Y-106591259D01*
X179473624Y-106417188D01*
X179541544Y-106253216D01*
X179640147Y-106105646D01*
X179765646Y-105980147D01*
X179913216Y-105881544D01*
X180077188Y-105813624D01*
X180226488Y-105783927D01*
X180251258Y-105779000D01*
X180428742Y-105779000D01*
X180453512Y-105783927D01*
G37*
G36*
X119493512Y-105783927D02*
G01*
X119642812Y-105813624D01*
X119806784Y-105881544D01*
X119954354Y-105980147D01*
X120079853Y-106105646D01*
X120178456Y-106253216D01*
X120246376Y-106417188D01*
X120281000Y-106591259D01*
X120281000Y-106768741D01*
X120246376Y-106942812D01*
X120178456Y-107106784D01*
X120079853Y-107254354D01*
X119954354Y-107379853D01*
X119806784Y-107478456D01*
X119642812Y-107546376D01*
X119493512Y-107576073D01*
X119468742Y-107581000D01*
X119291258Y-107581000D01*
X119266488Y-107576073D01*
X119117188Y-107546376D01*
X118953216Y-107478456D01*
X118805646Y-107379853D01*
X118680147Y-107254354D01*
X118581544Y-107106784D01*
X118513624Y-106942812D01*
X118479000Y-106768741D01*
X118479000Y-106591259D01*
X118513624Y-106417188D01*
X118581544Y-106253216D01*
X118680147Y-106105646D01*
X118805646Y-105980147D01*
X118953216Y-105881544D01*
X119117188Y-105813624D01*
X119266488Y-105783927D01*
X119291258Y-105779000D01*
X119468742Y-105779000D01*
X119493512Y-105783927D01*
G37*
G36*
X122033512Y-105783927D02*
G01*
X122182812Y-105813624D01*
X122346784Y-105881544D01*
X122494354Y-105980147D01*
X122619853Y-106105646D01*
X122718456Y-106253216D01*
X122786376Y-106417188D01*
X122821000Y-106591259D01*
X122821000Y-106768741D01*
X122786376Y-106942812D01*
X122718456Y-107106784D01*
X122619853Y-107254354D01*
X122494354Y-107379853D01*
X122346784Y-107478456D01*
X122182812Y-107546376D01*
X122033512Y-107576073D01*
X122008742Y-107581000D01*
X121831258Y-107581000D01*
X121806488Y-107576073D01*
X121657188Y-107546376D01*
X121493216Y-107478456D01*
X121345646Y-107379853D01*
X121220147Y-107254354D01*
X121121544Y-107106784D01*
X121053624Y-106942812D01*
X121019000Y-106768741D01*
X121019000Y-106591259D01*
X121053624Y-106417188D01*
X121121544Y-106253216D01*
X121220147Y-106105646D01*
X121345646Y-105980147D01*
X121493216Y-105881544D01*
X121657188Y-105813624D01*
X121806488Y-105783927D01*
X121831258Y-105779000D01*
X122008742Y-105779000D01*
X122033512Y-105783927D01*
G37*
G36*
X176161000Y-107581000D02*
G01*
X174359000Y-107581000D01*
X174359000Y-105779000D01*
X176161000Y-105779000D01*
X176161000Y-107581000D01*
G37*
G36*
X182993512Y-103243927D02*
G01*
X183142812Y-103273624D01*
X183306784Y-103341544D01*
X183454354Y-103440147D01*
X183579853Y-103565646D01*
X183678456Y-103713216D01*
X183746376Y-103877188D01*
X183781000Y-104051259D01*
X183781000Y-104228741D01*
X183746376Y-104402812D01*
X183678456Y-104566784D01*
X183579853Y-104714354D01*
X183454354Y-104839853D01*
X183306784Y-104938456D01*
X183142812Y-105006376D01*
X182993512Y-105036073D01*
X182968742Y-105041000D01*
X182791258Y-105041000D01*
X182766488Y-105036073D01*
X182617188Y-105006376D01*
X182453216Y-104938456D01*
X182305646Y-104839853D01*
X182180147Y-104714354D01*
X182081544Y-104566784D01*
X182013624Y-104402812D01*
X181979000Y-104228741D01*
X181979000Y-104051259D01*
X182013624Y-103877188D01*
X182081544Y-103713216D01*
X182180147Y-103565646D01*
X182305646Y-103440147D01*
X182453216Y-103341544D01*
X182617188Y-103273624D01*
X182766488Y-103243927D01*
X182791258Y-103239000D01*
X182968742Y-103239000D01*
X182993512Y-103243927D01*
G37*
G36*
X180453512Y-103243927D02*
G01*
X180602812Y-103273624D01*
X180766784Y-103341544D01*
X180914354Y-103440147D01*
X181039853Y-103565646D01*
X181138456Y-103713216D01*
X181206376Y-103877188D01*
X181241000Y-104051259D01*
X181241000Y-104228741D01*
X181206376Y-104402812D01*
X181138456Y-104566784D01*
X181039853Y-104714354D01*
X180914354Y-104839853D01*
X180766784Y-104938456D01*
X180602812Y-105006376D01*
X180453512Y-105036073D01*
X180428742Y-105041000D01*
X180251258Y-105041000D01*
X180226488Y-105036073D01*
X180077188Y-105006376D01*
X179913216Y-104938456D01*
X179765646Y-104839853D01*
X179640147Y-104714354D01*
X179541544Y-104566784D01*
X179473624Y-104402812D01*
X179439000Y-104228741D01*
X179439000Y-104051259D01*
X179473624Y-103877188D01*
X179541544Y-103713216D01*
X179640147Y-103565646D01*
X179765646Y-103440147D01*
X179913216Y-103341544D01*
X180077188Y-103273624D01*
X180226488Y-103243927D01*
X180251258Y-103239000D01*
X180428742Y-103239000D01*
X180453512Y-103243927D01*
G37*
G36*
X175373512Y-103243927D02*
G01*
X175522812Y-103273624D01*
X175686784Y-103341544D01*
X175834354Y-103440147D01*
X175959853Y-103565646D01*
X176058456Y-103713216D01*
X176126376Y-103877188D01*
X176161000Y-104051259D01*
X176161000Y-104228741D01*
X176126376Y-104402812D01*
X176058456Y-104566784D01*
X175959853Y-104714354D01*
X175834354Y-104839853D01*
X175686784Y-104938456D01*
X175522812Y-105006376D01*
X175373512Y-105036073D01*
X175348742Y-105041000D01*
X175171258Y-105041000D01*
X175146488Y-105036073D01*
X174997188Y-105006376D01*
X174833216Y-104938456D01*
X174685646Y-104839853D01*
X174560147Y-104714354D01*
X174461544Y-104566784D01*
X174393624Y-104402812D01*
X174359000Y-104228741D01*
X174359000Y-104051259D01*
X174393624Y-103877188D01*
X174461544Y-103713216D01*
X174560147Y-103565646D01*
X174685646Y-103440147D01*
X174833216Y-103341544D01*
X174997188Y-103273624D01*
X175146488Y-103243927D01*
X175171258Y-103239000D01*
X175348742Y-103239000D01*
X175373512Y-103243927D01*
G37*
G36*
X127113512Y-103243927D02*
G01*
X127262812Y-103273624D01*
X127426784Y-103341544D01*
X127574354Y-103440147D01*
X127699853Y-103565646D01*
X127798456Y-103713216D01*
X127866376Y-103877188D01*
X127901000Y-104051259D01*
X127901000Y-104228741D01*
X127866376Y-104402812D01*
X127798456Y-104566784D01*
X127699853Y-104714354D01*
X127574354Y-104839853D01*
X127426784Y-104938456D01*
X127262812Y-105006376D01*
X127113512Y-105036073D01*
X127088742Y-105041000D01*
X126911258Y-105041000D01*
X126886488Y-105036073D01*
X126737188Y-105006376D01*
X126573216Y-104938456D01*
X126425646Y-104839853D01*
X126300147Y-104714354D01*
X126201544Y-104566784D01*
X126133624Y-104402812D01*
X126099000Y-104228741D01*
X126099000Y-104051259D01*
X126133624Y-103877188D01*
X126201544Y-103713216D01*
X126300147Y-103565646D01*
X126425646Y-103440147D01*
X126573216Y-103341544D01*
X126737188Y-103273624D01*
X126886488Y-103243927D01*
X126911258Y-103239000D01*
X127088742Y-103239000D01*
X127113512Y-103243927D01*
G37*
G36*
X122033512Y-103243927D02*
G01*
X122182812Y-103273624D01*
X122346784Y-103341544D01*
X122494354Y-103440147D01*
X122619853Y-103565646D01*
X122718456Y-103713216D01*
X122786376Y-103877188D01*
X122821000Y-104051259D01*
X122821000Y-104228741D01*
X122786376Y-104402812D01*
X122718456Y-104566784D01*
X122619853Y-104714354D01*
X122494354Y-104839853D01*
X122346784Y-104938456D01*
X122182812Y-105006376D01*
X122033512Y-105036073D01*
X122008742Y-105041000D01*
X121831258Y-105041000D01*
X121806488Y-105036073D01*
X121657188Y-105006376D01*
X121493216Y-104938456D01*
X121345646Y-104839853D01*
X121220147Y-104714354D01*
X121121544Y-104566784D01*
X121053624Y-104402812D01*
X121019000Y-104228741D01*
X121019000Y-104051259D01*
X121053624Y-103877188D01*
X121121544Y-103713216D01*
X121220147Y-103565646D01*
X121345646Y-103440147D01*
X121493216Y-103341544D01*
X121657188Y-103273624D01*
X121806488Y-103243927D01*
X121831258Y-103239000D01*
X122008742Y-103239000D01*
X122033512Y-103243927D01*
G37*
G36*
X119493512Y-103243927D02*
G01*
X119642812Y-103273624D01*
X119806784Y-103341544D01*
X119954354Y-103440147D01*
X120079853Y-103565646D01*
X120178456Y-103713216D01*
X120246376Y-103877188D01*
X120281000Y-104051259D01*
X120281000Y-104228741D01*
X120246376Y-104402812D01*
X120178456Y-104566784D01*
X120079853Y-104714354D01*
X119954354Y-104839853D01*
X119806784Y-104938456D01*
X119642812Y-105006376D01*
X119493512Y-105036073D01*
X119468742Y-105041000D01*
X119291258Y-105041000D01*
X119266488Y-105036073D01*
X119117188Y-105006376D01*
X118953216Y-104938456D01*
X118805646Y-104839853D01*
X118680147Y-104714354D01*
X118581544Y-104566784D01*
X118513624Y-104402812D01*
X118479000Y-104228741D01*
X118479000Y-104051259D01*
X118513624Y-103877188D01*
X118581544Y-103713216D01*
X118680147Y-103565646D01*
X118805646Y-103440147D01*
X118953216Y-103341544D01*
X119117188Y-103273624D01*
X119266488Y-103243927D01*
X119291258Y-103239000D01*
X119468742Y-103239000D01*
X119493512Y-103243927D01*
G37*
G36*
X122033512Y-100703927D02*
G01*
X122182812Y-100733624D01*
X122346784Y-100801544D01*
X122494354Y-100900147D01*
X122619853Y-101025646D01*
X122718456Y-101173216D01*
X122786376Y-101337188D01*
X122821000Y-101511259D01*
X122821000Y-101688741D01*
X122786376Y-101862812D01*
X122718456Y-102026784D01*
X122619853Y-102174354D01*
X122494354Y-102299853D01*
X122346784Y-102398456D01*
X122182812Y-102466376D01*
X122033512Y-102496073D01*
X122008742Y-102501000D01*
X121831258Y-102501000D01*
X121806488Y-102496073D01*
X121657188Y-102466376D01*
X121493216Y-102398456D01*
X121345646Y-102299853D01*
X121220147Y-102174354D01*
X121121544Y-102026784D01*
X121053624Y-101862812D01*
X121019000Y-101688741D01*
X121019000Y-101511259D01*
X121053624Y-101337188D01*
X121121544Y-101173216D01*
X121220147Y-101025646D01*
X121345646Y-100900147D01*
X121493216Y-100801544D01*
X121657188Y-100733624D01*
X121806488Y-100703927D01*
X121831258Y-100699000D01*
X122008742Y-100699000D01*
X122033512Y-100703927D01*
G37*
G36*
X182993512Y-100703927D02*
G01*
X183142812Y-100733624D01*
X183306784Y-100801544D01*
X183454354Y-100900147D01*
X183579853Y-101025646D01*
X183678456Y-101173216D01*
X183746376Y-101337188D01*
X183781000Y-101511259D01*
X183781000Y-101688741D01*
X183746376Y-101862812D01*
X183678456Y-102026784D01*
X183579853Y-102174354D01*
X183454354Y-102299853D01*
X183306784Y-102398456D01*
X183142812Y-102466376D01*
X182993512Y-102496073D01*
X182968742Y-102501000D01*
X182791258Y-102501000D01*
X182766488Y-102496073D01*
X182617188Y-102466376D01*
X182453216Y-102398456D01*
X182305646Y-102299853D01*
X182180147Y-102174354D01*
X182081544Y-102026784D01*
X182013624Y-101862812D01*
X181979000Y-101688741D01*
X181979000Y-101511259D01*
X182013624Y-101337188D01*
X182081544Y-101173216D01*
X182180147Y-101025646D01*
X182305646Y-100900147D01*
X182453216Y-100801544D01*
X182617188Y-100733624D01*
X182766488Y-100703927D01*
X182791258Y-100699000D01*
X182968742Y-100699000D01*
X182993512Y-100703927D01*
G37*
G36*
X180453512Y-100703927D02*
G01*
X180602812Y-100733624D01*
X180766784Y-100801544D01*
X180914354Y-100900147D01*
X181039853Y-101025646D01*
X181138456Y-101173216D01*
X181206376Y-101337188D01*
X181241000Y-101511259D01*
X181241000Y-101688741D01*
X181206376Y-101862812D01*
X181138456Y-102026784D01*
X181039853Y-102174354D01*
X180914354Y-102299853D01*
X180766784Y-102398456D01*
X180602812Y-102466376D01*
X180453512Y-102496073D01*
X180428742Y-102501000D01*
X180251258Y-102501000D01*
X180226488Y-102496073D01*
X180077188Y-102466376D01*
X179913216Y-102398456D01*
X179765646Y-102299853D01*
X179640147Y-102174354D01*
X179541544Y-102026784D01*
X179473624Y-101862812D01*
X179439000Y-101688741D01*
X179439000Y-101511259D01*
X179473624Y-101337188D01*
X179541544Y-101173216D01*
X179640147Y-101025646D01*
X179765646Y-100900147D01*
X179913216Y-100801544D01*
X180077188Y-100733624D01*
X180226488Y-100703927D01*
X180251258Y-100699000D01*
X180428742Y-100699000D01*
X180453512Y-100703927D01*
G37*
G36*
X119493512Y-100703927D02*
G01*
X119642812Y-100733624D01*
X119806784Y-100801544D01*
X119954354Y-100900147D01*
X120079853Y-101025646D01*
X120178456Y-101173216D01*
X120246376Y-101337188D01*
X120281000Y-101511259D01*
X120281000Y-101688741D01*
X120246376Y-101862812D01*
X120178456Y-102026784D01*
X120079853Y-102174354D01*
X119954354Y-102299853D01*
X119806784Y-102398456D01*
X119642812Y-102466376D01*
X119493512Y-102496073D01*
X119468742Y-102501000D01*
X119291258Y-102501000D01*
X119266488Y-102496073D01*
X119117188Y-102466376D01*
X118953216Y-102398456D01*
X118805646Y-102299853D01*
X118680147Y-102174354D01*
X118581544Y-102026784D01*
X118513624Y-101862812D01*
X118479000Y-101688741D01*
X118479000Y-101511259D01*
X118513624Y-101337188D01*
X118581544Y-101173216D01*
X118680147Y-101025646D01*
X118805646Y-100900147D01*
X118953216Y-100801544D01*
X119117188Y-100733624D01*
X119266488Y-100703927D01*
X119291258Y-100699000D01*
X119468742Y-100699000D01*
X119493512Y-100703927D01*
G37*
G36*
X175373512Y-100703927D02*
G01*
X175522812Y-100733624D01*
X175686784Y-100801544D01*
X175834354Y-100900147D01*
X175959853Y-101025646D01*
X176058456Y-101173216D01*
X176126376Y-101337188D01*
X176161000Y-101511259D01*
X176161000Y-101688741D01*
X176126376Y-101862812D01*
X176058456Y-102026784D01*
X175959853Y-102174354D01*
X175834354Y-102299853D01*
X175686784Y-102398456D01*
X175522812Y-102466376D01*
X175373512Y-102496073D01*
X175348742Y-102501000D01*
X175171258Y-102501000D01*
X175146488Y-102496073D01*
X174997188Y-102466376D01*
X174833216Y-102398456D01*
X174685646Y-102299853D01*
X174560147Y-102174354D01*
X174461544Y-102026784D01*
X174393624Y-101862812D01*
X174359000Y-101688741D01*
X174359000Y-101511259D01*
X174393624Y-101337188D01*
X174461544Y-101173216D01*
X174560147Y-101025646D01*
X174685646Y-100900147D01*
X174833216Y-100801544D01*
X174997188Y-100733624D01*
X175146488Y-100703927D01*
X175171258Y-100699000D01*
X175348742Y-100699000D01*
X175373512Y-100703927D01*
G37*
G36*
X127113512Y-100703927D02*
G01*
X127262812Y-100733624D01*
X127426784Y-100801544D01*
X127574354Y-100900147D01*
X127699853Y-101025646D01*
X127798456Y-101173216D01*
X127866376Y-101337188D01*
X127901000Y-101511259D01*
X127901000Y-101688741D01*
X127866376Y-101862812D01*
X127798456Y-102026784D01*
X127699853Y-102174354D01*
X127574354Y-102299853D01*
X127426784Y-102398456D01*
X127262812Y-102466376D01*
X127113512Y-102496073D01*
X127088742Y-102501000D01*
X126911258Y-102501000D01*
X126886488Y-102496073D01*
X126737188Y-102466376D01*
X126573216Y-102398456D01*
X126425646Y-102299853D01*
X126300147Y-102174354D01*
X126201544Y-102026784D01*
X126133624Y-101862812D01*
X126099000Y-101688741D01*
X126099000Y-101511259D01*
X126133624Y-101337188D01*
X126201544Y-101173216D01*
X126300147Y-101025646D01*
X126425646Y-100900147D01*
X126573216Y-100801544D01*
X126737188Y-100733624D01*
X126886488Y-100703927D01*
X126911258Y-100699000D01*
X127088742Y-100699000D01*
X127113512Y-100703927D01*
G37*
G36*
X143758228Y-100781703D02*
G01*
X143913100Y-100845853D01*
X144052481Y-100938985D01*
X144171015Y-101057519D01*
X144264147Y-101196900D01*
X144328297Y-101351772D01*
X144361000Y-101516184D01*
X144361000Y-101683816D01*
X144328297Y-101848228D01*
X144264147Y-102003100D01*
X144171015Y-102142481D01*
X144052481Y-102261015D01*
X143913100Y-102354147D01*
X143758228Y-102418297D01*
X143593816Y-102451000D01*
X143426184Y-102451000D01*
X143261772Y-102418297D01*
X143106900Y-102354147D01*
X142967519Y-102261015D01*
X142848985Y-102142481D01*
X142755853Y-102003100D01*
X142691703Y-101848228D01*
X142659000Y-101683816D01*
X142659000Y-101516184D01*
X142691703Y-101351772D01*
X142755853Y-101196900D01*
X142848985Y-101057519D01*
X142967519Y-100938985D01*
X143106900Y-100845853D01*
X143261772Y-100781703D01*
X143426184Y-100749000D01*
X143593816Y-100749000D01*
X143758228Y-100781703D01*
G37*
G36*
X133598228Y-100781703D02*
G01*
X133753100Y-100845853D01*
X133892481Y-100938985D01*
X134011015Y-101057519D01*
X134104147Y-101196900D01*
X134168297Y-101351772D01*
X134201000Y-101516184D01*
X134201000Y-101683816D01*
X134168297Y-101848228D01*
X134104147Y-102003100D01*
X134011015Y-102142481D01*
X133892481Y-102261015D01*
X133753100Y-102354147D01*
X133598228Y-102418297D01*
X133433816Y-102451000D01*
X133266184Y-102451000D01*
X133101772Y-102418297D01*
X132946900Y-102354147D01*
X132807519Y-102261015D01*
X132688985Y-102142481D01*
X132595853Y-102003100D01*
X132531703Y-101848228D01*
X132499000Y-101683816D01*
X132499000Y-101516184D01*
X132531703Y-101351772D01*
X132595853Y-101196900D01*
X132688985Y-101057519D01*
X132807519Y-100938985D01*
X132946900Y-100845853D01*
X133101772Y-100781703D01*
X133266184Y-100749000D01*
X133433816Y-100749000D01*
X133598228Y-100781703D01*
G37*
G36*
X180453512Y-98163927D02*
G01*
X180602812Y-98193624D01*
X180766784Y-98261544D01*
X180914354Y-98360147D01*
X181039853Y-98485646D01*
X181138456Y-98633216D01*
X181206376Y-98797188D01*
X181241000Y-98971259D01*
X181241000Y-99148741D01*
X181206376Y-99322812D01*
X181138456Y-99486784D01*
X181039853Y-99634354D01*
X180914354Y-99759853D01*
X180766784Y-99858456D01*
X180602812Y-99926376D01*
X180453512Y-99956073D01*
X180428742Y-99961000D01*
X180251258Y-99961000D01*
X180226488Y-99956073D01*
X180077188Y-99926376D01*
X179913216Y-99858456D01*
X179765646Y-99759853D01*
X179640147Y-99634354D01*
X179541544Y-99486784D01*
X179473624Y-99322812D01*
X179439000Y-99148741D01*
X179439000Y-98971259D01*
X179473624Y-98797188D01*
X179541544Y-98633216D01*
X179640147Y-98485646D01*
X179765646Y-98360147D01*
X179913216Y-98261544D01*
X180077188Y-98193624D01*
X180226488Y-98163927D01*
X180251258Y-98159000D01*
X180428742Y-98159000D01*
X180453512Y-98163927D01*
G37*
G36*
X127113512Y-98163927D02*
G01*
X127262812Y-98193624D01*
X127426784Y-98261544D01*
X127574354Y-98360147D01*
X127699853Y-98485646D01*
X127798456Y-98633216D01*
X127866376Y-98797188D01*
X127901000Y-98971259D01*
X127901000Y-99148741D01*
X127866376Y-99322812D01*
X127798456Y-99486784D01*
X127699853Y-99634354D01*
X127574354Y-99759853D01*
X127426784Y-99858456D01*
X127262812Y-99926376D01*
X127113512Y-99956073D01*
X127088742Y-99961000D01*
X126911258Y-99961000D01*
X126886488Y-99956073D01*
X126737188Y-99926376D01*
X126573216Y-99858456D01*
X126425646Y-99759853D01*
X126300147Y-99634354D01*
X126201544Y-99486784D01*
X126133624Y-99322812D01*
X126099000Y-99148741D01*
X126099000Y-98971259D01*
X126133624Y-98797188D01*
X126201544Y-98633216D01*
X126300147Y-98485646D01*
X126425646Y-98360147D01*
X126573216Y-98261544D01*
X126737188Y-98193624D01*
X126886488Y-98163927D01*
X126911258Y-98159000D01*
X127088742Y-98159000D01*
X127113512Y-98163927D01*
G37*
G36*
X182993512Y-98163927D02*
G01*
X183142812Y-98193624D01*
X183306784Y-98261544D01*
X183454354Y-98360147D01*
X183579853Y-98485646D01*
X183678456Y-98633216D01*
X183746376Y-98797188D01*
X183781000Y-98971259D01*
X183781000Y-99148741D01*
X183746376Y-99322812D01*
X183678456Y-99486784D01*
X183579853Y-99634354D01*
X183454354Y-99759853D01*
X183306784Y-99858456D01*
X183142812Y-99926376D01*
X182993512Y-99956073D01*
X182968742Y-99961000D01*
X182791258Y-99961000D01*
X182766488Y-99956073D01*
X182617188Y-99926376D01*
X182453216Y-99858456D01*
X182305646Y-99759853D01*
X182180147Y-99634354D01*
X182081544Y-99486784D01*
X182013624Y-99322812D01*
X181979000Y-99148741D01*
X181979000Y-98971259D01*
X182013624Y-98797188D01*
X182081544Y-98633216D01*
X182180147Y-98485646D01*
X182305646Y-98360147D01*
X182453216Y-98261544D01*
X182617188Y-98193624D01*
X182766488Y-98163927D01*
X182791258Y-98159000D01*
X182968742Y-98159000D01*
X182993512Y-98163927D01*
G37*
G36*
X119493512Y-98163927D02*
G01*
X119642812Y-98193624D01*
X119806784Y-98261544D01*
X119954354Y-98360147D01*
X120079853Y-98485646D01*
X120178456Y-98633216D01*
X120246376Y-98797188D01*
X120281000Y-98971259D01*
X120281000Y-99148741D01*
X120246376Y-99322812D01*
X120178456Y-99486784D01*
X120079853Y-99634354D01*
X119954354Y-99759853D01*
X119806784Y-99858456D01*
X119642812Y-99926376D01*
X119493512Y-99956073D01*
X119468742Y-99961000D01*
X119291258Y-99961000D01*
X119266488Y-99956073D01*
X119117188Y-99926376D01*
X118953216Y-99858456D01*
X118805646Y-99759853D01*
X118680147Y-99634354D01*
X118581544Y-99486784D01*
X118513624Y-99322812D01*
X118479000Y-99148741D01*
X118479000Y-98971259D01*
X118513624Y-98797188D01*
X118581544Y-98633216D01*
X118680147Y-98485646D01*
X118805646Y-98360147D01*
X118953216Y-98261544D01*
X119117188Y-98193624D01*
X119266488Y-98163927D01*
X119291258Y-98159000D01*
X119468742Y-98159000D01*
X119493512Y-98163927D01*
G37*
G36*
X122033512Y-98163927D02*
G01*
X122182812Y-98193624D01*
X122346784Y-98261544D01*
X122494354Y-98360147D01*
X122619853Y-98485646D01*
X122718456Y-98633216D01*
X122786376Y-98797188D01*
X122821000Y-98971259D01*
X122821000Y-99148741D01*
X122786376Y-99322812D01*
X122718456Y-99486784D01*
X122619853Y-99634354D01*
X122494354Y-99759853D01*
X122346784Y-99858456D01*
X122182812Y-99926376D01*
X122033512Y-99956073D01*
X122008742Y-99961000D01*
X121831258Y-99961000D01*
X121806488Y-99956073D01*
X121657188Y-99926376D01*
X121493216Y-99858456D01*
X121345646Y-99759853D01*
X121220147Y-99634354D01*
X121121544Y-99486784D01*
X121053624Y-99322812D01*
X121019000Y-99148741D01*
X121019000Y-98971259D01*
X121053624Y-98797188D01*
X121121544Y-98633216D01*
X121220147Y-98485646D01*
X121345646Y-98360147D01*
X121493216Y-98261544D01*
X121657188Y-98193624D01*
X121806488Y-98163927D01*
X121831258Y-98159000D01*
X122008742Y-98159000D01*
X122033512Y-98163927D01*
G37*
G36*
X175373512Y-98163927D02*
G01*
X175522812Y-98193624D01*
X175686784Y-98261544D01*
X175834354Y-98360147D01*
X175959853Y-98485646D01*
X176058456Y-98633216D01*
X176126376Y-98797188D01*
X176161000Y-98971259D01*
X176161000Y-99148741D01*
X176126376Y-99322812D01*
X176058456Y-99486784D01*
X175959853Y-99634354D01*
X175834354Y-99759853D01*
X175686784Y-99858456D01*
X175522812Y-99926376D01*
X175373512Y-99956073D01*
X175348742Y-99961000D01*
X175171258Y-99961000D01*
X175146488Y-99956073D01*
X174997188Y-99926376D01*
X174833216Y-99858456D01*
X174685646Y-99759853D01*
X174560147Y-99634354D01*
X174461544Y-99486784D01*
X174393624Y-99322812D01*
X174359000Y-99148741D01*
X174359000Y-98971259D01*
X174393624Y-98797188D01*
X174461544Y-98633216D01*
X174560147Y-98485646D01*
X174685646Y-98360147D01*
X174833216Y-98261544D01*
X174997188Y-98193624D01*
X175146488Y-98163927D01*
X175171258Y-98159000D01*
X175348742Y-98159000D01*
X175373512Y-98163927D01*
G37*
G36*
X133598228Y-96971703D02*
G01*
X133753100Y-97035853D01*
X133892481Y-97128985D01*
X134011015Y-97247519D01*
X134104147Y-97386900D01*
X134168297Y-97541772D01*
X134201000Y-97706184D01*
X134201000Y-97873816D01*
X134168297Y-98038228D01*
X134104147Y-98193100D01*
X134011015Y-98332481D01*
X133892481Y-98451015D01*
X133753100Y-98544147D01*
X133598228Y-98608297D01*
X133433816Y-98641000D01*
X133266184Y-98641000D01*
X133101772Y-98608297D01*
X132946900Y-98544147D01*
X132807519Y-98451015D01*
X132688985Y-98332481D01*
X132595853Y-98193100D01*
X132531703Y-98038228D01*
X132499000Y-97873816D01*
X132499000Y-97706184D01*
X132531703Y-97541772D01*
X132595853Y-97386900D01*
X132688985Y-97247519D01*
X132807519Y-97128985D01*
X132946900Y-97035853D01*
X133101772Y-96971703D01*
X133266184Y-96939000D01*
X133433816Y-96939000D01*
X133598228Y-96971703D01*
G37*
G36*
X143758228Y-96971703D02*
G01*
X143913100Y-97035853D01*
X144052481Y-97128985D01*
X144171015Y-97247519D01*
X144264147Y-97386900D01*
X144328297Y-97541772D01*
X144361000Y-97706184D01*
X144361000Y-97873816D01*
X144328297Y-98038228D01*
X144264147Y-98193100D01*
X144171015Y-98332481D01*
X144052481Y-98451015D01*
X143913100Y-98544147D01*
X143758228Y-98608297D01*
X143593816Y-98641000D01*
X143426184Y-98641000D01*
X143261772Y-98608297D01*
X143106900Y-98544147D01*
X142967519Y-98451015D01*
X142848985Y-98332481D01*
X142755853Y-98193100D01*
X142691703Y-98038228D01*
X142659000Y-97873816D01*
X142659000Y-97706184D01*
X142691703Y-97541772D01*
X142755853Y-97386900D01*
X142848985Y-97247519D01*
X142967519Y-97128985D01*
X143106900Y-97035853D01*
X143261772Y-96971703D01*
X143426184Y-96939000D01*
X143593816Y-96939000D01*
X143758228Y-96971703D01*
G37*
G36*
X122033512Y-95623927D02*
G01*
X122182812Y-95653624D01*
X122346784Y-95721544D01*
X122494354Y-95820147D01*
X122619853Y-95945646D01*
X122718456Y-96093216D01*
X122786376Y-96257188D01*
X122821000Y-96431259D01*
X122821000Y-96608741D01*
X122786376Y-96782812D01*
X122718456Y-96946784D01*
X122619853Y-97094354D01*
X122494354Y-97219853D01*
X122346784Y-97318456D01*
X122182812Y-97386376D01*
X122033512Y-97416073D01*
X122008742Y-97421000D01*
X121831258Y-97421000D01*
X121806488Y-97416073D01*
X121657188Y-97386376D01*
X121493216Y-97318456D01*
X121345646Y-97219853D01*
X121220147Y-97094354D01*
X121121544Y-96946784D01*
X121053624Y-96782812D01*
X121019000Y-96608741D01*
X121019000Y-96431259D01*
X121053624Y-96257188D01*
X121121544Y-96093216D01*
X121220147Y-95945646D01*
X121345646Y-95820147D01*
X121493216Y-95721544D01*
X121657188Y-95653624D01*
X121806488Y-95623927D01*
X121831258Y-95619000D01*
X122008742Y-95619000D01*
X122033512Y-95623927D01*
G37*
G36*
X175373512Y-95623927D02*
G01*
X175522812Y-95653624D01*
X175686784Y-95721544D01*
X175834354Y-95820147D01*
X175959853Y-95945646D01*
X176058456Y-96093216D01*
X176126376Y-96257188D01*
X176161000Y-96431259D01*
X176161000Y-96608741D01*
X176126376Y-96782812D01*
X176058456Y-96946784D01*
X175959853Y-97094354D01*
X175834354Y-97219853D01*
X175686784Y-97318456D01*
X175522812Y-97386376D01*
X175373512Y-97416073D01*
X175348742Y-97421000D01*
X175171258Y-97421000D01*
X175146488Y-97416073D01*
X174997188Y-97386376D01*
X174833216Y-97318456D01*
X174685646Y-97219853D01*
X174560147Y-97094354D01*
X174461544Y-96946784D01*
X174393624Y-96782812D01*
X174359000Y-96608741D01*
X174359000Y-96431259D01*
X174393624Y-96257188D01*
X174461544Y-96093216D01*
X174560147Y-95945646D01*
X174685646Y-95820147D01*
X174833216Y-95721544D01*
X174997188Y-95653624D01*
X175146488Y-95623927D01*
X175171258Y-95619000D01*
X175348742Y-95619000D01*
X175373512Y-95623927D01*
G37*
G36*
X180453512Y-95623927D02*
G01*
X180602812Y-95653624D01*
X180766784Y-95721544D01*
X180914354Y-95820147D01*
X181039853Y-95945646D01*
X181138456Y-96093216D01*
X181206376Y-96257188D01*
X181241000Y-96431259D01*
X181241000Y-96608741D01*
X181206376Y-96782812D01*
X181138456Y-96946784D01*
X181039853Y-97094354D01*
X180914354Y-97219853D01*
X180766784Y-97318456D01*
X180602812Y-97386376D01*
X180453512Y-97416073D01*
X180428742Y-97421000D01*
X180251258Y-97421000D01*
X180226488Y-97416073D01*
X180077188Y-97386376D01*
X179913216Y-97318456D01*
X179765646Y-97219853D01*
X179640147Y-97094354D01*
X179541544Y-96946784D01*
X179473624Y-96782812D01*
X179439000Y-96608741D01*
X179439000Y-96431259D01*
X179473624Y-96257188D01*
X179541544Y-96093216D01*
X179640147Y-95945646D01*
X179765646Y-95820147D01*
X179913216Y-95721544D01*
X180077188Y-95653624D01*
X180226488Y-95623927D01*
X180251258Y-95619000D01*
X180428742Y-95619000D01*
X180453512Y-95623927D01*
G37*
G36*
X182993512Y-95623927D02*
G01*
X183142812Y-95653624D01*
X183306784Y-95721544D01*
X183454354Y-95820147D01*
X183579853Y-95945646D01*
X183678456Y-96093216D01*
X183746376Y-96257188D01*
X183781000Y-96431259D01*
X183781000Y-96608741D01*
X183746376Y-96782812D01*
X183678456Y-96946784D01*
X183579853Y-97094354D01*
X183454354Y-97219853D01*
X183306784Y-97318456D01*
X183142812Y-97386376D01*
X182993512Y-97416073D01*
X182968742Y-97421000D01*
X182791258Y-97421000D01*
X182766488Y-97416073D01*
X182617188Y-97386376D01*
X182453216Y-97318456D01*
X182305646Y-97219853D01*
X182180147Y-97094354D01*
X182081544Y-96946784D01*
X182013624Y-96782812D01*
X181979000Y-96608741D01*
X181979000Y-96431259D01*
X182013624Y-96257188D01*
X182081544Y-96093216D01*
X182180147Y-95945646D01*
X182305646Y-95820147D01*
X182453216Y-95721544D01*
X182617188Y-95653624D01*
X182766488Y-95623927D01*
X182791258Y-95619000D01*
X182968742Y-95619000D01*
X182993512Y-95623927D01*
G37*
G36*
X127113512Y-95623927D02*
G01*
X127262812Y-95653624D01*
X127426784Y-95721544D01*
X127574354Y-95820147D01*
X127699853Y-95945646D01*
X127798456Y-96093216D01*
X127866376Y-96257188D01*
X127901000Y-96431259D01*
X127901000Y-96608741D01*
X127866376Y-96782812D01*
X127798456Y-96946784D01*
X127699853Y-97094354D01*
X127574354Y-97219853D01*
X127426784Y-97318456D01*
X127262812Y-97386376D01*
X127113512Y-97416073D01*
X127088742Y-97421000D01*
X126911258Y-97421000D01*
X126886488Y-97416073D01*
X126737188Y-97386376D01*
X126573216Y-97318456D01*
X126425646Y-97219853D01*
X126300147Y-97094354D01*
X126201544Y-96946784D01*
X126133624Y-96782812D01*
X126099000Y-96608741D01*
X126099000Y-96431259D01*
X126133624Y-96257188D01*
X126201544Y-96093216D01*
X126300147Y-95945646D01*
X126425646Y-95820147D01*
X126573216Y-95721544D01*
X126737188Y-95653624D01*
X126886488Y-95623927D01*
X126911258Y-95619000D01*
X127088742Y-95619000D01*
X127113512Y-95623927D01*
G37*
G36*
X119493512Y-95623927D02*
G01*
X119642812Y-95653624D01*
X119806784Y-95721544D01*
X119954354Y-95820147D01*
X120079853Y-95945646D01*
X120178456Y-96093216D01*
X120246376Y-96257188D01*
X120281000Y-96431259D01*
X120281000Y-96608741D01*
X120246376Y-96782812D01*
X120178456Y-96946784D01*
X120079853Y-97094354D01*
X119954354Y-97219853D01*
X119806784Y-97318456D01*
X119642812Y-97386376D01*
X119493512Y-97416073D01*
X119468742Y-97421000D01*
X119291258Y-97421000D01*
X119266488Y-97416073D01*
X119117188Y-97386376D01*
X118953216Y-97318456D01*
X118805646Y-97219853D01*
X118680147Y-97094354D01*
X118581544Y-96946784D01*
X118513624Y-96782812D01*
X118479000Y-96608741D01*
X118479000Y-96431259D01*
X118513624Y-96257188D01*
X118581544Y-96093216D01*
X118680147Y-95945646D01*
X118805646Y-95820147D01*
X118953216Y-95721544D01*
X119117188Y-95653624D01*
X119266488Y-95623927D01*
X119291258Y-95619000D01*
X119468742Y-95619000D01*
X119493512Y-95623927D01*
G37*
G36*
X127901000Y-94881000D02*
G01*
X126099000Y-94881000D01*
X126099000Y-93079000D01*
X127901000Y-93079000D01*
X127901000Y-94881000D01*
G37*
G36*
X182993512Y-93083927D02*
G01*
X183142812Y-93113624D01*
X183306784Y-93181544D01*
X183454354Y-93280147D01*
X183579853Y-93405646D01*
X183678456Y-93553216D01*
X183746376Y-93717188D01*
X183781000Y-93891259D01*
X183781000Y-94068741D01*
X183746376Y-94242812D01*
X183678456Y-94406784D01*
X183579853Y-94554354D01*
X183454354Y-94679853D01*
X183306784Y-94778456D01*
X183142812Y-94846376D01*
X182993512Y-94876073D01*
X182968742Y-94881000D01*
X182791258Y-94881000D01*
X182766488Y-94876073D01*
X182617188Y-94846376D01*
X182453216Y-94778456D01*
X182305646Y-94679853D01*
X182180147Y-94554354D01*
X182081544Y-94406784D01*
X182013624Y-94242812D01*
X181979000Y-94068741D01*
X181979000Y-93891259D01*
X182013624Y-93717188D01*
X182081544Y-93553216D01*
X182180147Y-93405646D01*
X182305646Y-93280147D01*
X182453216Y-93181544D01*
X182617188Y-93113624D01*
X182766488Y-93083927D01*
X182791258Y-93079000D01*
X182968742Y-93079000D01*
X182993512Y-93083927D01*
G37*
G36*
X175373512Y-93083927D02*
G01*
X175522812Y-93113624D01*
X175686784Y-93181544D01*
X175834354Y-93280147D01*
X175959853Y-93405646D01*
X176058456Y-93553216D01*
X176126376Y-93717188D01*
X176161000Y-93891259D01*
X176161000Y-94068741D01*
X176126376Y-94242812D01*
X176058456Y-94406784D01*
X175959853Y-94554354D01*
X175834354Y-94679853D01*
X175686784Y-94778456D01*
X175522812Y-94846376D01*
X175373512Y-94876073D01*
X175348742Y-94881000D01*
X175171258Y-94881000D01*
X175146488Y-94876073D01*
X174997188Y-94846376D01*
X174833216Y-94778456D01*
X174685646Y-94679853D01*
X174560147Y-94554354D01*
X174461544Y-94406784D01*
X174393624Y-94242812D01*
X174359000Y-94068741D01*
X174359000Y-93891259D01*
X174393624Y-93717188D01*
X174461544Y-93553216D01*
X174560147Y-93405646D01*
X174685646Y-93280147D01*
X174833216Y-93181544D01*
X174997188Y-93113624D01*
X175146488Y-93083927D01*
X175171258Y-93079000D01*
X175348742Y-93079000D01*
X175373512Y-93083927D01*
G37*
G36*
X122033512Y-93083927D02*
G01*
X122182812Y-93113624D01*
X122346784Y-93181544D01*
X122494354Y-93280147D01*
X122619853Y-93405646D01*
X122718456Y-93553216D01*
X122786376Y-93717188D01*
X122821000Y-93891259D01*
X122821000Y-94068741D01*
X122786376Y-94242812D01*
X122718456Y-94406784D01*
X122619853Y-94554354D01*
X122494354Y-94679853D01*
X122346784Y-94778456D01*
X122182812Y-94846376D01*
X122033512Y-94876073D01*
X122008742Y-94881000D01*
X121831258Y-94881000D01*
X121806488Y-94876073D01*
X121657188Y-94846376D01*
X121493216Y-94778456D01*
X121345646Y-94679853D01*
X121220147Y-94554354D01*
X121121544Y-94406784D01*
X121053624Y-94242812D01*
X121019000Y-94068741D01*
X121019000Y-93891259D01*
X121053624Y-93717188D01*
X121121544Y-93553216D01*
X121220147Y-93405646D01*
X121345646Y-93280147D01*
X121493216Y-93181544D01*
X121657188Y-93113624D01*
X121806488Y-93083927D01*
X121831258Y-93079000D01*
X122008742Y-93079000D01*
X122033512Y-93083927D01*
G37*
G36*
X119493512Y-93083927D02*
G01*
X119642812Y-93113624D01*
X119806784Y-93181544D01*
X119954354Y-93280147D01*
X120079853Y-93405646D01*
X120178456Y-93553216D01*
X120246376Y-93717188D01*
X120281000Y-93891259D01*
X120281000Y-94068741D01*
X120246376Y-94242812D01*
X120178456Y-94406784D01*
X120079853Y-94554354D01*
X119954354Y-94679853D01*
X119806784Y-94778456D01*
X119642812Y-94846376D01*
X119493512Y-94876073D01*
X119468742Y-94881000D01*
X119291258Y-94881000D01*
X119266488Y-94876073D01*
X119117188Y-94846376D01*
X118953216Y-94778456D01*
X118805646Y-94679853D01*
X118680147Y-94554354D01*
X118581544Y-94406784D01*
X118513624Y-94242812D01*
X118479000Y-94068741D01*
X118479000Y-93891259D01*
X118513624Y-93717188D01*
X118581544Y-93553216D01*
X118680147Y-93405646D01*
X118805646Y-93280147D01*
X118953216Y-93181544D01*
X119117188Y-93113624D01*
X119266488Y-93083927D01*
X119291258Y-93079000D01*
X119468742Y-93079000D01*
X119493512Y-93083927D01*
G37*
G36*
X180453512Y-93083927D02*
G01*
X180602812Y-93113624D01*
X180766784Y-93181544D01*
X180914354Y-93280147D01*
X181039853Y-93405646D01*
X181138456Y-93553216D01*
X181206376Y-93717188D01*
X181241000Y-93891259D01*
X181241000Y-94068741D01*
X181206376Y-94242812D01*
X181138456Y-94406784D01*
X181039853Y-94554354D01*
X180914354Y-94679853D01*
X180766784Y-94778456D01*
X180602812Y-94846376D01*
X180453512Y-94876073D01*
X180428742Y-94881000D01*
X180251258Y-94881000D01*
X180226488Y-94876073D01*
X180077188Y-94846376D01*
X179913216Y-94778456D01*
X179765646Y-94679853D01*
X179640147Y-94554354D01*
X179541544Y-94406784D01*
X179473624Y-94242812D01*
X179439000Y-94068741D01*
X179439000Y-93891259D01*
X179473624Y-93717188D01*
X179541544Y-93553216D01*
X179640147Y-93405646D01*
X179765646Y-93280147D01*
X179913216Y-93181544D01*
X180077188Y-93113624D01*
X180226488Y-93083927D01*
X180251258Y-93079000D01*
X180428742Y-93079000D01*
X180453512Y-93083927D01*
G37*
G36*
X175373512Y-90543927D02*
G01*
X175522812Y-90573624D01*
X175686784Y-90641544D01*
X175834354Y-90740147D01*
X175959853Y-90865646D01*
X176058456Y-91013216D01*
X176126376Y-91177188D01*
X176161000Y-91351259D01*
X176161000Y-91528741D01*
X176126376Y-91702812D01*
X176058456Y-91866784D01*
X175959853Y-92014354D01*
X175834354Y-92139853D01*
X175686784Y-92238456D01*
X175522812Y-92306376D01*
X175373512Y-92336073D01*
X175348742Y-92341000D01*
X175171258Y-92341000D01*
X175146488Y-92336073D01*
X174997188Y-92306376D01*
X174833216Y-92238456D01*
X174685646Y-92139853D01*
X174560147Y-92014354D01*
X174461544Y-91866784D01*
X174393624Y-91702812D01*
X174359000Y-91528741D01*
X174359000Y-91351259D01*
X174393624Y-91177188D01*
X174461544Y-91013216D01*
X174560147Y-90865646D01*
X174685646Y-90740147D01*
X174833216Y-90641544D01*
X174997188Y-90573624D01*
X175146488Y-90543927D01*
X175171258Y-90539000D01*
X175348742Y-90539000D01*
X175373512Y-90543927D01*
G37*
G36*
X180453512Y-90543927D02*
G01*
X180602812Y-90573624D01*
X180766784Y-90641544D01*
X180914354Y-90740147D01*
X181039853Y-90865646D01*
X181138456Y-91013216D01*
X181206376Y-91177188D01*
X181241000Y-91351259D01*
X181241000Y-91528741D01*
X181206376Y-91702812D01*
X181138456Y-91866784D01*
X181039853Y-92014354D01*
X180914354Y-92139853D01*
X180766784Y-92238456D01*
X180602812Y-92306376D01*
X180453512Y-92336073D01*
X180428742Y-92341000D01*
X180251258Y-92341000D01*
X180226488Y-92336073D01*
X180077188Y-92306376D01*
X179913216Y-92238456D01*
X179765646Y-92139853D01*
X179640147Y-92014354D01*
X179541544Y-91866784D01*
X179473624Y-91702812D01*
X179439000Y-91528741D01*
X179439000Y-91351259D01*
X179473624Y-91177188D01*
X179541544Y-91013216D01*
X179640147Y-90865646D01*
X179765646Y-90740147D01*
X179913216Y-90641544D01*
X180077188Y-90573624D01*
X180226488Y-90543927D01*
X180251258Y-90539000D01*
X180428742Y-90539000D01*
X180453512Y-90543927D01*
G37*
G36*
X122033512Y-90543927D02*
G01*
X122182812Y-90573624D01*
X122346784Y-90641544D01*
X122494354Y-90740147D01*
X122619853Y-90865646D01*
X122718456Y-91013216D01*
X122786376Y-91177188D01*
X122821000Y-91351259D01*
X122821000Y-91528741D01*
X122786376Y-91702812D01*
X122718456Y-91866784D01*
X122619853Y-92014354D01*
X122494354Y-92139853D01*
X122346784Y-92238456D01*
X122182812Y-92306376D01*
X122033512Y-92336073D01*
X122008742Y-92341000D01*
X121831258Y-92341000D01*
X121806488Y-92336073D01*
X121657188Y-92306376D01*
X121493216Y-92238456D01*
X121345646Y-92139853D01*
X121220147Y-92014354D01*
X121121544Y-91866784D01*
X121053624Y-91702812D01*
X121019000Y-91528741D01*
X121019000Y-91351259D01*
X121053624Y-91177188D01*
X121121544Y-91013216D01*
X121220147Y-90865646D01*
X121345646Y-90740147D01*
X121493216Y-90641544D01*
X121657188Y-90573624D01*
X121806488Y-90543927D01*
X121831258Y-90539000D01*
X122008742Y-90539000D01*
X122033512Y-90543927D01*
G37*
G36*
X119493512Y-90543927D02*
G01*
X119642812Y-90573624D01*
X119806784Y-90641544D01*
X119954354Y-90740147D01*
X120079853Y-90865646D01*
X120178456Y-91013216D01*
X120246376Y-91177188D01*
X120281000Y-91351259D01*
X120281000Y-91528741D01*
X120246376Y-91702812D01*
X120178456Y-91866784D01*
X120079853Y-92014354D01*
X119954354Y-92139853D01*
X119806784Y-92238456D01*
X119642812Y-92306376D01*
X119493512Y-92336073D01*
X119468742Y-92341000D01*
X119291258Y-92341000D01*
X119266488Y-92336073D01*
X119117188Y-92306376D01*
X118953216Y-92238456D01*
X118805646Y-92139853D01*
X118680147Y-92014354D01*
X118581544Y-91866784D01*
X118513624Y-91702812D01*
X118479000Y-91528741D01*
X118479000Y-91351259D01*
X118513624Y-91177188D01*
X118581544Y-91013216D01*
X118680147Y-90865646D01*
X118805646Y-90740147D01*
X118953216Y-90641544D01*
X119117188Y-90573624D01*
X119266488Y-90543927D01*
X119291258Y-90539000D01*
X119468742Y-90539000D01*
X119493512Y-90543927D01*
G37*
G36*
X182993512Y-90543927D02*
G01*
X183142812Y-90573624D01*
X183306784Y-90641544D01*
X183454354Y-90740147D01*
X183579853Y-90865646D01*
X183678456Y-91013216D01*
X183746376Y-91177188D01*
X183781000Y-91351259D01*
X183781000Y-91528741D01*
X183746376Y-91702812D01*
X183678456Y-91866784D01*
X183579853Y-92014354D01*
X183454354Y-92139853D01*
X183306784Y-92238456D01*
X183142812Y-92306376D01*
X182993512Y-92336073D01*
X182968742Y-92341000D01*
X182791258Y-92341000D01*
X182766488Y-92336073D01*
X182617188Y-92306376D01*
X182453216Y-92238456D01*
X182305646Y-92139853D01*
X182180147Y-92014354D01*
X182081544Y-91866784D01*
X182013624Y-91702812D01*
X181979000Y-91528741D01*
X181979000Y-91351259D01*
X182013624Y-91177188D01*
X182081544Y-91013216D01*
X182180147Y-90865646D01*
X182305646Y-90740147D01*
X182453216Y-90641544D01*
X182617188Y-90573624D01*
X182766488Y-90543927D01*
X182791258Y-90539000D01*
X182968742Y-90539000D01*
X182993512Y-90543927D01*
G37*
G36*
X139937142Y-90658242D02*
G01*
X140085101Y-90719529D01*
X140218255Y-90808499D01*
X140331501Y-90921745D01*
X140420471Y-91054899D01*
X140481758Y-91202858D01*
X140513000Y-91359925D01*
X140513000Y-91520075D01*
X140481758Y-91677142D01*
X140420471Y-91825101D01*
X140331501Y-91958255D01*
X140218255Y-92071501D01*
X140085101Y-92160471D01*
X139937142Y-92221758D01*
X139780075Y-92253000D01*
X139619925Y-92253000D01*
X139462858Y-92221758D01*
X139314899Y-92160471D01*
X139181745Y-92071501D01*
X139068499Y-91958255D01*
X138979529Y-91825101D01*
X138918242Y-91677142D01*
X138887000Y-91520075D01*
X138887000Y-91359925D01*
X138918242Y-91202858D01*
X138979529Y-91054899D01*
X139068499Y-90921745D01*
X139181745Y-90808499D01*
X139314899Y-90719529D01*
X139462858Y-90658242D01*
X139619925Y-90627000D01*
X139780075Y-90627000D01*
X139937142Y-90658242D01*
G37*
G36*
X162797142Y-90658242D02*
G01*
X162945101Y-90719529D01*
X163078255Y-90808499D01*
X163191501Y-90921745D01*
X163280471Y-91054899D01*
X163341758Y-91202858D01*
X163373000Y-91359925D01*
X163373000Y-91520075D01*
X163341758Y-91677142D01*
X163280471Y-91825101D01*
X163191501Y-91958255D01*
X163078255Y-92071501D01*
X162945101Y-92160471D01*
X162797142Y-92221758D01*
X162640075Y-92253000D01*
X162479925Y-92253000D01*
X162322858Y-92221758D01*
X162174899Y-92160471D01*
X162041745Y-92071501D01*
X161928499Y-91958255D01*
X161839529Y-91825101D01*
X161778242Y-91677142D01*
X161747000Y-91520075D01*
X161747000Y-91359925D01*
X161778242Y-91202858D01*
X161839529Y-91054899D01*
X161928499Y-90921745D01*
X162041745Y-90808499D01*
X162174899Y-90719529D01*
X162322858Y-90658242D01*
X162479925Y-90627000D01*
X162640075Y-90627000D01*
X162797142Y-90658242D01*
G37*
G36*
X127113512Y-88003927D02*
G01*
X127262812Y-88033624D01*
X127426784Y-88101544D01*
X127574354Y-88200147D01*
X127699853Y-88325646D01*
X127798456Y-88473216D01*
X127866376Y-88637188D01*
X127901000Y-88811259D01*
X127901000Y-88988741D01*
X127866376Y-89162812D01*
X127798456Y-89326784D01*
X127699853Y-89474354D01*
X127574354Y-89599853D01*
X127426784Y-89698456D01*
X127262812Y-89766376D01*
X127113512Y-89796073D01*
X127088742Y-89801000D01*
X126911258Y-89801000D01*
X126886488Y-89796073D01*
X126737188Y-89766376D01*
X126573216Y-89698456D01*
X126425646Y-89599853D01*
X126300147Y-89474354D01*
X126201544Y-89326784D01*
X126133624Y-89162812D01*
X126099000Y-88988741D01*
X126099000Y-88811259D01*
X126133624Y-88637188D01*
X126201544Y-88473216D01*
X126300147Y-88325646D01*
X126425646Y-88200147D01*
X126573216Y-88101544D01*
X126737188Y-88033624D01*
X126886488Y-88003927D01*
X126911258Y-87999000D01*
X127088742Y-87999000D01*
X127113512Y-88003927D01*
G37*
G36*
X182993512Y-88003927D02*
G01*
X183142812Y-88033624D01*
X183306784Y-88101544D01*
X183454354Y-88200147D01*
X183579853Y-88325646D01*
X183678456Y-88473216D01*
X183746376Y-88637188D01*
X183781000Y-88811259D01*
X183781000Y-88988741D01*
X183746376Y-89162812D01*
X183678456Y-89326784D01*
X183579853Y-89474354D01*
X183454354Y-89599853D01*
X183306784Y-89698456D01*
X183142812Y-89766376D01*
X182993512Y-89796073D01*
X182968742Y-89801000D01*
X182791258Y-89801000D01*
X182766488Y-89796073D01*
X182617188Y-89766376D01*
X182453216Y-89698456D01*
X182305646Y-89599853D01*
X182180147Y-89474354D01*
X182081544Y-89326784D01*
X182013624Y-89162812D01*
X181979000Y-88988741D01*
X181979000Y-88811259D01*
X182013624Y-88637188D01*
X182081544Y-88473216D01*
X182180147Y-88325646D01*
X182305646Y-88200147D01*
X182453216Y-88101544D01*
X182617188Y-88033624D01*
X182766488Y-88003927D01*
X182791258Y-87999000D01*
X182968742Y-87999000D01*
X182993512Y-88003927D01*
G37*
G36*
X122033512Y-88003927D02*
G01*
X122182812Y-88033624D01*
X122346784Y-88101544D01*
X122494354Y-88200147D01*
X122619853Y-88325646D01*
X122718456Y-88473216D01*
X122786376Y-88637188D01*
X122821000Y-88811259D01*
X122821000Y-88988741D01*
X122786376Y-89162812D01*
X122718456Y-89326784D01*
X122619853Y-89474354D01*
X122494354Y-89599853D01*
X122346784Y-89698456D01*
X122182812Y-89766376D01*
X122033512Y-89796073D01*
X122008742Y-89801000D01*
X121831258Y-89801000D01*
X121806488Y-89796073D01*
X121657188Y-89766376D01*
X121493216Y-89698456D01*
X121345646Y-89599853D01*
X121220147Y-89474354D01*
X121121544Y-89326784D01*
X121053624Y-89162812D01*
X121019000Y-88988741D01*
X121019000Y-88811259D01*
X121053624Y-88637188D01*
X121121544Y-88473216D01*
X121220147Y-88325646D01*
X121345646Y-88200147D01*
X121493216Y-88101544D01*
X121657188Y-88033624D01*
X121806488Y-88003927D01*
X121831258Y-87999000D01*
X122008742Y-87999000D01*
X122033512Y-88003927D01*
G37*
G36*
X119493512Y-88003927D02*
G01*
X119642812Y-88033624D01*
X119806784Y-88101544D01*
X119954354Y-88200147D01*
X120079853Y-88325646D01*
X120178456Y-88473216D01*
X120246376Y-88637188D01*
X120281000Y-88811259D01*
X120281000Y-88988741D01*
X120246376Y-89162812D01*
X120178456Y-89326784D01*
X120079853Y-89474354D01*
X119954354Y-89599853D01*
X119806784Y-89698456D01*
X119642812Y-89766376D01*
X119493512Y-89796073D01*
X119468742Y-89801000D01*
X119291258Y-89801000D01*
X119266488Y-89796073D01*
X119117188Y-89766376D01*
X118953216Y-89698456D01*
X118805646Y-89599853D01*
X118680147Y-89474354D01*
X118581544Y-89326784D01*
X118513624Y-89162812D01*
X118479000Y-88988741D01*
X118479000Y-88811259D01*
X118513624Y-88637188D01*
X118581544Y-88473216D01*
X118680147Y-88325646D01*
X118805646Y-88200147D01*
X118953216Y-88101544D01*
X119117188Y-88033624D01*
X119266488Y-88003927D01*
X119291258Y-87999000D01*
X119468742Y-87999000D01*
X119493512Y-88003927D01*
G37*
G36*
X180453512Y-88003927D02*
G01*
X180602812Y-88033624D01*
X180766784Y-88101544D01*
X180914354Y-88200147D01*
X181039853Y-88325646D01*
X181138456Y-88473216D01*
X181206376Y-88637188D01*
X181241000Y-88811259D01*
X181241000Y-88988741D01*
X181206376Y-89162812D01*
X181138456Y-89326784D01*
X181039853Y-89474354D01*
X180914354Y-89599853D01*
X180766784Y-89698456D01*
X180602812Y-89766376D01*
X180453512Y-89796073D01*
X180428742Y-89801000D01*
X180251258Y-89801000D01*
X180226488Y-89796073D01*
X180077188Y-89766376D01*
X179913216Y-89698456D01*
X179765646Y-89599853D01*
X179640147Y-89474354D01*
X179541544Y-89326784D01*
X179473624Y-89162812D01*
X179439000Y-88988741D01*
X179439000Y-88811259D01*
X179473624Y-88637188D01*
X179541544Y-88473216D01*
X179640147Y-88325646D01*
X179765646Y-88200147D01*
X179913216Y-88101544D01*
X180077188Y-88033624D01*
X180226488Y-88003927D01*
X180251258Y-87999000D01*
X180428742Y-87999000D01*
X180453512Y-88003927D01*
G37*
G36*
X175373512Y-88003927D02*
G01*
X175522812Y-88033624D01*
X175686784Y-88101544D01*
X175834354Y-88200147D01*
X175959853Y-88325646D01*
X176058456Y-88473216D01*
X176126376Y-88637188D01*
X176161000Y-88811259D01*
X176161000Y-88988741D01*
X176126376Y-89162812D01*
X176058456Y-89326784D01*
X175959853Y-89474354D01*
X175834354Y-89599853D01*
X175686784Y-89698456D01*
X175522812Y-89766376D01*
X175373512Y-89796073D01*
X175348742Y-89801000D01*
X175171258Y-89801000D01*
X175146488Y-89796073D01*
X174997188Y-89766376D01*
X174833216Y-89698456D01*
X174685646Y-89599853D01*
X174560147Y-89474354D01*
X174461544Y-89326784D01*
X174393624Y-89162812D01*
X174359000Y-88988741D01*
X174359000Y-88811259D01*
X174393624Y-88637188D01*
X174461544Y-88473216D01*
X174560147Y-88325646D01*
X174685646Y-88200147D01*
X174833216Y-88101544D01*
X174997188Y-88033624D01*
X175146488Y-88003927D01*
X175171258Y-87999000D01*
X175348742Y-87999000D01*
X175373512Y-88003927D01*
G37*
G36*
X162797142Y-88118242D02*
G01*
X162945101Y-88179529D01*
X163078255Y-88268499D01*
X163191501Y-88381745D01*
X163280471Y-88514899D01*
X163341758Y-88662858D01*
X163373000Y-88819925D01*
X163373000Y-88980075D01*
X163341758Y-89137142D01*
X163280471Y-89285101D01*
X163191501Y-89418255D01*
X163078255Y-89531501D01*
X162945101Y-89620471D01*
X162797142Y-89681758D01*
X162640075Y-89713000D01*
X162479925Y-89713000D01*
X162322858Y-89681758D01*
X162174899Y-89620471D01*
X162041745Y-89531501D01*
X161928499Y-89418255D01*
X161839529Y-89285101D01*
X161778242Y-89137142D01*
X161747000Y-88980075D01*
X161747000Y-88819925D01*
X161778242Y-88662858D01*
X161839529Y-88514899D01*
X161928499Y-88381745D01*
X162041745Y-88268499D01*
X162174899Y-88179529D01*
X162322858Y-88118242D01*
X162479925Y-88087000D01*
X162640075Y-88087000D01*
X162797142Y-88118242D01*
G37*
G36*
X139937142Y-88118242D02*
G01*
X140085101Y-88179529D01*
X140218255Y-88268499D01*
X140331501Y-88381745D01*
X140420471Y-88514899D01*
X140481758Y-88662858D01*
X140513000Y-88819925D01*
X140513000Y-88980075D01*
X140481758Y-89137142D01*
X140420471Y-89285101D01*
X140331501Y-89418255D01*
X140218255Y-89531501D01*
X140085101Y-89620471D01*
X139937142Y-89681758D01*
X139780075Y-89713000D01*
X139619925Y-89713000D01*
X139462858Y-89681758D01*
X139314899Y-89620471D01*
X139181745Y-89531501D01*
X139068499Y-89418255D01*
X138979529Y-89285101D01*
X138918242Y-89137142D01*
X138887000Y-88980075D01*
X138887000Y-88819925D01*
X138918242Y-88662858D01*
X138979529Y-88514899D01*
X139068499Y-88381745D01*
X139181745Y-88268499D01*
X139314899Y-88179529D01*
X139462858Y-88118242D01*
X139619925Y-88087000D01*
X139780075Y-88087000D01*
X139937142Y-88118242D01*
G37*
G36*
X182993512Y-85463927D02*
G01*
X183142812Y-85493624D01*
X183306784Y-85561544D01*
X183454354Y-85660147D01*
X183579853Y-85785646D01*
X183678456Y-85933216D01*
X183746376Y-86097188D01*
X183781000Y-86271259D01*
X183781000Y-86448741D01*
X183746376Y-86622812D01*
X183678456Y-86786784D01*
X183579853Y-86934354D01*
X183454354Y-87059853D01*
X183306784Y-87158456D01*
X183142812Y-87226376D01*
X182993512Y-87256073D01*
X182968742Y-87261000D01*
X182791258Y-87261000D01*
X182766488Y-87256073D01*
X182617188Y-87226376D01*
X182453216Y-87158456D01*
X182305646Y-87059853D01*
X182180147Y-86934354D01*
X182081544Y-86786784D01*
X182013624Y-86622812D01*
X181979000Y-86448741D01*
X181979000Y-86271259D01*
X182013624Y-86097188D01*
X182081544Y-85933216D01*
X182180147Y-85785646D01*
X182305646Y-85660147D01*
X182453216Y-85561544D01*
X182617188Y-85493624D01*
X182766488Y-85463927D01*
X182791258Y-85459000D01*
X182968742Y-85459000D01*
X182993512Y-85463927D01*
G37*
G36*
X180453512Y-85463927D02*
G01*
X180602812Y-85493624D01*
X180766784Y-85561544D01*
X180914354Y-85660147D01*
X181039853Y-85785646D01*
X181138456Y-85933216D01*
X181206376Y-86097188D01*
X181241000Y-86271259D01*
X181241000Y-86448741D01*
X181206376Y-86622812D01*
X181138456Y-86786784D01*
X181039853Y-86934354D01*
X180914354Y-87059853D01*
X180766784Y-87158456D01*
X180602812Y-87226376D01*
X180453512Y-87256073D01*
X180428742Y-87261000D01*
X180251258Y-87261000D01*
X180226488Y-87256073D01*
X180077188Y-87226376D01*
X179913216Y-87158456D01*
X179765646Y-87059853D01*
X179640147Y-86934354D01*
X179541544Y-86786784D01*
X179473624Y-86622812D01*
X179439000Y-86448741D01*
X179439000Y-86271259D01*
X179473624Y-86097188D01*
X179541544Y-85933216D01*
X179640147Y-85785646D01*
X179765646Y-85660147D01*
X179913216Y-85561544D01*
X180077188Y-85493624D01*
X180226488Y-85463927D01*
X180251258Y-85459000D01*
X180428742Y-85459000D01*
X180453512Y-85463927D01*
G37*
G36*
X127113512Y-85463927D02*
G01*
X127262812Y-85493624D01*
X127426784Y-85561544D01*
X127574354Y-85660147D01*
X127699853Y-85785646D01*
X127798456Y-85933216D01*
X127866376Y-86097188D01*
X127901000Y-86271259D01*
X127901000Y-86448741D01*
X127866376Y-86622812D01*
X127798456Y-86786784D01*
X127699853Y-86934354D01*
X127574354Y-87059853D01*
X127426784Y-87158456D01*
X127262812Y-87226376D01*
X127113512Y-87256073D01*
X127088742Y-87261000D01*
X126911258Y-87261000D01*
X126886488Y-87256073D01*
X126737188Y-87226376D01*
X126573216Y-87158456D01*
X126425646Y-87059853D01*
X126300147Y-86934354D01*
X126201544Y-86786784D01*
X126133624Y-86622812D01*
X126099000Y-86448741D01*
X126099000Y-86271259D01*
X126133624Y-86097188D01*
X126201544Y-85933216D01*
X126300147Y-85785646D01*
X126425646Y-85660147D01*
X126573216Y-85561544D01*
X126737188Y-85493624D01*
X126886488Y-85463927D01*
X126911258Y-85459000D01*
X127088742Y-85459000D01*
X127113512Y-85463927D01*
G37*
G36*
X122033512Y-85463927D02*
G01*
X122182812Y-85493624D01*
X122346784Y-85561544D01*
X122494354Y-85660147D01*
X122619853Y-85785646D01*
X122718456Y-85933216D01*
X122786376Y-86097188D01*
X122821000Y-86271259D01*
X122821000Y-86448741D01*
X122786376Y-86622812D01*
X122718456Y-86786784D01*
X122619853Y-86934354D01*
X122494354Y-87059853D01*
X122346784Y-87158456D01*
X122182812Y-87226376D01*
X122033512Y-87256073D01*
X122008742Y-87261000D01*
X121831258Y-87261000D01*
X121806488Y-87256073D01*
X121657188Y-87226376D01*
X121493216Y-87158456D01*
X121345646Y-87059853D01*
X121220147Y-86934354D01*
X121121544Y-86786784D01*
X121053624Y-86622812D01*
X121019000Y-86448741D01*
X121019000Y-86271259D01*
X121053624Y-86097188D01*
X121121544Y-85933216D01*
X121220147Y-85785646D01*
X121345646Y-85660147D01*
X121493216Y-85561544D01*
X121657188Y-85493624D01*
X121806488Y-85463927D01*
X121831258Y-85459000D01*
X122008742Y-85459000D01*
X122033512Y-85463927D01*
G37*
G36*
X119493512Y-85463927D02*
G01*
X119642812Y-85493624D01*
X119806784Y-85561544D01*
X119954354Y-85660147D01*
X120079853Y-85785646D01*
X120178456Y-85933216D01*
X120246376Y-86097188D01*
X120281000Y-86271259D01*
X120281000Y-86448741D01*
X120246376Y-86622812D01*
X120178456Y-86786784D01*
X120079853Y-86934354D01*
X119954354Y-87059853D01*
X119806784Y-87158456D01*
X119642812Y-87226376D01*
X119493512Y-87256073D01*
X119468742Y-87261000D01*
X119291258Y-87261000D01*
X119266488Y-87256073D01*
X119117188Y-87226376D01*
X118953216Y-87158456D01*
X118805646Y-87059853D01*
X118680147Y-86934354D01*
X118581544Y-86786784D01*
X118513624Y-86622812D01*
X118479000Y-86448741D01*
X118479000Y-86271259D01*
X118513624Y-86097188D01*
X118581544Y-85933216D01*
X118680147Y-85785646D01*
X118805646Y-85660147D01*
X118953216Y-85561544D01*
X119117188Y-85493624D01*
X119266488Y-85463927D01*
X119291258Y-85459000D01*
X119468742Y-85459000D01*
X119493512Y-85463927D01*
G37*
G36*
X162797142Y-85578242D02*
G01*
X162945101Y-85639529D01*
X163078255Y-85728499D01*
X163191501Y-85841745D01*
X163280471Y-85974899D01*
X163341758Y-86122858D01*
X163373000Y-86279925D01*
X163373000Y-86440075D01*
X163341758Y-86597142D01*
X163280471Y-86745101D01*
X163191501Y-86878255D01*
X163078255Y-86991501D01*
X162945101Y-87080471D01*
X162797142Y-87141758D01*
X162640075Y-87173000D01*
X162479925Y-87173000D01*
X162322858Y-87141758D01*
X162174899Y-87080471D01*
X162041745Y-86991501D01*
X161928499Y-86878255D01*
X161839529Y-86745101D01*
X161778242Y-86597142D01*
X161747000Y-86440075D01*
X161747000Y-86279925D01*
X161778242Y-86122858D01*
X161839529Y-85974899D01*
X161928499Y-85841745D01*
X162041745Y-85728499D01*
X162174899Y-85639529D01*
X162322858Y-85578242D01*
X162479925Y-85547000D01*
X162640075Y-85547000D01*
X162797142Y-85578242D01*
G37*
G36*
X139937142Y-85578242D02*
G01*
X140085101Y-85639529D01*
X140218255Y-85728499D01*
X140331501Y-85841745D01*
X140420471Y-85974899D01*
X140481758Y-86122858D01*
X140513000Y-86279925D01*
X140513000Y-86440075D01*
X140481758Y-86597142D01*
X140420471Y-86745101D01*
X140331501Y-86878255D01*
X140218255Y-86991501D01*
X140085101Y-87080471D01*
X139937142Y-87141758D01*
X139780075Y-87173000D01*
X139619925Y-87173000D01*
X139462858Y-87141758D01*
X139314899Y-87080471D01*
X139181745Y-86991501D01*
X139068499Y-86878255D01*
X138979529Y-86745101D01*
X138918242Y-86597142D01*
X138887000Y-86440075D01*
X138887000Y-86279925D01*
X138918242Y-86122858D01*
X138979529Y-85974899D01*
X139068499Y-85841745D01*
X139181745Y-85728499D01*
X139314899Y-85639529D01*
X139462858Y-85578242D01*
X139619925Y-85547000D01*
X139780075Y-85547000D01*
X139937142Y-85578242D01*
G37*
G36*
X176161000Y-85991000D02*
G01*
X174359000Y-85991000D01*
X174359000Y-84189000D01*
X176161000Y-84189000D01*
X176161000Y-85991000D01*
G37*
G36*
X182993512Y-82923927D02*
G01*
X183142812Y-82953624D01*
X183306784Y-83021544D01*
X183454354Y-83120147D01*
X183579853Y-83245646D01*
X183678456Y-83393216D01*
X183746376Y-83557188D01*
X183781000Y-83731259D01*
X183781000Y-83908741D01*
X183746376Y-84082812D01*
X183678456Y-84246784D01*
X183579853Y-84394354D01*
X183454354Y-84519853D01*
X183306784Y-84618456D01*
X183142812Y-84686376D01*
X182993512Y-84716073D01*
X182968742Y-84721000D01*
X182791258Y-84721000D01*
X182766488Y-84716073D01*
X182617188Y-84686376D01*
X182453216Y-84618456D01*
X182305646Y-84519853D01*
X182180147Y-84394354D01*
X182081544Y-84246784D01*
X182013624Y-84082812D01*
X181979000Y-83908741D01*
X181979000Y-83731259D01*
X182013624Y-83557188D01*
X182081544Y-83393216D01*
X182180147Y-83245646D01*
X182305646Y-83120147D01*
X182453216Y-83021544D01*
X182617188Y-82953624D01*
X182766488Y-82923927D01*
X182791258Y-82919000D01*
X182968742Y-82919000D01*
X182993512Y-82923927D01*
G37*
G36*
X180453512Y-82923927D02*
G01*
X180602812Y-82953624D01*
X180766784Y-83021544D01*
X180914354Y-83120147D01*
X181039853Y-83245646D01*
X181138456Y-83393216D01*
X181206376Y-83557188D01*
X181241000Y-83731259D01*
X181241000Y-83908741D01*
X181206376Y-84082812D01*
X181138456Y-84246784D01*
X181039853Y-84394354D01*
X180914354Y-84519853D01*
X180766784Y-84618456D01*
X180602812Y-84686376D01*
X180453512Y-84716073D01*
X180428742Y-84721000D01*
X180251258Y-84721000D01*
X180226488Y-84716073D01*
X180077188Y-84686376D01*
X179913216Y-84618456D01*
X179765646Y-84519853D01*
X179640147Y-84394354D01*
X179541544Y-84246784D01*
X179473624Y-84082812D01*
X179439000Y-83908741D01*
X179439000Y-83731259D01*
X179473624Y-83557188D01*
X179541544Y-83393216D01*
X179640147Y-83245646D01*
X179765646Y-83120147D01*
X179913216Y-83021544D01*
X180077188Y-82953624D01*
X180226488Y-82923927D01*
X180251258Y-82919000D01*
X180428742Y-82919000D01*
X180453512Y-82923927D01*
G37*
G36*
X127113512Y-82923927D02*
G01*
X127262812Y-82953624D01*
X127426784Y-83021544D01*
X127574354Y-83120147D01*
X127699853Y-83245646D01*
X127798456Y-83393216D01*
X127866376Y-83557188D01*
X127901000Y-83731259D01*
X127901000Y-83908741D01*
X127866376Y-84082812D01*
X127798456Y-84246784D01*
X127699853Y-84394354D01*
X127574354Y-84519853D01*
X127426784Y-84618456D01*
X127262812Y-84686376D01*
X127113512Y-84716073D01*
X127088742Y-84721000D01*
X126911258Y-84721000D01*
X126886488Y-84716073D01*
X126737188Y-84686376D01*
X126573216Y-84618456D01*
X126425646Y-84519853D01*
X126300147Y-84394354D01*
X126201544Y-84246784D01*
X126133624Y-84082812D01*
X126099000Y-83908741D01*
X126099000Y-83731259D01*
X126133624Y-83557188D01*
X126201544Y-83393216D01*
X126300147Y-83245646D01*
X126425646Y-83120147D01*
X126573216Y-83021544D01*
X126737188Y-82953624D01*
X126886488Y-82923927D01*
X126911258Y-82919000D01*
X127088742Y-82919000D01*
X127113512Y-82923927D01*
G37*
G36*
X122033512Y-82923927D02*
G01*
X122182812Y-82953624D01*
X122346784Y-83021544D01*
X122494354Y-83120147D01*
X122619853Y-83245646D01*
X122718456Y-83393216D01*
X122786376Y-83557188D01*
X122821000Y-83731259D01*
X122821000Y-83908741D01*
X122786376Y-84082812D01*
X122718456Y-84246784D01*
X122619853Y-84394354D01*
X122494354Y-84519853D01*
X122346784Y-84618456D01*
X122182812Y-84686376D01*
X122033512Y-84716073D01*
X122008742Y-84721000D01*
X121831258Y-84721000D01*
X121806488Y-84716073D01*
X121657188Y-84686376D01*
X121493216Y-84618456D01*
X121345646Y-84519853D01*
X121220147Y-84394354D01*
X121121544Y-84246784D01*
X121053624Y-84082812D01*
X121019000Y-83908741D01*
X121019000Y-83731259D01*
X121053624Y-83557188D01*
X121121544Y-83393216D01*
X121220147Y-83245646D01*
X121345646Y-83120147D01*
X121493216Y-83021544D01*
X121657188Y-82953624D01*
X121806488Y-82923927D01*
X121831258Y-82919000D01*
X122008742Y-82919000D01*
X122033512Y-82923927D01*
G37*
G36*
X119493512Y-82923927D02*
G01*
X119642812Y-82953624D01*
X119806784Y-83021544D01*
X119954354Y-83120147D01*
X120079853Y-83245646D01*
X120178456Y-83393216D01*
X120246376Y-83557188D01*
X120281000Y-83731259D01*
X120281000Y-83908741D01*
X120246376Y-84082812D01*
X120178456Y-84246784D01*
X120079853Y-84394354D01*
X119954354Y-84519853D01*
X119806784Y-84618456D01*
X119642812Y-84686376D01*
X119493512Y-84716073D01*
X119468742Y-84721000D01*
X119291258Y-84721000D01*
X119266488Y-84716073D01*
X119117188Y-84686376D01*
X118953216Y-84618456D01*
X118805646Y-84519853D01*
X118680147Y-84394354D01*
X118581544Y-84246784D01*
X118513624Y-84082812D01*
X118479000Y-83908741D01*
X118479000Y-83731259D01*
X118513624Y-83557188D01*
X118581544Y-83393216D01*
X118680147Y-83245646D01*
X118805646Y-83120147D01*
X118953216Y-83021544D01*
X119117188Y-82953624D01*
X119266488Y-82923927D01*
X119291258Y-82919000D01*
X119468742Y-82919000D01*
X119493512Y-82923927D01*
G37*
G36*
X139937142Y-83038242D02*
G01*
X140085101Y-83099529D01*
X140218255Y-83188499D01*
X140331501Y-83301745D01*
X140420471Y-83434899D01*
X140481758Y-83582858D01*
X140513000Y-83739925D01*
X140513000Y-83900075D01*
X140481758Y-84057142D01*
X140420471Y-84205101D01*
X140331501Y-84338255D01*
X140218255Y-84451501D01*
X140085101Y-84540471D01*
X139937142Y-84601758D01*
X139780075Y-84633000D01*
X139619925Y-84633000D01*
X139462858Y-84601758D01*
X139314899Y-84540471D01*
X139181745Y-84451501D01*
X139068499Y-84338255D01*
X138979529Y-84205101D01*
X138918242Y-84057142D01*
X138887000Y-83900075D01*
X138887000Y-83739925D01*
X138918242Y-83582858D01*
X138979529Y-83434899D01*
X139068499Y-83301745D01*
X139181745Y-83188499D01*
X139314899Y-83099529D01*
X139462858Y-83038242D01*
X139619925Y-83007000D01*
X139780075Y-83007000D01*
X139937142Y-83038242D01*
G37*
G36*
X162797142Y-83038242D02*
G01*
X162945101Y-83099529D01*
X163078255Y-83188499D01*
X163191501Y-83301745D01*
X163280471Y-83434899D01*
X163341758Y-83582858D01*
X163373000Y-83739925D01*
X163373000Y-83900075D01*
X163341758Y-84057142D01*
X163280471Y-84205101D01*
X163191501Y-84338255D01*
X163078255Y-84451501D01*
X162945101Y-84540471D01*
X162797142Y-84601758D01*
X162640075Y-84633000D01*
X162479925Y-84633000D01*
X162322858Y-84601758D01*
X162174899Y-84540471D01*
X162041745Y-84451501D01*
X161928499Y-84338255D01*
X161839529Y-84205101D01*
X161778242Y-84057142D01*
X161747000Y-83900075D01*
X161747000Y-83739925D01*
X161778242Y-83582858D01*
X161839529Y-83434899D01*
X161928499Y-83301745D01*
X162041745Y-83188499D01*
X162174899Y-83099529D01*
X162322858Y-83038242D01*
X162479925Y-83007000D01*
X162640075Y-83007000D01*
X162797142Y-83038242D01*
G37*
G36*
X175373512Y-81653927D02*
G01*
X175522812Y-81683624D01*
X175686784Y-81751544D01*
X175834354Y-81850147D01*
X175959853Y-81975646D01*
X176058456Y-82123216D01*
X176126376Y-82287188D01*
X176161000Y-82461259D01*
X176161000Y-82638741D01*
X176126376Y-82812812D01*
X176058456Y-82976784D01*
X175959853Y-83124354D01*
X175834354Y-83249853D01*
X175686784Y-83348456D01*
X175522812Y-83416376D01*
X175373512Y-83446073D01*
X175348742Y-83451000D01*
X175171258Y-83451000D01*
X175146488Y-83446073D01*
X174997188Y-83416376D01*
X174833216Y-83348456D01*
X174685646Y-83249853D01*
X174560147Y-83124354D01*
X174461544Y-82976784D01*
X174393624Y-82812812D01*
X174359000Y-82638741D01*
X174359000Y-82461259D01*
X174393624Y-82287188D01*
X174461544Y-82123216D01*
X174560147Y-81975646D01*
X174685646Y-81850147D01*
X174833216Y-81751544D01*
X174997188Y-81683624D01*
X175146488Y-81653927D01*
X175171258Y-81649000D01*
X175348742Y-81649000D01*
X175373512Y-81653927D01*
G37*
G36*
X182993512Y-80383927D02*
G01*
X183142812Y-80413624D01*
X183306784Y-80481544D01*
X183454354Y-80580147D01*
X183579853Y-80705646D01*
X183678456Y-80853216D01*
X183746376Y-81017188D01*
X183781000Y-81191259D01*
X183781000Y-81368741D01*
X183746376Y-81542812D01*
X183678456Y-81706784D01*
X183579853Y-81854354D01*
X183454354Y-81979853D01*
X183306784Y-82078456D01*
X183142812Y-82146376D01*
X182993512Y-82176073D01*
X182968742Y-82181000D01*
X182791258Y-82181000D01*
X182766488Y-82176073D01*
X182617188Y-82146376D01*
X182453216Y-82078456D01*
X182305646Y-81979853D01*
X182180147Y-81854354D01*
X182081544Y-81706784D01*
X182013624Y-81542812D01*
X181979000Y-81368741D01*
X181979000Y-81191259D01*
X182013624Y-81017188D01*
X182081544Y-80853216D01*
X182180147Y-80705646D01*
X182305646Y-80580147D01*
X182453216Y-80481544D01*
X182617188Y-80413624D01*
X182766488Y-80383927D01*
X182791258Y-80379000D01*
X182968742Y-80379000D01*
X182993512Y-80383927D01*
G37*
G36*
X122033512Y-80383927D02*
G01*
X122182812Y-80413624D01*
X122346784Y-80481544D01*
X122494354Y-80580147D01*
X122619853Y-80705646D01*
X122718456Y-80853216D01*
X122786376Y-81017188D01*
X122821000Y-81191259D01*
X122821000Y-81368741D01*
X122786376Y-81542812D01*
X122718456Y-81706784D01*
X122619853Y-81854354D01*
X122494354Y-81979853D01*
X122346784Y-82078456D01*
X122182812Y-82146376D01*
X122033512Y-82176073D01*
X122008742Y-82181000D01*
X121831258Y-82181000D01*
X121806488Y-82176073D01*
X121657188Y-82146376D01*
X121493216Y-82078456D01*
X121345646Y-81979853D01*
X121220147Y-81854354D01*
X121121544Y-81706784D01*
X121053624Y-81542812D01*
X121019000Y-81368741D01*
X121019000Y-81191259D01*
X121053624Y-81017188D01*
X121121544Y-80853216D01*
X121220147Y-80705646D01*
X121345646Y-80580147D01*
X121493216Y-80481544D01*
X121657188Y-80413624D01*
X121806488Y-80383927D01*
X121831258Y-80379000D01*
X122008742Y-80379000D01*
X122033512Y-80383927D01*
G37*
G36*
X119493512Y-80383927D02*
G01*
X119642812Y-80413624D01*
X119806784Y-80481544D01*
X119954354Y-80580147D01*
X120079853Y-80705646D01*
X120178456Y-80853216D01*
X120246376Y-81017188D01*
X120281000Y-81191259D01*
X120281000Y-81368741D01*
X120246376Y-81542812D01*
X120178456Y-81706784D01*
X120079853Y-81854354D01*
X119954354Y-81979853D01*
X119806784Y-82078456D01*
X119642812Y-82146376D01*
X119493512Y-82176073D01*
X119468742Y-82181000D01*
X119291258Y-82181000D01*
X119266488Y-82176073D01*
X119117188Y-82146376D01*
X118953216Y-82078456D01*
X118805646Y-81979853D01*
X118680147Y-81854354D01*
X118581544Y-81706784D01*
X118513624Y-81542812D01*
X118479000Y-81368741D01*
X118479000Y-81191259D01*
X118513624Y-81017188D01*
X118581544Y-80853216D01*
X118680147Y-80705646D01*
X118805646Y-80580147D01*
X118953216Y-80481544D01*
X119117188Y-80413624D01*
X119266488Y-80383927D01*
X119291258Y-80379000D01*
X119468742Y-80379000D01*
X119493512Y-80383927D01*
G37*
G36*
X180453512Y-80383927D02*
G01*
X180602812Y-80413624D01*
X180766784Y-80481544D01*
X180914354Y-80580147D01*
X181039853Y-80705646D01*
X181138456Y-80853216D01*
X181206376Y-81017188D01*
X181241000Y-81191259D01*
X181241000Y-81368741D01*
X181206376Y-81542812D01*
X181138456Y-81706784D01*
X181039853Y-81854354D01*
X180914354Y-81979853D01*
X180766784Y-82078456D01*
X180602812Y-82146376D01*
X180453512Y-82176073D01*
X180428742Y-82181000D01*
X180251258Y-82181000D01*
X180226488Y-82176073D01*
X180077188Y-82146376D01*
X179913216Y-82078456D01*
X179765646Y-81979853D01*
X179640147Y-81854354D01*
X179541544Y-81706784D01*
X179473624Y-81542812D01*
X179439000Y-81368741D01*
X179439000Y-81191259D01*
X179473624Y-81017188D01*
X179541544Y-80853216D01*
X179640147Y-80705646D01*
X179765646Y-80580147D01*
X179913216Y-80481544D01*
X180077188Y-80413624D01*
X180226488Y-80383927D01*
X180251258Y-80379000D01*
X180428742Y-80379000D01*
X180453512Y-80383927D01*
G37*
G36*
X127113512Y-80383927D02*
G01*
X127262812Y-80413624D01*
X127426784Y-80481544D01*
X127574354Y-80580147D01*
X127699853Y-80705646D01*
X127798456Y-80853216D01*
X127866376Y-81017188D01*
X127901000Y-81191259D01*
X127901000Y-81368741D01*
X127866376Y-81542812D01*
X127798456Y-81706784D01*
X127699853Y-81854354D01*
X127574354Y-81979853D01*
X127426784Y-82078456D01*
X127262812Y-82146376D01*
X127113512Y-82176073D01*
X127088742Y-82181000D01*
X126911258Y-82181000D01*
X126886488Y-82176073D01*
X126737188Y-82146376D01*
X126573216Y-82078456D01*
X126425646Y-81979853D01*
X126300147Y-81854354D01*
X126201544Y-81706784D01*
X126133624Y-81542812D01*
X126099000Y-81368741D01*
X126099000Y-81191259D01*
X126133624Y-81017188D01*
X126201544Y-80853216D01*
X126300147Y-80705646D01*
X126425646Y-80580147D01*
X126573216Y-80481544D01*
X126737188Y-80413624D01*
X126886488Y-80383927D01*
X126911258Y-80379000D01*
X127088742Y-80379000D01*
X127113512Y-80383927D01*
G37*
G36*
X133598228Y-80461703D02*
G01*
X133753100Y-80525853D01*
X133892481Y-80618985D01*
X134011015Y-80737519D01*
X134104147Y-80876900D01*
X134168297Y-81031772D01*
X134201000Y-81196184D01*
X134201000Y-81363816D01*
X134168297Y-81528228D01*
X134104147Y-81683100D01*
X134011015Y-81822481D01*
X133892481Y-81941015D01*
X133753100Y-82034147D01*
X133598228Y-82098297D01*
X133433816Y-82131000D01*
X133266184Y-82131000D01*
X133101772Y-82098297D01*
X132946900Y-82034147D01*
X132807519Y-81941015D01*
X132688985Y-81822481D01*
X132595853Y-81683100D01*
X132531703Y-81528228D01*
X132499000Y-81363816D01*
X132499000Y-81196184D01*
X132531703Y-81031772D01*
X132595853Y-80876900D01*
X132688985Y-80737519D01*
X132807519Y-80618985D01*
X132946900Y-80525853D01*
X133101772Y-80461703D01*
X133266184Y-80429000D01*
X133433816Y-80429000D01*
X133598228Y-80461703D01*
G37*
G36*
X139937142Y-80498242D02*
G01*
X140085101Y-80559529D01*
X140218255Y-80648499D01*
X140331501Y-80761745D01*
X140420471Y-80894899D01*
X140481758Y-81042858D01*
X140513000Y-81199925D01*
X140513000Y-81360075D01*
X140481758Y-81517142D01*
X140420471Y-81665101D01*
X140331501Y-81798255D01*
X140218255Y-81911501D01*
X140085101Y-82000471D01*
X139937142Y-82061758D01*
X139780075Y-82093000D01*
X139619925Y-82093000D01*
X139462858Y-82061758D01*
X139314899Y-82000471D01*
X139181745Y-81911501D01*
X139068499Y-81798255D01*
X138979529Y-81665101D01*
X138918242Y-81517142D01*
X138887000Y-81360075D01*
X138887000Y-81199925D01*
X138918242Y-81042858D01*
X138979529Y-80894899D01*
X139068499Y-80761745D01*
X139181745Y-80648499D01*
X139314899Y-80559529D01*
X139462858Y-80498242D01*
X139619925Y-80467000D01*
X139780075Y-80467000D01*
X139937142Y-80498242D01*
G37*
G36*
X162797142Y-80498242D02*
G01*
X162945101Y-80559529D01*
X163078255Y-80648499D01*
X163191501Y-80761745D01*
X163280471Y-80894899D01*
X163341758Y-81042858D01*
X163373000Y-81199925D01*
X163373000Y-81360075D01*
X163341758Y-81517142D01*
X163280471Y-81665101D01*
X163191501Y-81798255D01*
X163078255Y-81911501D01*
X162945101Y-82000471D01*
X162797142Y-82061758D01*
X162640075Y-82093000D01*
X162479925Y-82093000D01*
X162322858Y-82061758D01*
X162174899Y-82000471D01*
X162041745Y-81911501D01*
X161928499Y-81798255D01*
X161839529Y-81665101D01*
X161778242Y-81517142D01*
X161747000Y-81360075D01*
X161747000Y-81199925D01*
X161778242Y-81042858D01*
X161839529Y-80894899D01*
X161928499Y-80761745D01*
X162041745Y-80648499D01*
X162174899Y-80559529D01*
X162322858Y-80498242D01*
X162479925Y-80467000D01*
X162640075Y-80467000D01*
X162797142Y-80498242D01*
G37*
G36*
X175373512Y-79113927D02*
G01*
X175522812Y-79143624D01*
X175686784Y-79211544D01*
X175834354Y-79310147D01*
X175959853Y-79435646D01*
X176058456Y-79583216D01*
X176126376Y-79747188D01*
X176161000Y-79921259D01*
X176161000Y-80098741D01*
X176126376Y-80272812D01*
X176058456Y-80436784D01*
X175959853Y-80584354D01*
X175834354Y-80709853D01*
X175686784Y-80808456D01*
X175522812Y-80876376D01*
X175373512Y-80906073D01*
X175348742Y-80911000D01*
X175171258Y-80911000D01*
X175146488Y-80906073D01*
X174997188Y-80876376D01*
X174833216Y-80808456D01*
X174685646Y-80709853D01*
X174560147Y-80584354D01*
X174461544Y-80436784D01*
X174393624Y-80272812D01*
X174359000Y-80098741D01*
X174359000Y-79921259D01*
X174393624Y-79747188D01*
X174461544Y-79583216D01*
X174560147Y-79435646D01*
X174685646Y-79310147D01*
X174833216Y-79211544D01*
X174997188Y-79143624D01*
X175146488Y-79113927D01*
X175171258Y-79109000D01*
X175348742Y-79109000D01*
X175373512Y-79113927D01*
G37*
G36*
X122033512Y-77843927D02*
G01*
X122182812Y-77873624D01*
X122346784Y-77941544D01*
X122494354Y-78040147D01*
X122619853Y-78165646D01*
X122718456Y-78313216D01*
X122786376Y-78477188D01*
X122821000Y-78651259D01*
X122821000Y-78828741D01*
X122786376Y-79002812D01*
X122718456Y-79166784D01*
X122619853Y-79314354D01*
X122494354Y-79439853D01*
X122346784Y-79538456D01*
X122182812Y-79606376D01*
X122033512Y-79636073D01*
X122008742Y-79641000D01*
X121831258Y-79641000D01*
X121806488Y-79636073D01*
X121657188Y-79606376D01*
X121493216Y-79538456D01*
X121345646Y-79439853D01*
X121220147Y-79314354D01*
X121121544Y-79166784D01*
X121053624Y-79002812D01*
X121019000Y-78828741D01*
X121019000Y-78651259D01*
X121053624Y-78477188D01*
X121121544Y-78313216D01*
X121220147Y-78165646D01*
X121345646Y-78040147D01*
X121493216Y-77941544D01*
X121657188Y-77873624D01*
X121806488Y-77843927D01*
X121831258Y-77839000D01*
X122008742Y-77839000D01*
X122033512Y-77843927D01*
G37*
G36*
X119493512Y-77843927D02*
G01*
X119642812Y-77873624D01*
X119806784Y-77941544D01*
X119954354Y-78040147D01*
X120079853Y-78165646D01*
X120178456Y-78313216D01*
X120246376Y-78477188D01*
X120281000Y-78651259D01*
X120281000Y-78828741D01*
X120246376Y-79002812D01*
X120178456Y-79166784D01*
X120079853Y-79314354D01*
X119954354Y-79439853D01*
X119806784Y-79538456D01*
X119642812Y-79606376D01*
X119493512Y-79636073D01*
X119468742Y-79641000D01*
X119291258Y-79641000D01*
X119266488Y-79636073D01*
X119117188Y-79606376D01*
X118953216Y-79538456D01*
X118805646Y-79439853D01*
X118680147Y-79314354D01*
X118581544Y-79166784D01*
X118513624Y-79002812D01*
X118479000Y-78828741D01*
X118479000Y-78651259D01*
X118513624Y-78477188D01*
X118581544Y-78313216D01*
X118680147Y-78165646D01*
X118805646Y-78040147D01*
X118953216Y-77941544D01*
X119117188Y-77873624D01*
X119266488Y-77843927D01*
X119291258Y-77839000D01*
X119468742Y-77839000D01*
X119493512Y-77843927D01*
G37*
G36*
X127113512Y-77843927D02*
G01*
X127262812Y-77873624D01*
X127426784Y-77941544D01*
X127574354Y-78040147D01*
X127699853Y-78165646D01*
X127798456Y-78313216D01*
X127866376Y-78477188D01*
X127901000Y-78651259D01*
X127901000Y-78828741D01*
X127866376Y-79002812D01*
X127798456Y-79166784D01*
X127699853Y-79314354D01*
X127574354Y-79439853D01*
X127426784Y-79538456D01*
X127262812Y-79606376D01*
X127113512Y-79636073D01*
X127088742Y-79641000D01*
X126911258Y-79641000D01*
X126886488Y-79636073D01*
X126737188Y-79606376D01*
X126573216Y-79538456D01*
X126425646Y-79439853D01*
X126300147Y-79314354D01*
X126201544Y-79166784D01*
X126133624Y-79002812D01*
X126099000Y-78828741D01*
X126099000Y-78651259D01*
X126133624Y-78477188D01*
X126201544Y-78313216D01*
X126300147Y-78165646D01*
X126425646Y-78040147D01*
X126573216Y-77941544D01*
X126737188Y-77873624D01*
X126886488Y-77843927D01*
X126911258Y-77839000D01*
X127088742Y-77839000D01*
X127113512Y-77843927D01*
G37*
G36*
X180453512Y-77843927D02*
G01*
X180602812Y-77873624D01*
X180766784Y-77941544D01*
X180914354Y-78040147D01*
X181039853Y-78165646D01*
X181138456Y-78313216D01*
X181206376Y-78477188D01*
X181241000Y-78651259D01*
X181241000Y-78828741D01*
X181206376Y-79002812D01*
X181138456Y-79166784D01*
X181039853Y-79314354D01*
X180914354Y-79439853D01*
X180766784Y-79538456D01*
X180602812Y-79606376D01*
X180453512Y-79636073D01*
X180428742Y-79641000D01*
X180251258Y-79641000D01*
X180226488Y-79636073D01*
X180077188Y-79606376D01*
X179913216Y-79538456D01*
X179765646Y-79439853D01*
X179640147Y-79314354D01*
X179541544Y-79166784D01*
X179473624Y-79002812D01*
X179439000Y-78828741D01*
X179439000Y-78651259D01*
X179473624Y-78477188D01*
X179541544Y-78313216D01*
X179640147Y-78165646D01*
X179765646Y-78040147D01*
X179913216Y-77941544D01*
X180077188Y-77873624D01*
X180226488Y-77843927D01*
X180251258Y-77839000D01*
X180428742Y-77839000D01*
X180453512Y-77843927D01*
G37*
G36*
X182993512Y-77843927D02*
G01*
X183142812Y-77873624D01*
X183306784Y-77941544D01*
X183454354Y-78040147D01*
X183579853Y-78165646D01*
X183678456Y-78313216D01*
X183746376Y-78477188D01*
X183781000Y-78651259D01*
X183781000Y-78828741D01*
X183746376Y-79002812D01*
X183678456Y-79166784D01*
X183579853Y-79314354D01*
X183454354Y-79439853D01*
X183306784Y-79538456D01*
X183142812Y-79606376D01*
X182993512Y-79636073D01*
X182968742Y-79641000D01*
X182791258Y-79641000D01*
X182766488Y-79636073D01*
X182617188Y-79606376D01*
X182453216Y-79538456D01*
X182305646Y-79439853D01*
X182180147Y-79314354D01*
X182081544Y-79166784D01*
X182013624Y-79002812D01*
X181979000Y-78828741D01*
X181979000Y-78651259D01*
X182013624Y-78477188D01*
X182081544Y-78313216D01*
X182180147Y-78165646D01*
X182305646Y-78040147D01*
X182453216Y-77941544D01*
X182617188Y-77873624D01*
X182766488Y-77843927D01*
X182791258Y-77839000D01*
X182968742Y-77839000D01*
X182993512Y-77843927D01*
G37*
G36*
X162797142Y-77958242D02*
G01*
X162945101Y-78019529D01*
X163078255Y-78108499D01*
X163191501Y-78221745D01*
X163280471Y-78354899D01*
X163341758Y-78502858D01*
X163373000Y-78659925D01*
X163373000Y-78820075D01*
X163341758Y-78977142D01*
X163280471Y-79125101D01*
X163191501Y-79258255D01*
X163078255Y-79371501D01*
X162945101Y-79460471D01*
X162797142Y-79521758D01*
X162640075Y-79553000D01*
X162479925Y-79553000D01*
X162322858Y-79521758D01*
X162174899Y-79460471D01*
X162041745Y-79371501D01*
X161928499Y-79258255D01*
X161839529Y-79125101D01*
X161778242Y-78977142D01*
X161747000Y-78820075D01*
X161747000Y-78659925D01*
X161778242Y-78502858D01*
X161839529Y-78354899D01*
X161928499Y-78221745D01*
X162041745Y-78108499D01*
X162174899Y-78019529D01*
X162322858Y-77958242D01*
X162479925Y-77927000D01*
X162640075Y-77927000D01*
X162797142Y-77958242D01*
G37*
G36*
X175373512Y-76573927D02*
G01*
X175522812Y-76603624D01*
X175686784Y-76671544D01*
X175834354Y-76770147D01*
X175959853Y-76895646D01*
X176058456Y-77043216D01*
X176126376Y-77207188D01*
X176161000Y-77381259D01*
X176161000Y-77558741D01*
X176126376Y-77732812D01*
X176058456Y-77896784D01*
X175959853Y-78044354D01*
X175834354Y-78169853D01*
X175686784Y-78268456D01*
X175522812Y-78336376D01*
X175373512Y-78366073D01*
X175348742Y-78371000D01*
X175171258Y-78371000D01*
X175146488Y-78366073D01*
X174997188Y-78336376D01*
X174833216Y-78268456D01*
X174685646Y-78169853D01*
X174560147Y-78044354D01*
X174461544Y-77896784D01*
X174393624Y-77732812D01*
X174359000Y-77558741D01*
X174359000Y-77381259D01*
X174393624Y-77207188D01*
X174461544Y-77043216D01*
X174560147Y-76895646D01*
X174685646Y-76770147D01*
X174833216Y-76671544D01*
X174997188Y-76603624D01*
X175146488Y-76573927D01*
X175171258Y-76569000D01*
X175348742Y-76569000D01*
X175373512Y-76573927D01*
G37*
G36*
X180453512Y-75303927D02*
G01*
X180602812Y-75333624D01*
X180766784Y-75401544D01*
X180914354Y-75500147D01*
X181039853Y-75625646D01*
X181138456Y-75773216D01*
X181206376Y-75937188D01*
X181241000Y-76111259D01*
X181241000Y-76288741D01*
X181206376Y-76462812D01*
X181138456Y-76626784D01*
X181039853Y-76774354D01*
X180914354Y-76899853D01*
X180766784Y-76998456D01*
X180602812Y-77066376D01*
X180453512Y-77096073D01*
X180428742Y-77101000D01*
X180251258Y-77101000D01*
X180226488Y-77096073D01*
X180077188Y-77066376D01*
X179913216Y-76998456D01*
X179765646Y-76899853D01*
X179640147Y-76774354D01*
X179541544Y-76626784D01*
X179473624Y-76462812D01*
X179439000Y-76288741D01*
X179439000Y-76111259D01*
X179473624Y-75937188D01*
X179541544Y-75773216D01*
X179640147Y-75625646D01*
X179765646Y-75500147D01*
X179913216Y-75401544D01*
X180077188Y-75333624D01*
X180226488Y-75303927D01*
X180251258Y-75299000D01*
X180428742Y-75299000D01*
X180453512Y-75303927D01*
G37*
G36*
X127113512Y-75303927D02*
G01*
X127262812Y-75333624D01*
X127426784Y-75401544D01*
X127574354Y-75500147D01*
X127699853Y-75625646D01*
X127798456Y-75773216D01*
X127866376Y-75937188D01*
X127901000Y-76111259D01*
X127901000Y-76288741D01*
X127866376Y-76462812D01*
X127798456Y-76626784D01*
X127699853Y-76774354D01*
X127574354Y-76899853D01*
X127426784Y-76998456D01*
X127262812Y-77066376D01*
X127113512Y-77096073D01*
X127088742Y-77101000D01*
X126911258Y-77101000D01*
X126886488Y-77096073D01*
X126737188Y-77066376D01*
X126573216Y-76998456D01*
X126425646Y-76899853D01*
X126300147Y-76774354D01*
X126201544Y-76626784D01*
X126133624Y-76462812D01*
X126099000Y-76288741D01*
X126099000Y-76111259D01*
X126133624Y-75937188D01*
X126201544Y-75773216D01*
X126300147Y-75625646D01*
X126425646Y-75500147D01*
X126573216Y-75401544D01*
X126737188Y-75333624D01*
X126886488Y-75303927D01*
X126911258Y-75299000D01*
X127088742Y-75299000D01*
X127113512Y-75303927D01*
G37*
G36*
X182993512Y-75303927D02*
G01*
X183142812Y-75333624D01*
X183306784Y-75401544D01*
X183454354Y-75500147D01*
X183579853Y-75625646D01*
X183678456Y-75773216D01*
X183746376Y-75937188D01*
X183781000Y-76111259D01*
X183781000Y-76288741D01*
X183746376Y-76462812D01*
X183678456Y-76626784D01*
X183579853Y-76774354D01*
X183454354Y-76899853D01*
X183306784Y-76998456D01*
X183142812Y-77066376D01*
X182993512Y-77096073D01*
X182968742Y-77101000D01*
X182791258Y-77101000D01*
X182766488Y-77096073D01*
X182617188Y-77066376D01*
X182453216Y-76998456D01*
X182305646Y-76899853D01*
X182180147Y-76774354D01*
X182081544Y-76626784D01*
X182013624Y-76462812D01*
X181979000Y-76288741D01*
X181979000Y-76111259D01*
X182013624Y-75937188D01*
X182081544Y-75773216D01*
X182180147Y-75625646D01*
X182305646Y-75500147D01*
X182453216Y-75401544D01*
X182617188Y-75333624D01*
X182766488Y-75303927D01*
X182791258Y-75299000D01*
X182968742Y-75299000D01*
X182993512Y-75303927D01*
G37*
G36*
X122033512Y-75303927D02*
G01*
X122182812Y-75333624D01*
X122346784Y-75401544D01*
X122494354Y-75500147D01*
X122619853Y-75625646D01*
X122718456Y-75773216D01*
X122786376Y-75937188D01*
X122821000Y-76111259D01*
X122821000Y-76288741D01*
X122786376Y-76462812D01*
X122718456Y-76626784D01*
X122619853Y-76774354D01*
X122494354Y-76899853D01*
X122346784Y-76998456D01*
X122182812Y-77066376D01*
X122033512Y-77096073D01*
X122008742Y-77101000D01*
X121831258Y-77101000D01*
X121806488Y-77096073D01*
X121657188Y-77066376D01*
X121493216Y-76998456D01*
X121345646Y-76899853D01*
X121220147Y-76774354D01*
X121121544Y-76626784D01*
X121053624Y-76462812D01*
X121019000Y-76288741D01*
X121019000Y-76111259D01*
X121053624Y-75937188D01*
X121121544Y-75773216D01*
X121220147Y-75625646D01*
X121345646Y-75500147D01*
X121493216Y-75401544D01*
X121657188Y-75333624D01*
X121806488Y-75303927D01*
X121831258Y-75299000D01*
X122008742Y-75299000D01*
X122033512Y-75303927D01*
G37*
G36*
X119493512Y-75303927D02*
G01*
X119642812Y-75333624D01*
X119806784Y-75401544D01*
X119954354Y-75500147D01*
X120079853Y-75625646D01*
X120178456Y-75773216D01*
X120246376Y-75937188D01*
X120281000Y-76111259D01*
X120281000Y-76288741D01*
X120246376Y-76462812D01*
X120178456Y-76626784D01*
X120079853Y-76774354D01*
X119954354Y-76899853D01*
X119806784Y-76998456D01*
X119642812Y-77066376D01*
X119493512Y-77096073D01*
X119468742Y-77101000D01*
X119291258Y-77101000D01*
X119266488Y-77096073D01*
X119117188Y-77066376D01*
X118953216Y-76998456D01*
X118805646Y-76899853D01*
X118680147Y-76774354D01*
X118581544Y-76626784D01*
X118513624Y-76462812D01*
X118479000Y-76288741D01*
X118479000Y-76111259D01*
X118513624Y-75937188D01*
X118581544Y-75773216D01*
X118680147Y-75625646D01*
X118805646Y-75500147D01*
X118953216Y-75401544D01*
X119117188Y-75333624D01*
X119266488Y-75303927D01*
X119291258Y-75299000D01*
X119468742Y-75299000D01*
X119493512Y-75303927D01*
G37*
G36*
X162797142Y-75418242D02*
G01*
X162945101Y-75479529D01*
X163078255Y-75568499D01*
X163191501Y-75681745D01*
X163280471Y-75814899D01*
X163341758Y-75962858D01*
X163373000Y-76119925D01*
X163373000Y-76280075D01*
X163341758Y-76437142D01*
X163280471Y-76585101D01*
X163191501Y-76718255D01*
X163078255Y-76831501D01*
X162945101Y-76920471D01*
X162797142Y-76981758D01*
X162640075Y-77013000D01*
X162479925Y-77013000D01*
X162322858Y-76981758D01*
X162174899Y-76920471D01*
X162041745Y-76831501D01*
X161928499Y-76718255D01*
X161839529Y-76585101D01*
X161778242Y-76437142D01*
X161747000Y-76280075D01*
X161747000Y-76119925D01*
X161778242Y-75962858D01*
X161839529Y-75814899D01*
X161928499Y-75681745D01*
X162041745Y-75568499D01*
X162174899Y-75479529D01*
X162322858Y-75418242D01*
X162479925Y-75387000D01*
X162640075Y-75387000D01*
X162797142Y-75418242D01*
G37*
G36*
X175373512Y-74033927D02*
G01*
X175522812Y-74063624D01*
X175686784Y-74131544D01*
X175834354Y-74230147D01*
X175959853Y-74355646D01*
X176058456Y-74503216D01*
X176126376Y-74667188D01*
X176161000Y-74841259D01*
X176161000Y-75018741D01*
X176126376Y-75192812D01*
X176058456Y-75356784D01*
X175959853Y-75504354D01*
X175834354Y-75629853D01*
X175686784Y-75728456D01*
X175522812Y-75796376D01*
X175373512Y-75826073D01*
X175348742Y-75831000D01*
X175171258Y-75831000D01*
X175146488Y-75826073D01*
X174997188Y-75796376D01*
X174833216Y-75728456D01*
X174685646Y-75629853D01*
X174560147Y-75504354D01*
X174461544Y-75356784D01*
X174393624Y-75192812D01*
X174359000Y-75018741D01*
X174359000Y-74841259D01*
X174393624Y-74667188D01*
X174461544Y-74503216D01*
X174560147Y-74355646D01*
X174685646Y-74230147D01*
X174833216Y-74131544D01*
X174997188Y-74063624D01*
X175146488Y-74033927D01*
X175171258Y-74029000D01*
X175348742Y-74029000D01*
X175373512Y-74033927D01*
G37*
G36*
X122033512Y-72763927D02*
G01*
X122182812Y-72793624D01*
X122346784Y-72861544D01*
X122494354Y-72960147D01*
X122619853Y-73085646D01*
X122718456Y-73233216D01*
X122786376Y-73397188D01*
X122821000Y-73571259D01*
X122821000Y-73748741D01*
X122786376Y-73922812D01*
X122718456Y-74086784D01*
X122619853Y-74234354D01*
X122494354Y-74359853D01*
X122346784Y-74458456D01*
X122182812Y-74526376D01*
X122033512Y-74556073D01*
X122008742Y-74561000D01*
X121831258Y-74561000D01*
X121806488Y-74556073D01*
X121657188Y-74526376D01*
X121493216Y-74458456D01*
X121345646Y-74359853D01*
X121220147Y-74234354D01*
X121121544Y-74086784D01*
X121053624Y-73922812D01*
X121019000Y-73748741D01*
X121019000Y-73571259D01*
X121053624Y-73397188D01*
X121121544Y-73233216D01*
X121220147Y-73085646D01*
X121345646Y-72960147D01*
X121493216Y-72861544D01*
X121657188Y-72793624D01*
X121806488Y-72763927D01*
X121831258Y-72759000D01*
X122008742Y-72759000D01*
X122033512Y-72763927D01*
G37*
G36*
X119493512Y-72763927D02*
G01*
X119642812Y-72793624D01*
X119806784Y-72861544D01*
X119954354Y-72960147D01*
X120079853Y-73085646D01*
X120178456Y-73233216D01*
X120246376Y-73397188D01*
X120281000Y-73571259D01*
X120281000Y-73748741D01*
X120246376Y-73922812D01*
X120178456Y-74086784D01*
X120079853Y-74234354D01*
X119954354Y-74359853D01*
X119806784Y-74458456D01*
X119642812Y-74526376D01*
X119493512Y-74556073D01*
X119468742Y-74561000D01*
X119291258Y-74561000D01*
X119266488Y-74556073D01*
X119117188Y-74526376D01*
X118953216Y-74458456D01*
X118805646Y-74359853D01*
X118680147Y-74234354D01*
X118581544Y-74086784D01*
X118513624Y-73922812D01*
X118479000Y-73748741D01*
X118479000Y-73571259D01*
X118513624Y-73397188D01*
X118581544Y-73233216D01*
X118680147Y-73085646D01*
X118805646Y-72960147D01*
X118953216Y-72861544D01*
X119117188Y-72793624D01*
X119266488Y-72763927D01*
X119291258Y-72759000D01*
X119468742Y-72759000D01*
X119493512Y-72763927D01*
G37*
G36*
X127113512Y-72763927D02*
G01*
X127262812Y-72793624D01*
X127426784Y-72861544D01*
X127574354Y-72960147D01*
X127699853Y-73085646D01*
X127798456Y-73233216D01*
X127866376Y-73397188D01*
X127901000Y-73571259D01*
X127901000Y-73748741D01*
X127866376Y-73922812D01*
X127798456Y-74086784D01*
X127699853Y-74234354D01*
X127574354Y-74359853D01*
X127426784Y-74458456D01*
X127262812Y-74526376D01*
X127113512Y-74556073D01*
X127088742Y-74561000D01*
X126911258Y-74561000D01*
X126886488Y-74556073D01*
X126737188Y-74526376D01*
X126573216Y-74458456D01*
X126425646Y-74359853D01*
X126300147Y-74234354D01*
X126201544Y-74086784D01*
X126133624Y-73922812D01*
X126099000Y-73748741D01*
X126099000Y-73571259D01*
X126133624Y-73397188D01*
X126201544Y-73233216D01*
X126300147Y-73085646D01*
X126425646Y-72960147D01*
X126573216Y-72861544D01*
X126737188Y-72793624D01*
X126886488Y-72763927D01*
X126911258Y-72759000D01*
X127088742Y-72759000D01*
X127113512Y-72763927D01*
G37*
G36*
X180453512Y-72763927D02*
G01*
X180602812Y-72793624D01*
X180766784Y-72861544D01*
X180914354Y-72960147D01*
X181039853Y-73085646D01*
X181138456Y-73233216D01*
X181206376Y-73397188D01*
X181241000Y-73571259D01*
X181241000Y-73748741D01*
X181206376Y-73922812D01*
X181138456Y-74086784D01*
X181039853Y-74234354D01*
X180914354Y-74359853D01*
X180766784Y-74458456D01*
X180602812Y-74526376D01*
X180453512Y-74556073D01*
X180428742Y-74561000D01*
X180251258Y-74561000D01*
X180226488Y-74556073D01*
X180077188Y-74526376D01*
X179913216Y-74458456D01*
X179765646Y-74359853D01*
X179640147Y-74234354D01*
X179541544Y-74086784D01*
X179473624Y-73922812D01*
X179439000Y-73748741D01*
X179439000Y-73571259D01*
X179473624Y-73397188D01*
X179541544Y-73233216D01*
X179640147Y-73085646D01*
X179765646Y-72960147D01*
X179913216Y-72861544D01*
X180077188Y-72793624D01*
X180226488Y-72763927D01*
X180251258Y-72759000D01*
X180428742Y-72759000D01*
X180453512Y-72763927D01*
G37*
G36*
X182993512Y-72763927D02*
G01*
X183142812Y-72793624D01*
X183306784Y-72861544D01*
X183454354Y-72960147D01*
X183579853Y-73085646D01*
X183678456Y-73233216D01*
X183746376Y-73397188D01*
X183781000Y-73571259D01*
X183781000Y-73748741D01*
X183746376Y-73922812D01*
X183678456Y-74086784D01*
X183579853Y-74234354D01*
X183454354Y-74359853D01*
X183306784Y-74458456D01*
X183142812Y-74526376D01*
X182993512Y-74556073D01*
X182968742Y-74561000D01*
X182791258Y-74561000D01*
X182766488Y-74556073D01*
X182617188Y-74526376D01*
X182453216Y-74458456D01*
X182305646Y-74359853D01*
X182180147Y-74234354D01*
X182081544Y-74086784D01*
X182013624Y-73922812D01*
X181979000Y-73748741D01*
X181979000Y-73571259D01*
X182013624Y-73397188D01*
X182081544Y-73233216D01*
X182180147Y-73085646D01*
X182305646Y-72960147D01*
X182453216Y-72861544D01*
X182617188Y-72793624D01*
X182766488Y-72763927D01*
X182791258Y-72759000D01*
X182968742Y-72759000D01*
X182993512Y-72763927D01*
G37*
G36*
X162797142Y-72878242D02*
G01*
X162945101Y-72939529D01*
X163078255Y-73028499D01*
X163191501Y-73141745D01*
X163280471Y-73274899D01*
X163341758Y-73422858D01*
X163373000Y-73579925D01*
X163373000Y-73740075D01*
X163341758Y-73897142D01*
X163280471Y-74045101D01*
X163191501Y-74178255D01*
X163078255Y-74291501D01*
X162945101Y-74380471D01*
X162797142Y-74441758D01*
X162640075Y-74473000D01*
X162479925Y-74473000D01*
X162322858Y-74441758D01*
X162174899Y-74380471D01*
X162041745Y-74291501D01*
X161928499Y-74178255D01*
X161839529Y-74045101D01*
X161778242Y-73897142D01*
X161747000Y-73740075D01*
X161747000Y-73579925D01*
X161778242Y-73422858D01*
X161839529Y-73274899D01*
X161928499Y-73141745D01*
X162041745Y-73028499D01*
X162174899Y-72939529D01*
X162322858Y-72878242D01*
X162479925Y-72847000D01*
X162640075Y-72847000D01*
X162797142Y-72878242D01*
G37*
G36*
X175373512Y-71493927D02*
G01*
X175522812Y-71523624D01*
X175686784Y-71591544D01*
X175834354Y-71690147D01*
X175959853Y-71815646D01*
X176058456Y-71963216D01*
X176126376Y-72127188D01*
X176161000Y-72301259D01*
X176161000Y-72478741D01*
X176126376Y-72652812D01*
X176058456Y-72816784D01*
X175959853Y-72964354D01*
X175834354Y-73089853D01*
X175686784Y-73188456D01*
X175522812Y-73256376D01*
X175373512Y-73286073D01*
X175348742Y-73291000D01*
X175171258Y-73291000D01*
X175146488Y-73286073D01*
X174997188Y-73256376D01*
X174833216Y-73188456D01*
X174685646Y-73089853D01*
X174560147Y-72964354D01*
X174461544Y-72816784D01*
X174393624Y-72652812D01*
X174359000Y-72478741D01*
X174359000Y-72301259D01*
X174393624Y-72127188D01*
X174461544Y-71963216D01*
X174560147Y-71815646D01*
X174685646Y-71690147D01*
X174833216Y-71591544D01*
X174997188Y-71523624D01*
X175146488Y-71493927D01*
X175171258Y-71489000D01*
X175348742Y-71489000D01*
X175373512Y-71493927D01*
G37*
G36*
X122033512Y-70223927D02*
G01*
X122182812Y-70253624D01*
X122346784Y-70321544D01*
X122494354Y-70420147D01*
X122619853Y-70545646D01*
X122718456Y-70693216D01*
X122786376Y-70857188D01*
X122821000Y-71031259D01*
X122821000Y-71208741D01*
X122786376Y-71382812D01*
X122718456Y-71546784D01*
X122619853Y-71694354D01*
X122494354Y-71819853D01*
X122346784Y-71918456D01*
X122182812Y-71986376D01*
X122033512Y-72016073D01*
X122008742Y-72021000D01*
X121831258Y-72021000D01*
X121806488Y-72016073D01*
X121657188Y-71986376D01*
X121493216Y-71918456D01*
X121345646Y-71819853D01*
X121220147Y-71694354D01*
X121121544Y-71546784D01*
X121053624Y-71382812D01*
X121019000Y-71208741D01*
X121019000Y-71031259D01*
X121053624Y-70857188D01*
X121121544Y-70693216D01*
X121220147Y-70545646D01*
X121345646Y-70420147D01*
X121493216Y-70321544D01*
X121657188Y-70253624D01*
X121806488Y-70223927D01*
X121831258Y-70219000D01*
X122008742Y-70219000D01*
X122033512Y-70223927D01*
G37*
G36*
X119493512Y-70223927D02*
G01*
X119642812Y-70253624D01*
X119806784Y-70321544D01*
X119954354Y-70420147D01*
X120079853Y-70545646D01*
X120178456Y-70693216D01*
X120246376Y-70857188D01*
X120281000Y-71031259D01*
X120281000Y-71208741D01*
X120246376Y-71382812D01*
X120178456Y-71546784D01*
X120079853Y-71694354D01*
X119954354Y-71819853D01*
X119806784Y-71918456D01*
X119642812Y-71986376D01*
X119493512Y-72016073D01*
X119468742Y-72021000D01*
X119291258Y-72021000D01*
X119266488Y-72016073D01*
X119117188Y-71986376D01*
X118953216Y-71918456D01*
X118805646Y-71819853D01*
X118680147Y-71694354D01*
X118581544Y-71546784D01*
X118513624Y-71382812D01*
X118479000Y-71208741D01*
X118479000Y-71031259D01*
X118513624Y-70857188D01*
X118581544Y-70693216D01*
X118680147Y-70545646D01*
X118805646Y-70420147D01*
X118953216Y-70321544D01*
X119117188Y-70253624D01*
X119266488Y-70223927D01*
X119291258Y-70219000D01*
X119468742Y-70219000D01*
X119493512Y-70223927D01*
G37*
G36*
X127901000Y-72021000D02*
G01*
X126099000Y-72021000D01*
X126099000Y-70219000D01*
X127901000Y-70219000D01*
X127901000Y-72021000D01*
G37*
G36*
X180453512Y-70223927D02*
G01*
X180602812Y-70253624D01*
X180766784Y-70321544D01*
X180914354Y-70420147D01*
X181039853Y-70545646D01*
X181138456Y-70693216D01*
X181206376Y-70857188D01*
X181241000Y-71031259D01*
X181241000Y-71208741D01*
X181206376Y-71382812D01*
X181138456Y-71546784D01*
X181039853Y-71694354D01*
X180914354Y-71819853D01*
X180766784Y-71918456D01*
X180602812Y-71986376D01*
X180453512Y-72016073D01*
X180428742Y-72021000D01*
X180251258Y-72021000D01*
X180226488Y-72016073D01*
X180077188Y-71986376D01*
X179913216Y-71918456D01*
X179765646Y-71819853D01*
X179640147Y-71694354D01*
X179541544Y-71546784D01*
X179473624Y-71382812D01*
X179439000Y-71208741D01*
X179439000Y-71031259D01*
X179473624Y-70857188D01*
X179541544Y-70693216D01*
X179640147Y-70545646D01*
X179765646Y-70420147D01*
X179913216Y-70321544D01*
X180077188Y-70253624D01*
X180226488Y-70223927D01*
X180251258Y-70219000D01*
X180428742Y-70219000D01*
X180453512Y-70223927D01*
G37*
G36*
X182993512Y-70223927D02*
G01*
X183142812Y-70253624D01*
X183306784Y-70321544D01*
X183454354Y-70420147D01*
X183579853Y-70545646D01*
X183678456Y-70693216D01*
X183746376Y-70857188D01*
X183781000Y-71031259D01*
X183781000Y-71208741D01*
X183746376Y-71382812D01*
X183678456Y-71546784D01*
X183579853Y-71694354D01*
X183454354Y-71819853D01*
X183306784Y-71918456D01*
X183142812Y-71986376D01*
X182993512Y-72016073D01*
X182968742Y-72021000D01*
X182791258Y-72021000D01*
X182766488Y-72016073D01*
X182617188Y-71986376D01*
X182453216Y-71918456D01*
X182305646Y-71819853D01*
X182180147Y-71694354D01*
X182081544Y-71546784D01*
X182013624Y-71382812D01*
X181979000Y-71208741D01*
X181979000Y-71031259D01*
X182013624Y-70857188D01*
X182081544Y-70693216D01*
X182180147Y-70545646D01*
X182305646Y-70420147D01*
X182453216Y-70321544D01*
X182617188Y-70253624D01*
X182766488Y-70223927D01*
X182791258Y-70219000D01*
X182968742Y-70219000D01*
X182993512Y-70223927D01*
G37*
G36*
X133598228Y-70301703D02*
G01*
X133753100Y-70365853D01*
X133892481Y-70458985D01*
X134011015Y-70577519D01*
X134104147Y-70716900D01*
X134168297Y-70871772D01*
X134201000Y-71036184D01*
X134201000Y-71203816D01*
X134168297Y-71368228D01*
X134104147Y-71523100D01*
X134011015Y-71662481D01*
X133892481Y-71781015D01*
X133753100Y-71874147D01*
X133598228Y-71938297D01*
X133433816Y-71971000D01*
X133266184Y-71971000D01*
X133101772Y-71938297D01*
X132946900Y-71874147D01*
X132807519Y-71781015D01*
X132688985Y-71662481D01*
X132595853Y-71523100D01*
X132531703Y-71368228D01*
X132499000Y-71203816D01*
X132499000Y-71036184D01*
X132531703Y-70871772D01*
X132595853Y-70716900D01*
X132688985Y-70577519D01*
X132807519Y-70458985D01*
X132946900Y-70365853D01*
X133101772Y-70301703D01*
X133266184Y-70269000D01*
X133433816Y-70269000D01*
X133598228Y-70301703D01*
G37*
G36*
X162797142Y-70338242D02*
G01*
X162945101Y-70399529D01*
X163078255Y-70488499D01*
X163191501Y-70601745D01*
X163280471Y-70734899D01*
X163341758Y-70882858D01*
X163373000Y-71039925D01*
X163373000Y-71200075D01*
X163341758Y-71357142D01*
X163280471Y-71505101D01*
X163191501Y-71638255D01*
X163078255Y-71751501D01*
X162945101Y-71840471D01*
X162797142Y-71901758D01*
X162640075Y-71933000D01*
X162479925Y-71933000D01*
X162322858Y-71901758D01*
X162174899Y-71840471D01*
X162041745Y-71751501D01*
X161928499Y-71638255D01*
X161839529Y-71505101D01*
X161778242Y-71357142D01*
X161747000Y-71200075D01*
X161747000Y-71039925D01*
X161778242Y-70882858D01*
X161839529Y-70734899D01*
X161928499Y-70601745D01*
X162041745Y-70488499D01*
X162174899Y-70399529D01*
X162322858Y-70338242D01*
X162479925Y-70307000D01*
X162640075Y-70307000D01*
X162797142Y-70338242D01*
G37*
G36*
X175373512Y-68953927D02*
G01*
X175522812Y-68983624D01*
X175686784Y-69051544D01*
X175834354Y-69150147D01*
X175959853Y-69275646D01*
X176058456Y-69423216D01*
X176126376Y-69587188D01*
X176161000Y-69761259D01*
X176161000Y-69938741D01*
X176126376Y-70112812D01*
X176058456Y-70276784D01*
X175959853Y-70424354D01*
X175834354Y-70549853D01*
X175686784Y-70648456D01*
X175522812Y-70716376D01*
X175373512Y-70746073D01*
X175348742Y-70751000D01*
X175171258Y-70751000D01*
X175146488Y-70746073D01*
X174997188Y-70716376D01*
X174833216Y-70648456D01*
X174685646Y-70549853D01*
X174560147Y-70424354D01*
X174461544Y-70276784D01*
X174393624Y-70112812D01*
X174359000Y-69938741D01*
X174359000Y-69761259D01*
X174393624Y-69587188D01*
X174461544Y-69423216D01*
X174560147Y-69275646D01*
X174685646Y-69150147D01*
X174833216Y-69051544D01*
X174997188Y-68983624D01*
X175146488Y-68953927D01*
X175171258Y-68949000D01*
X175348742Y-68949000D01*
X175373512Y-68953927D01*
G37*
G36*
X122033512Y-67683927D02*
G01*
X122182812Y-67713624D01*
X122346784Y-67781544D01*
X122494354Y-67880147D01*
X122619853Y-68005646D01*
X122718456Y-68153216D01*
X122786376Y-68317188D01*
X122821000Y-68491259D01*
X122821000Y-68668741D01*
X122786376Y-68842812D01*
X122718456Y-69006784D01*
X122619853Y-69154354D01*
X122494354Y-69279853D01*
X122346784Y-69378456D01*
X122182812Y-69446376D01*
X122033512Y-69476073D01*
X122008742Y-69481000D01*
X121831258Y-69481000D01*
X121806488Y-69476073D01*
X121657188Y-69446376D01*
X121493216Y-69378456D01*
X121345646Y-69279853D01*
X121220147Y-69154354D01*
X121121544Y-69006784D01*
X121053624Y-68842812D01*
X121019000Y-68668741D01*
X121019000Y-68491259D01*
X121053624Y-68317188D01*
X121121544Y-68153216D01*
X121220147Y-68005646D01*
X121345646Y-67880147D01*
X121493216Y-67781544D01*
X121657188Y-67713624D01*
X121806488Y-67683927D01*
X121831258Y-67679000D01*
X122008742Y-67679000D01*
X122033512Y-67683927D01*
G37*
G36*
X119493512Y-67683927D02*
G01*
X119642812Y-67713624D01*
X119806784Y-67781544D01*
X119954354Y-67880147D01*
X120079853Y-68005646D01*
X120178456Y-68153216D01*
X120246376Y-68317188D01*
X120281000Y-68491259D01*
X120281000Y-68668741D01*
X120246376Y-68842812D01*
X120178456Y-69006784D01*
X120079853Y-69154354D01*
X119954354Y-69279853D01*
X119806784Y-69378456D01*
X119642812Y-69446376D01*
X119493512Y-69476073D01*
X119468742Y-69481000D01*
X119291258Y-69481000D01*
X119266488Y-69476073D01*
X119117188Y-69446376D01*
X118953216Y-69378456D01*
X118805646Y-69279853D01*
X118680147Y-69154354D01*
X118581544Y-69006784D01*
X118513624Y-68842812D01*
X118479000Y-68668741D01*
X118479000Y-68491259D01*
X118513624Y-68317188D01*
X118581544Y-68153216D01*
X118680147Y-68005646D01*
X118805646Y-67880147D01*
X118953216Y-67781544D01*
X119117188Y-67713624D01*
X119266488Y-67683927D01*
X119291258Y-67679000D01*
X119468742Y-67679000D01*
X119493512Y-67683927D01*
G37*
G36*
X180453512Y-67683927D02*
G01*
X180602812Y-67713624D01*
X180766784Y-67781544D01*
X180914354Y-67880147D01*
X181039853Y-68005646D01*
X181138456Y-68153216D01*
X181206376Y-68317188D01*
X181241000Y-68491259D01*
X181241000Y-68668741D01*
X181206376Y-68842812D01*
X181138456Y-69006784D01*
X181039853Y-69154354D01*
X180914354Y-69279853D01*
X180766784Y-69378456D01*
X180602812Y-69446376D01*
X180453512Y-69476073D01*
X180428742Y-69481000D01*
X180251258Y-69481000D01*
X180226488Y-69476073D01*
X180077188Y-69446376D01*
X179913216Y-69378456D01*
X179765646Y-69279853D01*
X179640147Y-69154354D01*
X179541544Y-69006784D01*
X179473624Y-68842812D01*
X179439000Y-68668741D01*
X179439000Y-68491259D01*
X179473624Y-68317188D01*
X179541544Y-68153216D01*
X179640147Y-68005646D01*
X179765646Y-67880147D01*
X179913216Y-67781544D01*
X180077188Y-67713624D01*
X180226488Y-67683927D01*
X180251258Y-67679000D01*
X180428742Y-67679000D01*
X180453512Y-67683927D01*
G37*
G36*
X182993512Y-67683927D02*
G01*
X183142812Y-67713624D01*
X183306784Y-67781544D01*
X183454354Y-67880147D01*
X183579853Y-68005646D01*
X183678456Y-68153216D01*
X183746376Y-68317188D01*
X183781000Y-68491259D01*
X183781000Y-68668741D01*
X183746376Y-68842812D01*
X183678456Y-69006784D01*
X183579853Y-69154354D01*
X183454354Y-69279853D01*
X183306784Y-69378456D01*
X183142812Y-69446376D01*
X182993512Y-69476073D01*
X182968742Y-69481000D01*
X182791258Y-69481000D01*
X182766488Y-69476073D01*
X182617188Y-69446376D01*
X182453216Y-69378456D01*
X182305646Y-69279853D01*
X182180147Y-69154354D01*
X182081544Y-69006784D01*
X182013624Y-68842812D01*
X181979000Y-68668741D01*
X181979000Y-68491259D01*
X182013624Y-68317188D01*
X182081544Y-68153216D01*
X182180147Y-68005646D01*
X182305646Y-67880147D01*
X182453216Y-67781544D01*
X182617188Y-67713624D01*
X182766488Y-67683927D01*
X182791258Y-67679000D01*
X182968742Y-67679000D01*
X182993512Y-67683927D01*
G37*
G36*
X162797142Y-67798242D02*
G01*
X162945101Y-67859529D01*
X163078255Y-67948499D01*
X163191501Y-68061745D01*
X163280471Y-68194899D01*
X163341758Y-68342858D01*
X163373000Y-68499925D01*
X163373000Y-68660075D01*
X163341758Y-68817142D01*
X163280471Y-68965101D01*
X163191501Y-69098255D01*
X163078255Y-69211501D01*
X162945101Y-69300471D01*
X162797142Y-69361758D01*
X162640075Y-69393000D01*
X162479925Y-69393000D01*
X162322858Y-69361758D01*
X162174899Y-69300471D01*
X162041745Y-69211501D01*
X161928499Y-69098255D01*
X161839529Y-68965101D01*
X161778242Y-68817142D01*
X161747000Y-68660075D01*
X161747000Y-68499925D01*
X161778242Y-68342858D01*
X161839529Y-68194899D01*
X161928499Y-68061745D01*
X162041745Y-67948499D01*
X162174899Y-67859529D01*
X162322858Y-67798242D01*
X162479925Y-67767000D01*
X162640075Y-67767000D01*
X162797142Y-67798242D01*
G37*
G36*
X175373512Y-66413927D02*
G01*
X175522812Y-66443624D01*
X175686784Y-66511544D01*
X175834354Y-66610147D01*
X175959853Y-66735646D01*
X176058456Y-66883216D01*
X176126376Y-67047188D01*
X176161000Y-67221259D01*
X176161000Y-67398741D01*
X176126376Y-67572812D01*
X176058456Y-67736784D01*
X175959853Y-67884354D01*
X175834354Y-68009853D01*
X175686784Y-68108456D01*
X175522812Y-68176376D01*
X175373512Y-68206073D01*
X175348742Y-68211000D01*
X175171258Y-68211000D01*
X175146488Y-68206073D01*
X174997188Y-68176376D01*
X174833216Y-68108456D01*
X174685646Y-68009853D01*
X174560147Y-67884354D01*
X174461544Y-67736784D01*
X174393624Y-67572812D01*
X174359000Y-67398741D01*
X174359000Y-67221259D01*
X174393624Y-67047188D01*
X174461544Y-66883216D01*
X174560147Y-66735646D01*
X174685646Y-66610147D01*
X174833216Y-66511544D01*
X174997188Y-66443624D01*
X175146488Y-66413927D01*
X175171258Y-66409000D01*
X175348742Y-66409000D01*
X175373512Y-66413927D01*
G37*
G36*
X122033512Y-65143927D02*
G01*
X122182812Y-65173624D01*
X122346784Y-65241544D01*
X122494354Y-65340147D01*
X122619853Y-65465646D01*
X122718456Y-65613216D01*
X122786376Y-65777188D01*
X122821000Y-65951259D01*
X122821000Y-66128741D01*
X122786376Y-66302812D01*
X122718456Y-66466784D01*
X122619853Y-66614354D01*
X122494354Y-66739853D01*
X122346784Y-66838456D01*
X122182812Y-66906376D01*
X122033512Y-66936073D01*
X122008742Y-66941000D01*
X121831258Y-66941000D01*
X121806488Y-66936073D01*
X121657188Y-66906376D01*
X121493216Y-66838456D01*
X121345646Y-66739853D01*
X121220147Y-66614354D01*
X121121544Y-66466784D01*
X121053624Y-66302812D01*
X121019000Y-66128741D01*
X121019000Y-65951259D01*
X121053624Y-65777188D01*
X121121544Y-65613216D01*
X121220147Y-65465646D01*
X121345646Y-65340147D01*
X121493216Y-65241544D01*
X121657188Y-65173624D01*
X121806488Y-65143927D01*
X121831258Y-65139000D01*
X122008742Y-65139000D01*
X122033512Y-65143927D01*
G37*
G36*
X119493512Y-65143927D02*
G01*
X119642812Y-65173624D01*
X119806784Y-65241544D01*
X119954354Y-65340147D01*
X120079853Y-65465646D01*
X120178456Y-65613216D01*
X120246376Y-65777188D01*
X120281000Y-65951259D01*
X120281000Y-66128741D01*
X120246376Y-66302812D01*
X120178456Y-66466784D01*
X120079853Y-66614354D01*
X119954354Y-66739853D01*
X119806784Y-66838456D01*
X119642812Y-66906376D01*
X119493512Y-66936073D01*
X119468742Y-66941000D01*
X119291258Y-66941000D01*
X119266488Y-66936073D01*
X119117188Y-66906376D01*
X118953216Y-66838456D01*
X118805646Y-66739853D01*
X118680147Y-66614354D01*
X118581544Y-66466784D01*
X118513624Y-66302812D01*
X118479000Y-66128741D01*
X118479000Y-65951259D01*
X118513624Y-65777188D01*
X118581544Y-65613216D01*
X118680147Y-65465646D01*
X118805646Y-65340147D01*
X118953216Y-65241544D01*
X119117188Y-65173624D01*
X119266488Y-65143927D01*
X119291258Y-65139000D01*
X119468742Y-65139000D01*
X119493512Y-65143927D01*
G37*
G36*
X180453512Y-65143927D02*
G01*
X180602812Y-65173624D01*
X180766784Y-65241544D01*
X180914354Y-65340147D01*
X181039853Y-65465646D01*
X181138456Y-65613216D01*
X181206376Y-65777188D01*
X181241000Y-65951259D01*
X181241000Y-66128741D01*
X181206376Y-66302812D01*
X181138456Y-66466784D01*
X181039853Y-66614354D01*
X180914354Y-66739853D01*
X180766784Y-66838456D01*
X180602812Y-66906376D01*
X180453512Y-66936073D01*
X180428742Y-66941000D01*
X180251258Y-66941000D01*
X180226488Y-66936073D01*
X180077188Y-66906376D01*
X179913216Y-66838456D01*
X179765646Y-66739853D01*
X179640147Y-66614354D01*
X179541544Y-66466784D01*
X179473624Y-66302812D01*
X179439000Y-66128741D01*
X179439000Y-65951259D01*
X179473624Y-65777188D01*
X179541544Y-65613216D01*
X179640147Y-65465646D01*
X179765646Y-65340147D01*
X179913216Y-65241544D01*
X180077188Y-65173624D01*
X180226488Y-65143927D01*
X180251258Y-65139000D01*
X180428742Y-65139000D01*
X180453512Y-65143927D01*
G37*
G36*
X182993512Y-65143927D02*
G01*
X183142812Y-65173624D01*
X183306784Y-65241544D01*
X183454354Y-65340147D01*
X183579853Y-65465646D01*
X183678456Y-65613216D01*
X183746376Y-65777188D01*
X183781000Y-65951259D01*
X183781000Y-66128741D01*
X183746376Y-66302812D01*
X183678456Y-66466784D01*
X183579853Y-66614354D01*
X183454354Y-66739853D01*
X183306784Y-66838456D01*
X183142812Y-66906376D01*
X182993512Y-66936073D01*
X182968742Y-66941000D01*
X182791258Y-66941000D01*
X182766488Y-66936073D01*
X182617188Y-66906376D01*
X182453216Y-66838456D01*
X182305646Y-66739853D01*
X182180147Y-66614354D01*
X182081544Y-66466784D01*
X182013624Y-66302812D01*
X181979000Y-66128741D01*
X181979000Y-65951259D01*
X182013624Y-65777188D01*
X182081544Y-65613216D01*
X182180147Y-65465646D01*
X182305646Y-65340147D01*
X182453216Y-65241544D01*
X182617188Y-65173624D01*
X182766488Y-65143927D01*
X182791258Y-65139000D01*
X182968742Y-65139000D01*
X182993512Y-65143927D01*
G37*
G36*
X162797142Y-65258242D02*
G01*
X162945101Y-65319529D01*
X163078255Y-65408499D01*
X163191501Y-65521745D01*
X163280471Y-65654899D01*
X163341758Y-65802858D01*
X163373000Y-65959925D01*
X163373000Y-66120075D01*
X163341758Y-66277142D01*
X163280471Y-66425101D01*
X163191501Y-66558255D01*
X163078255Y-66671501D01*
X162945101Y-66760471D01*
X162797142Y-66821758D01*
X162640075Y-66853000D01*
X162479925Y-66853000D01*
X162322858Y-66821758D01*
X162174899Y-66760471D01*
X162041745Y-66671501D01*
X161928499Y-66558255D01*
X161839529Y-66425101D01*
X161778242Y-66277142D01*
X161747000Y-66120075D01*
X161747000Y-65959925D01*
X161778242Y-65802858D01*
X161839529Y-65654899D01*
X161928499Y-65521745D01*
X162041745Y-65408499D01*
X162174899Y-65319529D01*
X162322858Y-65258242D01*
X162479925Y-65227000D01*
X162640075Y-65227000D01*
X162797142Y-65258242D01*
G37*
G36*
X175373512Y-63873927D02*
G01*
X175522812Y-63903624D01*
X175686784Y-63971544D01*
X175834354Y-64070147D01*
X175959853Y-64195646D01*
X176058456Y-64343216D01*
X176126376Y-64507188D01*
X176161000Y-64681259D01*
X176161000Y-64858741D01*
X176126376Y-65032812D01*
X176058456Y-65196784D01*
X175959853Y-65344354D01*
X175834354Y-65469853D01*
X175686784Y-65568456D01*
X175522812Y-65636376D01*
X175373512Y-65666073D01*
X175348742Y-65671000D01*
X175171258Y-65671000D01*
X175146488Y-65666073D01*
X174997188Y-65636376D01*
X174833216Y-65568456D01*
X174685646Y-65469853D01*
X174560147Y-65344354D01*
X174461544Y-65196784D01*
X174393624Y-65032812D01*
X174359000Y-64858741D01*
X174359000Y-64681259D01*
X174393624Y-64507188D01*
X174461544Y-64343216D01*
X174560147Y-64195646D01*
X174685646Y-64070147D01*
X174833216Y-63971544D01*
X174997188Y-63903624D01*
X175146488Y-63873927D01*
X175171258Y-63869000D01*
X175348742Y-63869000D01*
X175373512Y-63873927D01*
G37*
G36*
X119493512Y-62603927D02*
G01*
X119642812Y-62633624D01*
X119806784Y-62701544D01*
X119954354Y-62800147D01*
X120079853Y-62925646D01*
X120178456Y-63073216D01*
X120246376Y-63237188D01*
X120281000Y-63411259D01*
X120281000Y-63588741D01*
X120246376Y-63762812D01*
X120178456Y-63926784D01*
X120079853Y-64074354D01*
X119954354Y-64199853D01*
X119806784Y-64298456D01*
X119642812Y-64366376D01*
X119493512Y-64396073D01*
X119468742Y-64401000D01*
X119291258Y-64401000D01*
X119266488Y-64396073D01*
X119117188Y-64366376D01*
X118953216Y-64298456D01*
X118805646Y-64199853D01*
X118680147Y-64074354D01*
X118581544Y-63926784D01*
X118513624Y-63762812D01*
X118479000Y-63588741D01*
X118479000Y-63411259D01*
X118513624Y-63237188D01*
X118581544Y-63073216D01*
X118680147Y-62925646D01*
X118805646Y-62800147D01*
X118953216Y-62701544D01*
X119117188Y-62633624D01*
X119266488Y-62603927D01*
X119291258Y-62599000D01*
X119468742Y-62599000D01*
X119493512Y-62603927D01*
G37*
G36*
X180453512Y-62603927D02*
G01*
X180602812Y-62633624D01*
X180766784Y-62701544D01*
X180914354Y-62800147D01*
X181039853Y-62925646D01*
X181138456Y-63073216D01*
X181206376Y-63237188D01*
X181241000Y-63411259D01*
X181241000Y-63588741D01*
X181206376Y-63762812D01*
X181138456Y-63926784D01*
X181039853Y-64074354D01*
X180914354Y-64199853D01*
X180766784Y-64298456D01*
X180602812Y-64366376D01*
X180453512Y-64396073D01*
X180428742Y-64401000D01*
X180251258Y-64401000D01*
X180226488Y-64396073D01*
X180077188Y-64366376D01*
X179913216Y-64298456D01*
X179765646Y-64199853D01*
X179640147Y-64074354D01*
X179541544Y-63926784D01*
X179473624Y-63762812D01*
X179439000Y-63588741D01*
X179439000Y-63411259D01*
X179473624Y-63237188D01*
X179541544Y-63073216D01*
X179640147Y-62925646D01*
X179765646Y-62800147D01*
X179913216Y-62701544D01*
X180077188Y-62633624D01*
X180226488Y-62603927D01*
X180251258Y-62599000D01*
X180428742Y-62599000D01*
X180453512Y-62603927D01*
G37*
G36*
X182993512Y-62603927D02*
G01*
X183142812Y-62633624D01*
X183306784Y-62701544D01*
X183454354Y-62800147D01*
X183579853Y-62925646D01*
X183678456Y-63073216D01*
X183746376Y-63237188D01*
X183781000Y-63411259D01*
X183781000Y-63588741D01*
X183746376Y-63762812D01*
X183678456Y-63926784D01*
X183579853Y-64074354D01*
X183454354Y-64199853D01*
X183306784Y-64298456D01*
X183142812Y-64366376D01*
X182993512Y-64396073D01*
X182968742Y-64401000D01*
X182791258Y-64401000D01*
X182766488Y-64396073D01*
X182617188Y-64366376D01*
X182453216Y-64298456D01*
X182305646Y-64199853D01*
X182180147Y-64074354D01*
X182081544Y-63926784D01*
X182013624Y-63762812D01*
X181979000Y-63588741D01*
X181979000Y-63411259D01*
X182013624Y-63237188D01*
X182081544Y-63073216D01*
X182180147Y-62925646D01*
X182305646Y-62800147D01*
X182453216Y-62701544D01*
X182617188Y-62633624D01*
X182766488Y-62603927D01*
X182791258Y-62599000D01*
X182968742Y-62599000D01*
X182993512Y-62603927D01*
G37*
G36*
X122033512Y-62603927D02*
G01*
X122182812Y-62633624D01*
X122346784Y-62701544D01*
X122494354Y-62800147D01*
X122619853Y-62925646D01*
X122718456Y-63073216D01*
X122786376Y-63237188D01*
X122821000Y-63411259D01*
X122821000Y-63588741D01*
X122786376Y-63762812D01*
X122718456Y-63926784D01*
X122619853Y-64074354D01*
X122494354Y-64199853D01*
X122346784Y-64298456D01*
X122182812Y-64366376D01*
X122033512Y-64396073D01*
X122008742Y-64401000D01*
X121831258Y-64401000D01*
X121806488Y-64396073D01*
X121657188Y-64366376D01*
X121493216Y-64298456D01*
X121345646Y-64199853D01*
X121220147Y-64074354D01*
X121121544Y-63926784D01*
X121053624Y-63762812D01*
X121019000Y-63588741D01*
X121019000Y-63411259D01*
X121053624Y-63237188D01*
X121121544Y-63073216D01*
X121220147Y-62925646D01*
X121345646Y-62800147D01*
X121493216Y-62701544D01*
X121657188Y-62633624D01*
X121806488Y-62603927D01*
X121831258Y-62599000D01*
X122008742Y-62599000D01*
X122033512Y-62603927D01*
G37*
G36*
X162797142Y-62718242D02*
G01*
X162945101Y-62779529D01*
X163078255Y-62868499D01*
X163191501Y-62981745D01*
X163280471Y-63114899D01*
X163341758Y-63262858D01*
X163373000Y-63419925D01*
X163373000Y-63580075D01*
X163341758Y-63737142D01*
X163280471Y-63885101D01*
X163191501Y-64018255D01*
X163078255Y-64131501D01*
X162945101Y-64220471D01*
X162797142Y-64281758D01*
X162640075Y-64313000D01*
X162479925Y-64313000D01*
X162322858Y-64281758D01*
X162174899Y-64220471D01*
X162041745Y-64131501D01*
X161928499Y-64018255D01*
X161839529Y-63885101D01*
X161778242Y-63737142D01*
X161747000Y-63580075D01*
X161747000Y-63419925D01*
X161778242Y-63262858D01*
X161839529Y-63114899D01*
X161928499Y-62981745D01*
X162041745Y-62868499D01*
X162174899Y-62779529D01*
X162322858Y-62718242D01*
X162479925Y-62687000D01*
X162640075Y-62687000D01*
X162797142Y-62718242D01*
G37*
G36*
X175373512Y-61333927D02*
G01*
X175522812Y-61363624D01*
X175686784Y-61431544D01*
X175834354Y-61530147D01*
X175959853Y-61655646D01*
X176058456Y-61803216D01*
X176126376Y-61967188D01*
X176161000Y-62141259D01*
X176161000Y-62318741D01*
X176126376Y-62492812D01*
X176058456Y-62656784D01*
X175959853Y-62804354D01*
X175834354Y-62929853D01*
X175686784Y-63028456D01*
X175522812Y-63096376D01*
X175373512Y-63126073D01*
X175348742Y-63131000D01*
X175171258Y-63131000D01*
X175146488Y-63126073D01*
X174997188Y-63096376D01*
X174833216Y-63028456D01*
X174685646Y-62929853D01*
X174560147Y-62804354D01*
X174461544Y-62656784D01*
X174393624Y-62492812D01*
X174359000Y-62318741D01*
X174359000Y-62141259D01*
X174393624Y-61967188D01*
X174461544Y-61803216D01*
X174560147Y-61655646D01*
X174685646Y-61530147D01*
X174833216Y-61431544D01*
X174997188Y-61363624D01*
X175146488Y-61333927D01*
X175171258Y-61329000D01*
X175348742Y-61329000D01*
X175373512Y-61333927D01*
G37*
G36*
X182993512Y-60063927D02*
G01*
X183142812Y-60093624D01*
X183306784Y-60161544D01*
X183454354Y-60260147D01*
X183579853Y-60385646D01*
X183678456Y-60533216D01*
X183746376Y-60697188D01*
X183781000Y-60871259D01*
X183781000Y-61048741D01*
X183746376Y-61222812D01*
X183678456Y-61386784D01*
X183579853Y-61534354D01*
X183454354Y-61659853D01*
X183306784Y-61758456D01*
X183142812Y-61826376D01*
X182993512Y-61856073D01*
X182968742Y-61861000D01*
X182791258Y-61861000D01*
X182766488Y-61856073D01*
X182617188Y-61826376D01*
X182453216Y-61758456D01*
X182305646Y-61659853D01*
X182180147Y-61534354D01*
X182081544Y-61386784D01*
X182013624Y-61222812D01*
X181979000Y-61048741D01*
X181979000Y-60871259D01*
X182013624Y-60697188D01*
X182081544Y-60533216D01*
X182180147Y-60385646D01*
X182305646Y-60260147D01*
X182453216Y-60161544D01*
X182617188Y-60093624D01*
X182766488Y-60063927D01*
X182791258Y-60059000D01*
X182968742Y-60059000D01*
X182993512Y-60063927D01*
G37*
G36*
X181241000Y-61861000D02*
G01*
X179439000Y-61861000D01*
X179439000Y-60059000D01*
X181241000Y-60059000D01*
X181241000Y-61861000D01*
G37*
G36*
X120281000Y-61861000D02*
G01*
X118479000Y-61861000D01*
X118479000Y-60059000D01*
X120281000Y-60059000D01*
X120281000Y-61861000D01*
G37*
G36*
X122033512Y-60063927D02*
G01*
X122182812Y-60093624D01*
X122346784Y-60161544D01*
X122494354Y-60260147D01*
X122619853Y-60385646D01*
X122718456Y-60533216D01*
X122786376Y-60697188D01*
X122821000Y-60871259D01*
X122821000Y-61048741D01*
X122786376Y-61222812D01*
X122718456Y-61386784D01*
X122619853Y-61534354D01*
X122494354Y-61659853D01*
X122346784Y-61758456D01*
X122182812Y-61826376D01*
X122033512Y-61856073D01*
X122008742Y-61861000D01*
X121831258Y-61861000D01*
X121806488Y-61856073D01*
X121657188Y-61826376D01*
X121493216Y-61758456D01*
X121345646Y-61659853D01*
X121220147Y-61534354D01*
X121121544Y-61386784D01*
X121053624Y-61222812D01*
X121019000Y-61048741D01*
X121019000Y-60871259D01*
X121053624Y-60697188D01*
X121121544Y-60533216D01*
X121220147Y-60385646D01*
X121345646Y-60260147D01*
X121493216Y-60161544D01*
X121657188Y-60093624D01*
X121806488Y-60063927D01*
X121831258Y-60059000D01*
X122008742Y-60059000D01*
X122033512Y-60063927D01*
G37*
G36*
X162797142Y-60178242D02*
G01*
X162945101Y-60239529D01*
X163078255Y-60328499D01*
X163191501Y-60441745D01*
X163280471Y-60574899D01*
X163341758Y-60722858D01*
X163373000Y-60879925D01*
X163373000Y-61040075D01*
X163341758Y-61197142D01*
X163280471Y-61345101D01*
X163191501Y-61478255D01*
X163078255Y-61591501D01*
X162945101Y-61680471D01*
X162797142Y-61741758D01*
X162640075Y-61773000D01*
X162479925Y-61773000D01*
X162322858Y-61741758D01*
X162174899Y-61680471D01*
X162041745Y-61591501D01*
X161928499Y-61478255D01*
X161839529Y-61345101D01*
X161778242Y-61197142D01*
X161747000Y-61040075D01*
X161747000Y-60879925D01*
X161778242Y-60722858D01*
X161839529Y-60574899D01*
X161928499Y-60441745D01*
X162041745Y-60328499D01*
X162174899Y-60239529D01*
X162322858Y-60178242D01*
X162479925Y-60147000D01*
X162640075Y-60147000D01*
X162797142Y-60178242D01*
G37*
G36*
X162797142Y-57638242D02*
G01*
X162945101Y-57699529D01*
X163078255Y-57788499D01*
X163191501Y-57901745D01*
X163280471Y-58034899D01*
X163341758Y-58182858D01*
X163373000Y-58339925D01*
X163373000Y-58500075D01*
X163341758Y-58657142D01*
X163280471Y-58805101D01*
X163191501Y-58938255D01*
X163078255Y-59051501D01*
X162945101Y-59140471D01*
X162797142Y-59201758D01*
X162640075Y-59233000D01*
X162479925Y-59233000D01*
X162322858Y-59201758D01*
X162174899Y-59140471D01*
X162041745Y-59051501D01*
X161928499Y-58938255D01*
X161839529Y-58805101D01*
X161778242Y-58657142D01*
X161747000Y-58500075D01*
X161747000Y-58339925D01*
X161778242Y-58182858D01*
X161839529Y-58034899D01*
X161928499Y-57901745D01*
X162041745Y-57788499D01*
X162174899Y-57699529D01*
X162322858Y-57638242D01*
X162479925Y-57607000D01*
X162640075Y-57607000D01*
X162797142Y-57638242D01*
G37*
G36*
X180588228Y-51251703D02*
G01*
X180743100Y-51315853D01*
X180882481Y-51408985D01*
X181001015Y-51527519D01*
X181094147Y-51666900D01*
X181158297Y-51821772D01*
X181191000Y-51986184D01*
X181191000Y-52153816D01*
X181158297Y-52318228D01*
X181094147Y-52473100D01*
X181001015Y-52612481D01*
X180882481Y-52731015D01*
X180743100Y-52824147D01*
X180588228Y-52888297D01*
X180423816Y-52921000D01*
X180256184Y-52921000D01*
X180091772Y-52888297D01*
X179936900Y-52824147D01*
X179797519Y-52731015D01*
X179678985Y-52612481D01*
X179585853Y-52473100D01*
X179521703Y-52318228D01*
X179489000Y-52153816D01*
X179489000Y-51986184D01*
X179521703Y-51821772D01*
X179585853Y-51666900D01*
X179678985Y-51527519D01*
X179797519Y-51408985D01*
X179936900Y-51315853D01*
X180091772Y-51251703D01*
X180256184Y-51219000D01*
X180423816Y-51219000D01*
X180588228Y-51251703D01*
G37*
G36*
X175508228Y-51251703D02*
G01*
X175663100Y-51315853D01*
X175802481Y-51408985D01*
X175921015Y-51527519D01*
X176014147Y-51666900D01*
X176078297Y-51821772D01*
X176111000Y-51986184D01*
X176111000Y-52153816D01*
X176078297Y-52318228D01*
X176014147Y-52473100D01*
X175921015Y-52612481D01*
X175802481Y-52731015D01*
X175663100Y-52824147D01*
X175508228Y-52888297D01*
X175343816Y-52921000D01*
X175176184Y-52921000D01*
X175011772Y-52888297D01*
X174856900Y-52824147D01*
X174717519Y-52731015D01*
X174598985Y-52612481D01*
X174505853Y-52473100D01*
X174441703Y-52318228D01*
X174409000Y-52153816D01*
X174409000Y-51986184D01*
X174441703Y-51821772D01*
X174505853Y-51666900D01*
X174598985Y-51527519D01*
X174717519Y-51408985D01*
X174856900Y-51315853D01*
X175011772Y-51251703D01*
X175176184Y-51219000D01*
X175343816Y-51219000D01*
X175508228Y-51251703D01*
G37*
G36*
X180588228Y-41091703D02*
G01*
X180743100Y-41155853D01*
X180882481Y-41248985D01*
X181001015Y-41367519D01*
X181094147Y-41506900D01*
X181158297Y-41661772D01*
X181191000Y-41826184D01*
X181191000Y-41993816D01*
X181158297Y-42158228D01*
X181094147Y-42313100D01*
X181001015Y-42452481D01*
X180882481Y-42571015D01*
X180743100Y-42664147D01*
X180588228Y-42728297D01*
X180423816Y-42761000D01*
X180256184Y-42761000D01*
X180091772Y-42728297D01*
X179936900Y-42664147D01*
X179797519Y-42571015D01*
X179678985Y-42452481D01*
X179585853Y-42313100D01*
X179521703Y-42158228D01*
X179489000Y-41993816D01*
X179489000Y-41826184D01*
X179521703Y-41661772D01*
X179585853Y-41506900D01*
X179678985Y-41367519D01*
X179797519Y-41248985D01*
X179936900Y-41155853D01*
X180091772Y-41091703D01*
X180256184Y-41059000D01*
X180423816Y-41059000D01*
X180588228Y-41091703D01*
G37*
G36*
X175508228Y-41091703D02*
G01*
X175663100Y-41155853D01*
X175802481Y-41248985D01*
X175921015Y-41367519D01*
X176014147Y-41506900D01*
X176078297Y-41661772D01*
X176111000Y-41826184D01*
X176111000Y-41993816D01*
X176078297Y-42158228D01*
X176014147Y-42313100D01*
X175921015Y-42452481D01*
X175802481Y-42571015D01*
X175663100Y-42664147D01*
X175508228Y-42728297D01*
X175343816Y-42761000D01*
X175176184Y-42761000D01*
X175011772Y-42728297D01*
X174856900Y-42664147D01*
X174717519Y-42571015D01*
X174598985Y-42452481D01*
X174505853Y-42313100D01*
X174441703Y-42158228D01*
X174409000Y-41993816D01*
X174409000Y-41826184D01*
X174441703Y-41661772D01*
X174505853Y-41506900D01*
X174598985Y-41367519D01*
X174717519Y-41248985D01*
X174856900Y-41155853D01*
X175011772Y-41091703D01*
X175176184Y-41059000D01*
X175343816Y-41059000D01*
X175508228Y-41091703D01*
G37*
G36*
X150097142Y-37318242D02*
G01*
X150245101Y-37379529D01*
X150378255Y-37468499D01*
X150491501Y-37581745D01*
X150580471Y-37714899D01*
X150641758Y-37862858D01*
X150673000Y-38019925D01*
X150673000Y-38180075D01*
X150641758Y-38337142D01*
X150580471Y-38485101D01*
X150491501Y-38618255D01*
X150378255Y-38731501D01*
X150245101Y-38820471D01*
X150097142Y-38881758D01*
X149940075Y-38913000D01*
X149779925Y-38913000D01*
X149622858Y-38881758D01*
X149474899Y-38820471D01*
X149341745Y-38731501D01*
X149228499Y-38618255D01*
X149139529Y-38485101D01*
X149078242Y-38337142D01*
X149047000Y-38180075D01*
X149047000Y-38019925D01*
X149078242Y-37862858D01*
X149139529Y-37714899D01*
X149228499Y-37581745D01*
X149341745Y-37468499D01*
X149474899Y-37379529D01*
X149622858Y-37318242D01*
X149779925Y-37287000D01*
X149940075Y-37287000D01*
X150097142Y-37318242D01*
G37*
G36*
X147557142Y-37318242D02*
G01*
X147705101Y-37379529D01*
X147838255Y-37468499D01*
X147951501Y-37581745D01*
X148040471Y-37714899D01*
X148101758Y-37862858D01*
X148133000Y-38019925D01*
X148133000Y-38180075D01*
X148101758Y-38337142D01*
X148040471Y-38485101D01*
X147951501Y-38618255D01*
X147838255Y-38731501D01*
X147705101Y-38820471D01*
X147557142Y-38881758D01*
X147400075Y-38913000D01*
X147239925Y-38913000D01*
X147082858Y-38881758D01*
X146934899Y-38820471D01*
X146801745Y-38731501D01*
X146688499Y-38618255D01*
X146599529Y-38485101D01*
X146538242Y-38337142D01*
X146507000Y-38180075D01*
X146507000Y-38019925D01*
X146538242Y-37862858D01*
X146599529Y-37714899D01*
X146688499Y-37581745D01*
X146801745Y-37468499D01*
X146934899Y-37379529D01*
X147082858Y-37318242D01*
X147239925Y-37287000D01*
X147400075Y-37287000D01*
X147557142Y-37318242D01*
G37*
G36*
X145017142Y-37318242D02*
G01*
X145165101Y-37379529D01*
X145298255Y-37468499D01*
X145411501Y-37581745D01*
X145500471Y-37714899D01*
X145561758Y-37862858D01*
X145593000Y-38019925D01*
X145593000Y-38180075D01*
X145561758Y-38337142D01*
X145500471Y-38485101D01*
X145411501Y-38618255D01*
X145298255Y-38731501D01*
X145165101Y-38820471D01*
X145017142Y-38881758D01*
X144860075Y-38913000D01*
X144699925Y-38913000D01*
X144542858Y-38881758D01*
X144394899Y-38820471D01*
X144261745Y-38731501D01*
X144148499Y-38618255D01*
X144059529Y-38485101D01*
X143998242Y-38337142D01*
X143967000Y-38180075D01*
X143967000Y-38019925D01*
X143998242Y-37862858D01*
X144059529Y-37714899D01*
X144148499Y-37581745D01*
X144261745Y-37468499D01*
X144394899Y-37379529D01*
X144542858Y-37318242D01*
X144699925Y-37287000D01*
X144860075Y-37287000D01*
X145017142Y-37318242D01*
G37*
G36*
X142477142Y-37318242D02*
G01*
X142625101Y-37379529D01*
X142758255Y-37468499D01*
X142871501Y-37581745D01*
X142960471Y-37714899D01*
X143021758Y-37862858D01*
X143053000Y-38019925D01*
X143053000Y-38180075D01*
X143021758Y-38337142D01*
X142960471Y-38485101D01*
X142871501Y-38618255D01*
X142758255Y-38731501D01*
X142625101Y-38820471D01*
X142477142Y-38881758D01*
X142320075Y-38913000D01*
X142159925Y-38913000D01*
X142002858Y-38881758D01*
X141854899Y-38820471D01*
X141721745Y-38731501D01*
X141608499Y-38618255D01*
X141519529Y-38485101D01*
X141458242Y-38337142D01*
X141427000Y-38180075D01*
X141427000Y-38019925D01*
X141458242Y-37862858D01*
X141519529Y-37714899D01*
X141608499Y-37581745D01*
X141721745Y-37468499D01*
X141854899Y-37379529D01*
X142002858Y-37318242D01*
X142159925Y-37287000D01*
X142320075Y-37287000D01*
X142477142Y-37318242D01*
G37*
G36*
X139937142Y-37318242D02*
G01*
X140085101Y-37379529D01*
X140218255Y-37468499D01*
X140331501Y-37581745D01*
X140420471Y-37714899D01*
X140481758Y-37862858D01*
X140513000Y-38019925D01*
X140513000Y-38180075D01*
X140481758Y-38337142D01*
X140420471Y-38485101D01*
X140331501Y-38618255D01*
X140218255Y-38731501D01*
X140085101Y-38820471D01*
X139937142Y-38881758D01*
X139780075Y-38913000D01*
X139619925Y-38913000D01*
X139462858Y-38881758D01*
X139314899Y-38820471D01*
X139181745Y-38731501D01*
X139068499Y-38618255D01*
X138979529Y-38485101D01*
X138918242Y-38337142D01*
X138887000Y-38180075D01*
X138887000Y-38019925D01*
X138918242Y-37862858D01*
X138979529Y-37714899D01*
X139068499Y-37581745D01*
X139181745Y-37468499D01*
X139314899Y-37379529D01*
X139462858Y-37318242D01*
X139619925Y-37287000D01*
X139780075Y-37287000D01*
X139937142Y-37318242D01*
G37*
M02*
