G04 #@! TF.GenerationSoftware,KiCad,Pcbnew,5.1.5-52549c5~84~ubuntu16.04.1*
G04 #@! TF.CreationDate,2020-03-12T09:23:18+09:00*
G04 #@! TF.ProjectId,Akashi-04,416b6173-6869-42d3-9034-2e6b69636164,rev?*
G04 #@! TF.SameCoordinates,Original*
G04 #@! TF.FileFunction,Legend,Bot*
G04 #@! TF.FilePolarity,Positive*
%FSLAX46Y46*%
G04 Gerber Fmt 4.6, Leading zero omitted, Abs format (unit mm)*
G04 Created by KiCad (PCBNEW 5.1.5-52549c5~84~ubuntu16.04.1) date 2020-03-12 09:23:18*
%MOMM*%
%LPD*%
G04 APERTURE LIST*
%ADD10C,0.101600*%
%ADD11C,0.100000*%
%ADD12C,0.150000*%
%ADD13C,0.120000*%
G04 APERTURE END LIST*
D10*
X158854019Y-41528516D02*
X158370209Y-41189849D01*
X158854019Y-40947944D02*
X157838019Y-40947944D01*
X157838019Y-41334992D01*
X157886400Y-41431754D01*
X157934780Y-41480135D01*
X158031542Y-41528516D01*
X158176685Y-41528516D01*
X158273447Y-41480135D01*
X158321828Y-41431754D01*
X158370209Y-41334992D01*
X158370209Y-40947944D01*
X157838019Y-41867182D02*
X157838019Y-42496135D01*
X158225066Y-42157468D01*
X158225066Y-42302611D01*
X158273447Y-42399373D01*
X158321828Y-42447754D01*
X158418590Y-42496135D01*
X158660495Y-42496135D01*
X158757257Y-42447754D01*
X158805638Y-42399373D01*
X158854019Y-42302611D01*
X158854019Y-42012325D01*
X158805638Y-41915563D01*
X158757257Y-41867182D01*
X158854019Y-44141087D02*
X158321828Y-44141087D01*
X158225066Y-44092706D01*
X158176685Y-43995944D01*
X158176685Y-43802420D01*
X158225066Y-43705659D01*
X158805638Y-44141087D02*
X158854019Y-44044325D01*
X158854019Y-43802420D01*
X158805638Y-43705659D01*
X158708876Y-43657278D01*
X158612114Y-43657278D01*
X158515352Y-43705659D01*
X158466971Y-43802420D01*
X158466971Y-44044325D01*
X158418590Y-44141087D01*
X158176685Y-44624897D02*
X158854019Y-44624897D01*
X158273447Y-44624897D02*
X158225066Y-44673278D01*
X158176685Y-44770040D01*
X158176685Y-44915182D01*
X158225066Y-45011944D01*
X158321828Y-45060325D01*
X158854019Y-45060325D01*
X158854019Y-45979563D02*
X157838019Y-45979563D01*
X158805638Y-45979563D02*
X158854019Y-45882801D01*
X158854019Y-45689278D01*
X158805638Y-45592516D01*
X158757257Y-45544135D01*
X158660495Y-45495754D01*
X158370209Y-45495754D01*
X158273447Y-45544135D01*
X158225066Y-45592516D01*
X158176685Y-45689278D01*
X158176685Y-45882801D01*
X158225066Y-45979563D01*
X158854019Y-47818040D02*
X158370209Y-47479373D01*
X158854019Y-47237468D02*
X157838019Y-47237468D01*
X157838019Y-47624516D01*
X157886400Y-47721278D01*
X157934780Y-47769659D01*
X158031542Y-47818040D01*
X158176685Y-47818040D01*
X158273447Y-47769659D01*
X158321828Y-47721278D01*
X158370209Y-47624516D01*
X158370209Y-47237468D01*
X158176685Y-48688897D02*
X158854019Y-48688897D01*
X157789638Y-48446992D02*
X158515352Y-48205087D01*
X158515352Y-48834040D01*
X158854019Y-49995182D02*
X158176685Y-49995182D01*
X158273447Y-49995182D02*
X158225066Y-50043563D01*
X158176685Y-50140325D01*
X158176685Y-50285468D01*
X158225066Y-50382230D01*
X158321828Y-50430611D01*
X158854019Y-50430611D01*
X158321828Y-50430611D02*
X158225066Y-50478992D01*
X158176685Y-50575754D01*
X158176685Y-50720897D01*
X158225066Y-50817659D01*
X158321828Y-50866040D01*
X158854019Y-50866040D01*
X158176685Y-51785278D02*
X158854019Y-51785278D01*
X158176685Y-51349849D02*
X158708876Y-51349849D01*
X158805638Y-51398230D01*
X158854019Y-51494992D01*
X158854019Y-51640135D01*
X158805638Y-51736897D01*
X158757257Y-51785278D01*
X158805638Y-52220706D02*
X158854019Y-52317468D01*
X158854019Y-52510992D01*
X158805638Y-52607754D01*
X158708876Y-52656135D01*
X158660495Y-52656135D01*
X158563733Y-52607754D01*
X158515352Y-52510992D01*
X158515352Y-52365849D01*
X158466971Y-52269087D01*
X158370209Y-52220706D01*
X158321828Y-52220706D01*
X158225066Y-52269087D01*
X158176685Y-52365849D01*
X158176685Y-52510992D01*
X158225066Y-52607754D01*
X158176685Y-52946420D02*
X158176685Y-53333468D01*
X157838019Y-53091563D02*
X158708876Y-53091563D01*
X158805638Y-53139944D01*
X158854019Y-53236706D01*
X158854019Y-53333468D01*
X158854019Y-54446230D02*
X157838019Y-54446230D01*
X158225066Y-54446230D02*
X158176685Y-54542992D01*
X158176685Y-54736516D01*
X158225066Y-54833278D01*
X158273447Y-54881659D01*
X158370209Y-54930040D01*
X158660495Y-54930040D01*
X158757257Y-54881659D01*
X158805638Y-54833278D01*
X158854019Y-54736516D01*
X158854019Y-54542992D01*
X158805638Y-54446230D01*
X158805638Y-55752516D02*
X158854019Y-55655754D01*
X158854019Y-55462230D01*
X158805638Y-55365468D01*
X158708876Y-55317087D01*
X158321828Y-55317087D01*
X158225066Y-55365468D01*
X158176685Y-55462230D01*
X158176685Y-55655754D01*
X158225066Y-55752516D01*
X158321828Y-55800897D01*
X158418590Y-55800897D01*
X158515352Y-55317087D01*
X158854019Y-57010420D02*
X158176685Y-57010420D01*
X157838019Y-57010420D02*
X157886400Y-56962040D01*
X157934780Y-57010420D01*
X157886400Y-57058801D01*
X157838019Y-57010420D01*
X157934780Y-57010420D01*
X158176685Y-57494230D02*
X158854019Y-57494230D01*
X158273447Y-57494230D02*
X158225066Y-57542611D01*
X158176685Y-57639373D01*
X158176685Y-57784516D01*
X158225066Y-57881278D01*
X158321828Y-57929659D01*
X158854019Y-57929659D01*
X158805638Y-58365087D02*
X158854019Y-58461849D01*
X158854019Y-58655373D01*
X158805638Y-58752135D01*
X158708876Y-58800516D01*
X158660495Y-58800516D01*
X158563733Y-58752135D01*
X158515352Y-58655373D01*
X158515352Y-58510230D01*
X158466971Y-58413468D01*
X158370209Y-58365087D01*
X158321828Y-58365087D01*
X158225066Y-58413468D01*
X158176685Y-58510230D01*
X158176685Y-58655373D01*
X158225066Y-58752135D01*
X158176685Y-59090801D02*
X158176685Y-59477849D01*
X157838019Y-59235944D02*
X158708876Y-59235944D01*
X158805638Y-59284325D01*
X158854019Y-59381087D01*
X158854019Y-59477849D01*
X158854019Y-60251944D02*
X158321828Y-60251944D01*
X158225066Y-60203563D01*
X158176685Y-60106801D01*
X158176685Y-59913278D01*
X158225066Y-59816516D01*
X158805638Y-60251944D02*
X158854019Y-60155182D01*
X158854019Y-59913278D01*
X158805638Y-59816516D01*
X158708876Y-59768135D01*
X158612114Y-59768135D01*
X158515352Y-59816516D01*
X158466971Y-59913278D01*
X158466971Y-60155182D01*
X158418590Y-60251944D01*
X158854019Y-60880897D02*
X158805638Y-60784135D01*
X158708876Y-60735754D01*
X157838019Y-60735754D01*
X158854019Y-61413087D02*
X158805638Y-61316325D01*
X158708876Y-61267944D01*
X157838019Y-61267944D01*
X158805638Y-62187182D02*
X158854019Y-62090420D01*
X158854019Y-61896897D01*
X158805638Y-61800135D01*
X158708876Y-61751754D01*
X158321828Y-61751754D01*
X158225066Y-61800135D01*
X158176685Y-61896897D01*
X158176685Y-62090420D01*
X158225066Y-62187182D01*
X158321828Y-62235563D01*
X158418590Y-62235563D01*
X158515352Y-61751754D01*
X158854019Y-63106420D02*
X157838019Y-63106420D01*
X158805638Y-63106420D02*
X158854019Y-63009659D01*
X158854019Y-62816135D01*
X158805638Y-62719373D01*
X158757257Y-62670992D01*
X158660495Y-62622611D01*
X158370209Y-62622611D01*
X158273447Y-62670992D01*
X158225066Y-62719373D01*
X158176685Y-62816135D01*
X158176685Y-63009659D01*
X158225066Y-63106420D01*
X160479619Y-41093087D02*
X160431238Y-40996325D01*
X160382857Y-40947944D01*
X160286095Y-40899563D01*
X159995809Y-40899563D01*
X159899047Y-40947944D01*
X159850666Y-40996325D01*
X159802285Y-41093087D01*
X159802285Y-41238230D01*
X159850666Y-41334992D01*
X159899047Y-41383373D01*
X159995809Y-41431754D01*
X160286095Y-41431754D01*
X160382857Y-41383373D01*
X160431238Y-41334992D01*
X160479619Y-41238230D01*
X160479619Y-41093087D01*
X159802285Y-41867182D02*
X160479619Y-41867182D01*
X159899047Y-41867182D02*
X159850666Y-41915563D01*
X159802285Y-42012325D01*
X159802285Y-42157468D01*
X159850666Y-42254230D01*
X159947428Y-42302611D01*
X160479619Y-42302611D01*
X160479619Y-42931563D02*
X160431238Y-42834801D01*
X160334476Y-42786420D01*
X159463619Y-42786420D01*
X159802285Y-43221849D02*
X160479619Y-43463754D01*
X159802285Y-43705659D02*
X160479619Y-43463754D01*
X160721523Y-43366992D01*
X160769904Y-43318611D01*
X160818285Y-43221849D01*
X159802285Y-44770040D02*
X160479619Y-44963563D01*
X159995809Y-45157087D01*
X160479619Y-45350611D01*
X159802285Y-45544135D01*
X160479619Y-45931182D02*
X159463619Y-45931182D01*
X160479619Y-46366611D02*
X159947428Y-46366611D01*
X159850666Y-46318230D01*
X159802285Y-46221468D01*
X159802285Y-46076325D01*
X159850666Y-45979563D01*
X159899047Y-45931182D01*
X160431238Y-47237468D02*
X160479619Y-47140706D01*
X160479619Y-46947182D01*
X160431238Y-46850420D01*
X160334476Y-46802040D01*
X159947428Y-46802040D01*
X159850666Y-46850420D01*
X159802285Y-46947182D01*
X159802285Y-47140706D01*
X159850666Y-47237468D01*
X159947428Y-47285849D01*
X160044190Y-47285849D01*
X160140952Y-46802040D01*
X159802285Y-47721278D02*
X160479619Y-47721278D01*
X159899047Y-47721278D02*
X159850666Y-47769659D01*
X159802285Y-47866420D01*
X159802285Y-48011563D01*
X159850666Y-48108325D01*
X159947428Y-48156706D01*
X160479619Y-48156706D01*
X159463619Y-49704897D02*
X160189333Y-49704897D01*
X160334476Y-49656516D01*
X160431238Y-49559754D01*
X160479619Y-49414611D01*
X160479619Y-49317849D01*
X160479619Y-50188706D02*
X159463619Y-50188706D01*
X159463619Y-50575754D01*
X159512000Y-50672516D01*
X159560380Y-50720897D01*
X159657142Y-50769278D01*
X159802285Y-50769278D01*
X159899047Y-50720897D01*
X159947428Y-50672516D01*
X159995809Y-50575754D01*
X159995809Y-50188706D01*
X160479619Y-51736897D02*
X160479619Y-51156325D01*
X160479619Y-51446611D02*
X159463619Y-51446611D01*
X159608761Y-51349849D01*
X159705523Y-51253087D01*
X159753904Y-51156325D01*
X160479619Y-53381849D02*
X159947428Y-53381849D01*
X159850666Y-53333468D01*
X159802285Y-53236706D01*
X159802285Y-53043182D01*
X159850666Y-52946420D01*
X160431238Y-53381849D02*
X160479619Y-53285087D01*
X160479619Y-53043182D01*
X160431238Y-52946420D01*
X160334476Y-52898040D01*
X160237714Y-52898040D01*
X160140952Y-52946420D01*
X160092571Y-53043182D01*
X160092571Y-53285087D01*
X160044190Y-53381849D01*
X159802285Y-53865659D02*
X160479619Y-53865659D01*
X159899047Y-53865659D02*
X159850666Y-53914040D01*
X159802285Y-54010801D01*
X159802285Y-54155944D01*
X159850666Y-54252706D01*
X159947428Y-54301087D01*
X160479619Y-54301087D01*
X160479619Y-55220325D02*
X159463619Y-55220325D01*
X160431238Y-55220325D02*
X160479619Y-55123563D01*
X160479619Y-54930040D01*
X160431238Y-54833278D01*
X160382857Y-54784897D01*
X160286095Y-54736516D01*
X159995809Y-54736516D01*
X159899047Y-54784897D01*
X159850666Y-54833278D01*
X159802285Y-54930040D01*
X159802285Y-55123563D01*
X159850666Y-55220325D01*
X159463619Y-56768516D02*
X160189333Y-56768516D01*
X160334476Y-56720135D01*
X160431238Y-56623373D01*
X160479619Y-56478230D01*
X160479619Y-56381468D01*
X160479619Y-57252325D02*
X159463619Y-57252325D01*
X159463619Y-57639373D01*
X159512000Y-57736135D01*
X159560380Y-57784516D01*
X159657142Y-57832897D01*
X159802285Y-57832897D01*
X159899047Y-57784516D01*
X159947428Y-57736135D01*
X159995809Y-57639373D01*
X159995809Y-57252325D01*
X159560380Y-58219944D02*
X159512000Y-58268325D01*
X159463619Y-58365087D01*
X159463619Y-58606992D01*
X159512000Y-58703754D01*
X159560380Y-58752135D01*
X159657142Y-58800516D01*
X159753904Y-58800516D01*
X159899047Y-58752135D01*
X160479619Y-58171563D01*
X160479619Y-58800516D01*
X160479619Y-60010040D02*
X159802285Y-60010040D01*
X159463619Y-60010040D02*
X159512000Y-59961659D01*
X159560380Y-60010040D01*
X159512000Y-60058420D01*
X159463619Y-60010040D01*
X159560380Y-60010040D01*
X160431238Y-60445468D02*
X160479619Y-60542230D01*
X160479619Y-60735754D01*
X160431238Y-60832516D01*
X160334476Y-60880897D01*
X160286095Y-60880897D01*
X160189333Y-60832516D01*
X160140952Y-60735754D01*
X160140952Y-60590611D01*
X160092571Y-60493849D01*
X159995809Y-60445468D01*
X159947428Y-60445468D01*
X159850666Y-60493849D01*
X159802285Y-60590611D01*
X159802285Y-60735754D01*
X159850666Y-60832516D01*
X160431238Y-62525849D02*
X160479619Y-62429087D01*
X160479619Y-62235563D01*
X160431238Y-62138801D01*
X160382857Y-62090420D01*
X160286095Y-62042040D01*
X159995809Y-62042040D01*
X159899047Y-62090420D01*
X159850666Y-62138801D01*
X159802285Y-62235563D01*
X159802285Y-62429087D01*
X159850666Y-62525849D01*
X159802285Y-63396706D02*
X160479619Y-63396706D01*
X159802285Y-62961278D02*
X160334476Y-62961278D01*
X160431238Y-63009659D01*
X160479619Y-63106420D01*
X160479619Y-63251563D01*
X160431238Y-63348325D01*
X160382857Y-63396706D01*
X159802285Y-63735373D02*
X159802285Y-64122420D01*
X159463619Y-63880516D02*
X160334476Y-63880516D01*
X160431238Y-63928897D01*
X160479619Y-64025659D01*
X160479619Y-64122420D01*
X160431238Y-64509468D02*
X160479619Y-64509468D01*
X160576380Y-64461087D01*
X160624761Y-64412706D01*
X162105219Y-40947944D02*
X161427885Y-40947944D01*
X161621409Y-40947944D02*
X161524647Y-40996325D01*
X161476266Y-41044706D01*
X161427885Y-41141468D01*
X161427885Y-41238230D01*
X162056838Y-41963944D02*
X162105219Y-41867182D01*
X162105219Y-41673659D01*
X162056838Y-41576897D01*
X161960076Y-41528516D01*
X161573028Y-41528516D01*
X161476266Y-41576897D01*
X161427885Y-41673659D01*
X161427885Y-41867182D01*
X161476266Y-41963944D01*
X161573028Y-42012325D01*
X161669790Y-42012325D01*
X161766552Y-41528516D01*
X162056838Y-42399373D02*
X162105219Y-42496135D01*
X162105219Y-42689659D01*
X162056838Y-42786420D01*
X161960076Y-42834801D01*
X161911695Y-42834801D01*
X161814933Y-42786420D01*
X161766552Y-42689659D01*
X161766552Y-42544516D01*
X161718171Y-42447754D01*
X161621409Y-42399373D01*
X161573028Y-42399373D01*
X161476266Y-42447754D01*
X161427885Y-42544516D01*
X161427885Y-42689659D01*
X161476266Y-42786420D01*
X161427885Y-43270230D02*
X162443885Y-43270230D01*
X161476266Y-43270230D02*
X161427885Y-43366992D01*
X161427885Y-43560516D01*
X161476266Y-43657278D01*
X161524647Y-43705659D01*
X161621409Y-43754040D01*
X161911695Y-43754040D01*
X162008457Y-43705659D01*
X162056838Y-43657278D01*
X162105219Y-43560516D01*
X162105219Y-43366992D01*
X162056838Y-43270230D01*
X162056838Y-44576516D02*
X162105219Y-44479754D01*
X162105219Y-44286230D01*
X162056838Y-44189468D01*
X161960076Y-44141087D01*
X161573028Y-44141087D01*
X161476266Y-44189468D01*
X161427885Y-44286230D01*
X161427885Y-44479754D01*
X161476266Y-44576516D01*
X161573028Y-44624897D01*
X161669790Y-44624897D01*
X161766552Y-44141087D01*
X162056838Y-45495754D02*
X162105219Y-45398992D01*
X162105219Y-45205468D01*
X162056838Y-45108706D01*
X162008457Y-45060325D01*
X161911695Y-45011944D01*
X161621409Y-45011944D01*
X161524647Y-45060325D01*
X161476266Y-45108706D01*
X161427885Y-45205468D01*
X161427885Y-45398992D01*
X161476266Y-45495754D01*
X161427885Y-45786040D02*
X161427885Y-46173087D01*
X161089219Y-45931182D02*
X161960076Y-45931182D01*
X162056838Y-45979563D01*
X162105219Y-46076325D01*
X162105219Y-46173087D01*
X162105219Y-46511754D02*
X161427885Y-46511754D01*
X161089219Y-46511754D02*
X161137600Y-46463373D01*
X161185980Y-46511754D01*
X161137600Y-46560135D01*
X161089219Y-46511754D01*
X161185980Y-46511754D01*
X161427885Y-46898801D02*
X162105219Y-47140706D01*
X161427885Y-47382611D01*
X162056838Y-48156706D02*
X162105219Y-48059944D01*
X162105219Y-47866420D01*
X162056838Y-47769659D01*
X161960076Y-47721278D01*
X161573028Y-47721278D01*
X161476266Y-47769659D01*
X161427885Y-47866420D01*
X161427885Y-48059944D01*
X161476266Y-48156706D01*
X161573028Y-48205087D01*
X161669790Y-48205087D01*
X161766552Y-47721278D01*
X162105219Y-48785659D02*
X162056838Y-48688897D01*
X161960076Y-48640516D01*
X161089219Y-48640516D01*
X161427885Y-49075944D02*
X162105219Y-49317849D01*
X161427885Y-49559754D02*
X162105219Y-49317849D01*
X162347123Y-49221087D01*
X162395504Y-49172706D01*
X162443885Y-49075944D01*
D11*
X141327142Y-45546190D02*
X141374761Y-45498571D01*
X141422380Y-45355714D01*
X141422380Y-45260476D01*
X141374761Y-45117619D01*
X141279523Y-45022380D01*
X141184285Y-44974761D01*
X140993809Y-44927142D01*
X140850952Y-44927142D01*
X140660476Y-44974761D01*
X140565238Y-45022380D01*
X140470000Y-45117619D01*
X140422380Y-45260476D01*
X140422380Y-45355714D01*
X140470000Y-45498571D01*
X140517619Y-45546190D01*
X140422380Y-46165238D02*
X140422380Y-46355714D01*
X140470000Y-46450952D01*
X140565238Y-46546190D01*
X140755714Y-46593809D01*
X141089047Y-46593809D01*
X141279523Y-46546190D01*
X141374761Y-46450952D01*
X141422380Y-46355714D01*
X141422380Y-46165238D01*
X141374761Y-46070000D01*
X141279523Y-45974761D01*
X141089047Y-45927142D01*
X140755714Y-45927142D01*
X140565238Y-45974761D01*
X140470000Y-46070000D01*
X140422380Y-46165238D01*
X141422380Y-47022380D02*
X140422380Y-47022380D01*
X140422380Y-47260476D01*
X140470000Y-47403333D01*
X140565238Y-47498571D01*
X140660476Y-47546190D01*
X140850952Y-47593809D01*
X140993809Y-47593809D01*
X141184285Y-47546190D01*
X141279523Y-47498571D01*
X141374761Y-47403333D01*
X141422380Y-47260476D01*
X141422380Y-47022380D01*
X140898571Y-48022380D02*
X140898571Y-48355714D01*
X141422380Y-48498571D02*
X141422380Y-48022380D01*
X140422380Y-48022380D01*
X140422380Y-48498571D01*
X141327142Y-49498571D02*
X141374761Y-49450952D01*
X141422380Y-49308095D01*
X141422380Y-49212857D01*
X141374761Y-49070000D01*
X141279523Y-48974761D01*
X141184285Y-48927142D01*
X140993809Y-48879523D01*
X140850952Y-48879523D01*
X140660476Y-48927142D01*
X140565238Y-48974761D01*
X140470000Y-49070000D01*
X140422380Y-49212857D01*
X140422380Y-49308095D01*
X140470000Y-49450952D01*
X140517619Y-49498571D01*
X141422380Y-50689047D02*
X140422380Y-50689047D01*
X140517619Y-51117619D02*
X140470000Y-51165238D01*
X140422380Y-51260476D01*
X140422380Y-51498571D01*
X140470000Y-51593809D01*
X140517619Y-51641428D01*
X140612857Y-51689047D01*
X140708095Y-51689047D01*
X140850952Y-51641428D01*
X141422380Y-51070000D01*
X141422380Y-51689047D01*
X141327142Y-52689047D02*
X141374761Y-52641428D01*
X141422380Y-52498571D01*
X141422380Y-52403333D01*
X141374761Y-52260476D01*
X141279523Y-52165238D01*
X141184285Y-52117619D01*
X140993809Y-52070000D01*
X140850952Y-52070000D01*
X140660476Y-52117619D01*
X140565238Y-52165238D01*
X140470000Y-52260476D01*
X140422380Y-52403333D01*
X140422380Y-52498571D01*
X140470000Y-52641428D01*
X140517619Y-52689047D01*
X141136666Y-53831904D02*
X141136666Y-54308095D01*
X141422380Y-53736666D02*
X140422380Y-54070000D01*
X141422380Y-54403333D01*
X141422380Y-55165238D02*
X140422380Y-55165238D01*
X141374761Y-55165238D02*
X141422380Y-55070000D01*
X141422380Y-54879523D01*
X141374761Y-54784285D01*
X141327142Y-54736666D01*
X141231904Y-54689047D01*
X140946190Y-54689047D01*
X140850952Y-54736666D01*
X140803333Y-54784285D01*
X140755714Y-54879523D01*
X140755714Y-55070000D01*
X140803333Y-55165238D01*
X141422380Y-56070000D02*
X140422380Y-56070000D01*
X141374761Y-56070000D02*
X141422380Y-55974761D01*
X141422380Y-55784285D01*
X141374761Y-55689047D01*
X141327142Y-55641428D01*
X141231904Y-55593809D01*
X140946190Y-55593809D01*
X140850952Y-55641428D01*
X140803333Y-55689047D01*
X140755714Y-55784285D01*
X140755714Y-55974761D01*
X140803333Y-56070000D01*
X141422380Y-56546190D02*
X140755714Y-56546190D01*
X140946190Y-56546190D02*
X140850952Y-56593809D01*
X140803333Y-56641428D01*
X140755714Y-56736666D01*
X140755714Y-56831904D01*
X141374761Y-57546190D02*
X141422380Y-57450952D01*
X141422380Y-57260476D01*
X141374761Y-57165238D01*
X141279523Y-57117619D01*
X140898571Y-57117619D01*
X140803333Y-57165238D01*
X140755714Y-57260476D01*
X140755714Y-57450952D01*
X140803333Y-57546190D01*
X140898571Y-57593809D01*
X140993809Y-57593809D01*
X141089047Y-57117619D01*
X141374761Y-57974761D02*
X141422380Y-58070000D01*
X141422380Y-58260476D01*
X141374761Y-58355714D01*
X141279523Y-58403333D01*
X141231904Y-58403333D01*
X141136666Y-58355714D01*
X141089047Y-58260476D01*
X141089047Y-58117619D01*
X141041428Y-58022380D01*
X140946190Y-57974761D01*
X140898571Y-57974761D01*
X140803333Y-58022380D01*
X140755714Y-58117619D01*
X140755714Y-58260476D01*
X140803333Y-58355714D01*
X141374761Y-58784285D02*
X141422380Y-58879523D01*
X141422380Y-59069999D01*
X141374761Y-59165238D01*
X141279523Y-59212857D01*
X141231904Y-59212857D01*
X141136666Y-59165238D01*
X141089047Y-59069999D01*
X141089047Y-58927142D01*
X141041428Y-58831904D01*
X140946190Y-58784285D01*
X140898571Y-58784285D01*
X140803333Y-58831904D01*
X140755714Y-58927142D01*
X140755714Y-59069999D01*
X140803333Y-59165238D01*
X144286666Y-56135476D02*
X144286666Y-56611666D01*
X144572380Y-56040238D02*
X143572380Y-56373571D01*
X144572380Y-56706904D01*
X144572380Y-57468809D02*
X143572380Y-57468809D01*
X144524761Y-57468809D02*
X144572380Y-57373571D01*
X144572380Y-57183095D01*
X144524761Y-57087857D01*
X144477142Y-57040238D01*
X144381904Y-56992619D01*
X144096190Y-56992619D01*
X144000952Y-57040238D01*
X143953333Y-57087857D01*
X143905714Y-57183095D01*
X143905714Y-57373571D01*
X143953333Y-57468809D01*
X144572380Y-58373571D02*
X143572380Y-58373571D01*
X144524761Y-58373571D02*
X144572380Y-58278333D01*
X144572380Y-58087857D01*
X144524761Y-57992619D01*
X144477142Y-57945000D01*
X144381904Y-57897380D01*
X144096190Y-57897380D01*
X144000952Y-57945000D01*
X143953333Y-57992619D01*
X143905714Y-58087857D01*
X143905714Y-58278333D01*
X143953333Y-58373571D01*
X144572380Y-58849761D02*
X143905714Y-58849761D01*
X144096190Y-58849761D02*
X144000952Y-58897380D01*
X143953333Y-58945000D01*
X143905714Y-59040238D01*
X143905714Y-59135476D01*
X144524761Y-59849761D02*
X144572380Y-59754523D01*
X144572380Y-59564047D01*
X144524761Y-59468809D01*
X144429523Y-59421190D01*
X144048571Y-59421190D01*
X143953333Y-59468809D01*
X143905714Y-59564047D01*
X143905714Y-59754523D01*
X143953333Y-59849761D01*
X144048571Y-59897380D01*
X144143809Y-59897380D01*
X144239047Y-59421190D01*
X144524761Y-60278333D02*
X144572380Y-60373571D01*
X144572380Y-60564047D01*
X144524761Y-60659285D01*
X144429523Y-60706904D01*
X144381904Y-60706904D01*
X144286666Y-60659285D01*
X144239047Y-60564047D01*
X144239047Y-60421190D01*
X144191428Y-60325952D01*
X144096190Y-60278333D01*
X144048571Y-60278333D01*
X143953333Y-60325952D01*
X143905714Y-60421190D01*
X143905714Y-60564047D01*
X143953333Y-60659285D01*
X144524761Y-61087857D02*
X144572380Y-61183095D01*
X144572380Y-61373571D01*
X144524761Y-61468809D01*
X144429523Y-61516428D01*
X144381904Y-61516428D01*
X144286666Y-61468809D01*
X144239047Y-61373571D01*
X144239047Y-61230714D01*
X144191428Y-61135476D01*
X144096190Y-61087857D01*
X144048571Y-61087857D01*
X143953333Y-61135476D01*
X143905714Y-61230714D01*
X143905714Y-61373571D01*
X143953333Y-61468809D01*
X145172380Y-56373571D02*
X145172380Y-56468809D01*
X145220000Y-56564047D01*
X145267619Y-56611666D01*
X145362857Y-56659285D01*
X145553333Y-56706904D01*
X145791428Y-56706904D01*
X145981904Y-56659285D01*
X146077142Y-56611666D01*
X146124761Y-56564047D01*
X146172380Y-56468809D01*
X146172380Y-56373571D01*
X146124761Y-56278333D01*
X146077142Y-56230714D01*
X145981904Y-56183095D01*
X145791428Y-56135476D01*
X145553333Y-56135476D01*
X145362857Y-56183095D01*
X145267619Y-56230714D01*
X145220000Y-56278333D01*
X145172380Y-56373571D01*
X146172380Y-57040238D02*
X145505714Y-57564047D01*
X145505714Y-57040238D02*
X146172380Y-57564047D01*
X145172380Y-57849761D02*
X145172380Y-58468809D01*
X145553333Y-58135476D01*
X145553333Y-58278333D01*
X145600952Y-58373571D01*
X145648571Y-58421190D01*
X145743809Y-58468809D01*
X145981904Y-58468809D01*
X146077142Y-58421190D01*
X146124761Y-58373571D01*
X146172380Y-58278333D01*
X146172380Y-57992619D01*
X146124761Y-57897380D01*
X146077142Y-57849761D01*
X145600952Y-59040238D02*
X145553333Y-58945000D01*
X145505714Y-58897380D01*
X145410476Y-58849761D01*
X145362857Y-58849761D01*
X145267619Y-58897380D01*
X145220000Y-58945000D01*
X145172380Y-59040238D01*
X145172380Y-59230714D01*
X145220000Y-59325952D01*
X145267619Y-59373571D01*
X145362857Y-59421190D01*
X145410476Y-59421190D01*
X145505714Y-59373571D01*
X145553333Y-59325952D01*
X145600952Y-59230714D01*
X145600952Y-59040238D01*
X145648571Y-58945000D01*
X145696190Y-58897380D01*
X145791428Y-58849761D01*
X145981904Y-58849761D01*
X146077142Y-58897380D01*
X146124761Y-58945000D01*
X146172380Y-59040238D01*
X146172380Y-59230714D01*
X146124761Y-59325952D01*
X146077142Y-59373571D01*
X145981904Y-59421190D01*
X145791428Y-59421190D01*
X145696190Y-59373571D01*
X145648571Y-59325952D01*
X145600952Y-59230714D01*
X145839047Y-60849761D02*
X145839047Y-60468809D01*
X146172380Y-61945000D02*
X145172380Y-61945000D01*
X145172380Y-62183095D01*
X145220000Y-62325952D01*
X145315238Y-62421190D01*
X145410476Y-62468809D01*
X145600952Y-62516428D01*
X145743809Y-62516428D01*
X145934285Y-62468809D01*
X146029523Y-62421190D01*
X146124761Y-62325952D01*
X146172380Y-62183095D01*
X146172380Y-61945000D01*
X146124761Y-63325952D02*
X146172380Y-63230714D01*
X146172380Y-63040238D01*
X146124761Y-62945000D01*
X146029523Y-62897380D01*
X145648571Y-62897380D01*
X145553333Y-62945000D01*
X145505714Y-63040238D01*
X145505714Y-63230714D01*
X145553333Y-63325952D01*
X145648571Y-63373571D01*
X145743809Y-63373571D01*
X145839047Y-62897380D01*
X145505714Y-63659285D02*
X145505714Y-64040238D01*
X146172380Y-63802142D02*
X145315238Y-63802142D01*
X145220000Y-63849761D01*
X145172380Y-63945000D01*
X145172380Y-64040238D01*
X146172380Y-64802142D02*
X145648571Y-64802142D01*
X145553333Y-64754523D01*
X145505714Y-64659285D01*
X145505714Y-64468809D01*
X145553333Y-64373571D01*
X146124761Y-64802142D02*
X146172380Y-64706904D01*
X146172380Y-64468809D01*
X146124761Y-64373571D01*
X146029523Y-64325952D01*
X145934285Y-64325952D01*
X145839047Y-64373571D01*
X145791428Y-64468809D01*
X145791428Y-64706904D01*
X145743809Y-64802142D01*
X145505714Y-65706904D02*
X146172380Y-65706904D01*
X145505714Y-65278333D02*
X146029523Y-65278333D01*
X146124761Y-65325952D01*
X146172380Y-65421190D01*
X146172380Y-65564047D01*
X146124761Y-65659285D01*
X146077142Y-65706904D01*
X146172380Y-66325952D02*
X146124761Y-66230714D01*
X146029523Y-66183095D01*
X145172380Y-66183095D01*
X145505714Y-66564047D02*
X145505714Y-66945000D01*
X145172380Y-66706904D02*
X146029523Y-66706904D01*
X146124761Y-66754523D01*
X146172380Y-66849761D01*
X146172380Y-66945000D01*
X146772380Y-56373571D02*
X146772380Y-56468809D01*
X146820000Y-56564047D01*
X146867619Y-56611666D01*
X146962857Y-56659285D01*
X147153333Y-56706904D01*
X147391428Y-56706904D01*
X147581904Y-56659285D01*
X147677142Y-56611666D01*
X147724761Y-56564047D01*
X147772380Y-56468809D01*
X147772380Y-56373571D01*
X147724761Y-56278333D01*
X147677142Y-56230714D01*
X147581904Y-56183095D01*
X147391428Y-56135476D01*
X147153333Y-56135476D01*
X146962857Y-56183095D01*
X146867619Y-56230714D01*
X146820000Y-56278333D01*
X146772380Y-56373571D01*
X147772380Y-57040238D02*
X147105714Y-57564047D01*
X147105714Y-57040238D02*
X147772380Y-57564047D01*
X146772380Y-57849761D02*
X146772380Y-58468809D01*
X147153333Y-58135476D01*
X147153333Y-58278333D01*
X147200952Y-58373571D01*
X147248571Y-58421190D01*
X147343809Y-58468809D01*
X147581904Y-58468809D01*
X147677142Y-58421190D01*
X147724761Y-58373571D01*
X147772380Y-58278333D01*
X147772380Y-57992619D01*
X147724761Y-57897380D01*
X147677142Y-57849761D01*
X147772380Y-58945000D02*
X147772380Y-59135476D01*
X147724761Y-59230714D01*
X147677142Y-59278333D01*
X147534285Y-59373571D01*
X147343809Y-59421190D01*
X146962857Y-59421190D01*
X146867619Y-59373571D01*
X146820000Y-59325952D01*
X146772380Y-59230714D01*
X146772380Y-59040238D01*
X146820000Y-58945000D01*
X146867619Y-58897380D01*
X146962857Y-58849761D01*
X147200952Y-58849761D01*
X147296190Y-58897380D01*
X147343809Y-58945000D01*
X147391428Y-59040238D01*
X147391428Y-59230714D01*
X147343809Y-59325952D01*
X147296190Y-59373571D01*
X147200952Y-59421190D01*
X148372380Y-56373571D02*
X148372380Y-56468809D01*
X148420000Y-56564047D01*
X148467619Y-56611666D01*
X148562857Y-56659285D01*
X148753333Y-56706904D01*
X148991428Y-56706904D01*
X149181904Y-56659285D01*
X149277142Y-56611666D01*
X149324761Y-56564047D01*
X149372380Y-56468809D01*
X149372380Y-56373571D01*
X149324761Y-56278333D01*
X149277142Y-56230714D01*
X149181904Y-56183095D01*
X148991428Y-56135476D01*
X148753333Y-56135476D01*
X148562857Y-56183095D01*
X148467619Y-56230714D01*
X148420000Y-56278333D01*
X148372380Y-56373571D01*
X149372380Y-57040238D02*
X148705714Y-57564047D01*
X148705714Y-57040238D02*
X149372380Y-57564047D01*
X148372380Y-57849761D02*
X148372380Y-58468809D01*
X148753333Y-58135476D01*
X148753333Y-58278333D01*
X148800952Y-58373571D01*
X148848571Y-58421190D01*
X148943809Y-58468809D01*
X149181904Y-58468809D01*
X149277142Y-58421190D01*
X149324761Y-58373571D01*
X149372380Y-58278333D01*
X149372380Y-57992619D01*
X149324761Y-57897380D01*
X149277142Y-57849761D01*
X149086666Y-58849761D02*
X149086666Y-59325952D01*
X149372380Y-58754523D02*
X148372380Y-59087857D01*
X149372380Y-59421190D01*
X149972380Y-56373571D02*
X149972380Y-56468809D01*
X150020000Y-56564047D01*
X150067619Y-56611666D01*
X150162857Y-56659285D01*
X150353333Y-56706904D01*
X150591428Y-56706904D01*
X150781904Y-56659285D01*
X150877142Y-56611666D01*
X150924761Y-56564047D01*
X150972380Y-56468809D01*
X150972380Y-56373571D01*
X150924761Y-56278333D01*
X150877142Y-56230714D01*
X150781904Y-56183095D01*
X150591428Y-56135476D01*
X150353333Y-56135476D01*
X150162857Y-56183095D01*
X150067619Y-56230714D01*
X150020000Y-56278333D01*
X149972380Y-56373571D01*
X150972380Y-57040238D02*
X150305714Y-57564047D01*
X150305714Y-57040238D02*
X150972380Y-57564047D01*
X149972380Y-57849761D02*
X149972380Y-58468809D01*
X150353333Y-58135476D01*
X150353333Y-58278333D01*
X150400952Y-58373571D01*
X150448571Y-58421190D01*
X150543809Y-58468809D01*
X150781904Y-58468809D01*
X150877142Y-58421190D01*
X150924761Y-58373571D01*
X150972380Y-58278333D01*
X150972380Y-57992619D01*
X150924761Y-57897380D01*
X150877142Y-57849761D01*
X150448571Y-59230714D02*
X150496190Y-59373571D01*
X150543809Y-59421190D01*
X150639047Y-59468809D01*
X150781904Y-59468809D01*
X150877142Y-59421190D01*
X150924761Y-59373571D01*
X150972380Y-59278333D01*
X150972380Y-58897380D01*
X149972380Y-58897380D01*
X149972380Y-59230714D01*
X150020000Y-59325952D01*
X150067619Y-59373571D01*
X150162857Y-59421190D01*
X150258095Y-59421190D01*
X150353333Y-59373571D01*
X150400952Y-59325952D01*
X150448571Y-59230714D01*
X150448571Y-58897380D01*
X143572380Y-50118809D02*
X144286666Y-50118809D01*
X144429523Y-50071190D01*
X144524761Y-49975952D01*
X144572380Y-49833095D01*
X144572380Y-49737857D01*
X144572380Y-50595000D02*
X143572380Y-50595000D01*
X143572380Y-50975952D01*
X143620000Y-51071190D01*
X143667619Y-51118809D01*
X143762857Y-51166428D01*
X143905714Y-51166428D01*
X144000952Y-51118809D01*
X144048571Y-51071190D01*
X144096190Y-50975952D01*
X144096190Y-50595000D01*
X143667619Y-51547380D02*
X143620000Y-51595000D01*
X143572380Y-51690238D01*
X143572380Y-51928333D01*
X143620000Y-52023571D01*
X143667619Y-52071190D01*
X143762857Y-52118809D01*
X143858095Y-52118809D01*
X144000952Y-52071190D01*
X144572380Y-51499761D01*
X144572380Y-52118809D01*
X146077142Y-50404523D02*
X146124761Y-50356904D01*
X146172380Y-50214047D01*
X146172380Y-50118809D01*
X146124761Y-49975952D01*
X146029523Y-49880714D01*
X145934285Y-49833095D01*
X145743809Y-49785476D01*
X145600952Y-49785476D01*
X145410476Y-49833095D01*
X145315238Y-49880714D01*
X145220000Y-49975952D01*
X145172380Y-50118809D01*
X145172380Y-50214047D01*
X145220000Y-50356904D01*
X145267619Y-50404523D01*
X146172380Y-50975952D02*
X146124761Y-50880714D01*
X146029523Y-50833095D01*
X145172380Y-50833095D01*
X146172380Y-51499761D02*
X146124761Y-51404523D01*
X146077142Y-51356904D01*
X145981904Y-51309285D01*
X145696190Y-51309285D01*
X145600952Y-51356904D01*
X145553333Y-51404523D01*
X145505714Y-51499761D01*
X145505714Y-51642619D01*
X145553333Y-51737857D01*
X145600952Y-51785476D01*
X145696190Y-51833095D01*
X145981904Y-51833095D01*
X146077142Y-51785476D01*
X146124761Y-51737857D01*
X146172380Y-51642619D01*
X146172380Y-51499761D01*
X146124761Y-52214047D02*
X146172380Y-52309285D01*
X146172380Y-52499761D01*
X146124761Y-52595000D01*
X146029523Y-52642619D01*
X145981904Y-52642619D01*
X145886666Y-52595000D01*
X145839047Y-52499761D01*
X145839047Y-52356904D01*
X145791428Y-52261666D01*
X145696190Y-52214047D01*
X145648571Y-52214047D01*
X145553333Y-52261666D01*
X145505714Y-52356904D01*
X145505714Y-52499761D01*
X145553333Y-52595000D01*
X146124761Y-53452142D02*
X146172380Y-53356904D01*
X146172380Y-53166428D01*
X146124761Y-53071190D01*
X146029523Y-53023571D01*
X145648571Y-53023571D01*
X145553333Y-53071190D01*
X145505714Y-53166428D01*
X145505714Y-53356904D01*
X145553333Y-53452142D01*
X145648571Y-53499761D01*
X145743809Y-53499761D01*
X145839047Y-53023571D01*
X146172380Y-54356904D02*
X145172380Y-54356904D01*
X146124761Y-54356904D02*
X146172380Y-54261666D01*
X146172380Y-54071190D01*
X146124761Y-53975952D01*
X146077142Y-53928333D01*
X145981904Y-53880714D01*
X145696190Y-53880714D01*
X145600952Y-53928333D01*
X145553333Y-53975952D01*
X145505714Y-54071190D01*
X145505714Y-54261666D01*
X145553333Y-54356904D01*
X147677142Y-50404523D02*
X147724761Y-50356904D01*
X147772380Y-50214047D01*
X147772380Y-50118809D01*
X147724761Y-49975952D01*
X147629523Y-49880714D01*
X147534285Y-49833095D01*
X147343809Y-49785476D01*
X147200952Y-49785476D01*
X147010476Y-49833095D01*
X146915238Y-49880714D01*
X146820000Y-49975952D01*
X146772380Y-50118809D01*
X146772380Y-50214047D01*
X146820000Y-50356904D01*
X146867619Y-50404523D01*
X147772380Y-50975952D02*
X147724761Y-50880714D01*
X147629523Y-50833095D01*
X146772380Y-50833095D01*
X147772380Y-51499761D02*
X147724761Y-51404523D01*
X147677142Y-51356904D01*
X147581904Y-51309285D01*
X147296190Y-51309285D01*
X147200952Y-51356904D01*
X147153333Y-51404523D01*
X147105714Y-51499761D01*
X147105714Y-51642619D01*
X147153333Y-51737857D01*
X147200952Y-51785476D01*
X147296190Y-51833095D01*
X147581904Y-51833095D01*
X147677142Y-51785476D01*
X147724761Y-51737857D01*
X147772380Y-51642619D01*
X147772380Y-51499761D01*
X147724761Y-52214047D02*
X147772380Y-52309285D01*
X147772380Y-52499761D01*
X147724761Y-52595000D01*
X147629523Y-52642619D01*
X147581904Y-52642619D01*
X147486666Y-52595000D01*
X147439047Y-52499761D01*
X147439047Y-52356904D01*
X147391428Y-52261666D01*
X147296190Y-52214047D01*
X147248571Y-52214047D01*
X147153333Y-52261666D01*
X147105714Y-52356904D01*
X147105714Y-52499761D01*
X147153333Y-52595000D01*
X147724761Y-53452142D02*
X147772380Y-53356904D01*
X147772380Y-53166428D01*
X147724761Y-53071190D01*
X147629523Y-53023571D01*
X147248571Y-53023571D01*
X147153333Y-53071190D01*
X147105714Y-53166428D01*
X147105714Y-53356904D01*
X147153333Y-53452142D01*
X147248571Y-53499761D01*
X147343809Y-53499761D01*
X147439047Y-53023571D01*
X147772380Y-54356904D02*
X146772380Y-54356904D01*
X147724761Y-54356904D02*
X147772380Y-54261666D01*
X147772380Y-54071190D01*
X147724761Y-53975952D01*
X147677142Y-53928333D01*
X147581904Y-53880714D01*
X147296190Y-53880714D01*
X147200952Y-53928333D01*
X147153333Y-53975952D01*
X147105714Y-54071190D01*
X147105714Y-54261666D01*
X147153333Y-54356904D01*
X148372380Y-50023571D02*
X148372380Y-50214047D01*
X148420000Y-50309285D01*
X148515238Y-50404523D01*
X148705714Y-50452142D01*
X149039047Y-50452142D01*
X149229523Y-50404523D01*
X149324761Y-50309285D01*
X149372380Y-50214047D01*
X149372380Y-50023571D01*
X149324761Y-49928333D01*
X149229523Y-49833095D01*
X149039047Y-49785476D01*
X148705714Y-49785476D01*
X148515238Y-49833095D01*
X148420000Y-49928333D01*
X148372380Y-50023571D01*
X148705714Y-50880714D02*
X149705714Y-50880714D01*
X148753333Y-50880714D02*
X148705714Y-50975952D01*
X148705714Y-51166428D01*
X148753333Y-51261666D01*
X148800952Y-51309285D01*
X148896190Y-51356904D01*
X149181904Y-51356904D01*
X149277142Y-51309285D01*
X149324761Y-51261666D01*
X149372380Y-51166428D01*
X149372380Y-50975952D01*
X149324761Y-50880714D01*
X149324761Y-52166428D02*
X149372380Y-52071190D01*
X149372380Y-51880714D01*
X149324761Y-51785476D01*
X149229523Y-51737857D01*
X148848571Y-51737857D01*
X148753333Y-51785476D01*
X148705714Y-51880714D01*
X148705714Y-52071190D01*
X148753333Y-52166428D01*
X148848571Y-52214047D01*
X148943809Y-52214047D01*
X149039047Y-51737857D01*
X148705714Y-52642619D02*
X149372380Y-52642619D01*
X148800952Y-52642619D02*
X148753333Y-52690238D01*
X148705714Y-52785476D01*
X148705714Y-52928333D01*
X148753333Y-53023571D01*
X148848571Y-53071190D01*
X149372380Y-53071190D01*
X149972380Y-50023571D02*
X149972380Y-50214047D01*
X150020000Y-50309285D01*
X150115238Y-50404523D01*
X150305714Y-50452142D01*
X150639047Y-50452142D01*
X150829523Y-50404523D01*
X150924761Y-50309285D01*
X150972380Y-50214047D01*
X150972380Y-50023571D01*
X150924761Y-49928333D01*
X150829523Y-49833095D01*
X150639047Y-49785476D01*
X150305714Y-49785476D01*
X150115238Y-49833095D01*
X150020000Y-49928333D01*
X149972380Y-50023571D01*
X150305714Y-50880714D02*
X151305714Y-50880714D01*
X150353333Y-50880714D02*
X150305714Y-50975952D01*
X150305714Y-51166428D01*
X150353333Y-51261666D01*
X150400952Y-51309285D01*
X150496190Y-51356904D01*
X150781904Y-51356904D01*
X150877142Y-51309285D01*
X150924761Y-51261666D01*
X150972380Y-51166428D01*
X150972380Y-50975952D01*
X150924761Y-50880714D01*
X150924761Y-52166428D02*
X150972380Y-52071190D01*
X150972380Y-51880714D01*
X150924761Y-51785476D01*
X150829523Y-51737857D01*
X150448571Y-51737857D01*
X150353333Y-51785476D01*
X150305714Y-51880714D01*
X150305714Y-52071190D01*
X150353333Y-52166428D01*
X150448571Y-52214047D01*
X150543809Y-52214047D01*
X150639047Y-51737857D01*
X150305714Y-52642619D02*
X150972380Y-52642619D01*
X150400952Y-52642619D02*
X150353333Y-52690238D01*
X150305714Y-52785476D01*
X150305714Y-52928333D01*
X150353333Y-53023571D01*
X150448571Y-53071190D01*
X150972380Y-53071190D01*
X143572380Y-43768809D02*
X144286666Y-43768809D01*
X144429523Y-43721190D01*
X144524761Y-43625952D01*
X144572380Y-43483095D01*
X144572380Y-43387857D01*
X144572380Y-44245000D02*
X143572380Y-44245000D01*
X143572380Y-44625952D01*
X143620000Y-44721190D01*
X143667619Y-44768809D01*
X143762857Y-44816428D01*
X143905714Y-44816428D01*
X144000952Y-44768809D01*
X144048571Y-44721190D01*
X144096190Y-44625952D01*
X144096190Y-44245000D01*
X144572380Y-45768809D02*
X144572380Y-45197380D01*
X144572380Y-45483095D02*
X143572380Y-45483095D01*
X143715238Y-45387857D01*
X143810476Y-45292619D01*
X143858095Y-45197380D01*
X146077142Y-44054523D02*
X146124761Y-44006904D01*
X146172380Y-43864047D01*
X146172380Y-43768809D01*
X146124761Y-43625952D01*
X146029523Y-43530714D01*
X145934285Y-43483095D01*
X145743809Y-43435476D01*
X145600952Y-43435476D01*
X145410476Y-43483095D01*
X145315238Y-43530714D01*
X145220000Y-43625952D01*
X145172380Y-43768809D01*
X145172380Y-43864047D01*
X145220000Y-44006904D01*
X145267619Y-44054523D01*
X146172380Y-44625952D02*
X146124761Y-44530714D01*
X146029523Y-44483095D01*
X145172380Y-44483095D01*
X146172380Y-45149761D02*
X146124761Y-45054523D01*
X146077142Y-45006904D01*
X145981904Y-44959285D01*
X145696190Y-44959285D01*
X145600952Y-45006904D01*
X145553333Y-45054523D01*
X145505714Y-45149761D01*
X145505714Y-45292619D01*
X145553333Y-45387857D01*
X145600952Y-45435476D01*
X145696190Y-45483095D01*
X145981904Y-45483095D01*
X146077142Y-45435476D01*
X146124761Y-45387857D01*
X146172380Y-45292619D01*
X146172380Y-45149761D01*
X146124761Y-45864047D02*
X146172380Y-45959285D01*
X146172380Y-46149761D01*
X146124761Y-46245000D01*
X146029523Y-46292619D01*
X145981904Y-46292619D01*
X145886666Y-46245000D01*
X145839047Y-46149761D01*
X145839047Y-46006904D01*
X145791428Y-45911666D01*
X145696190Y-45864047D01*
X145648571Y-45864047D01*
X145553333Y-45911666D01*
X145505714Y-46006904D01*
X145505714Y-46149761D01*
X145553333Y-46245000D01*
X146124761Y-47102142D02*
X146172380Y-47006904D01*
X146172380Y-46816428D01*
X146124761Y-46721190D01*
X146029523Y-46673571D01*
X145648571Y-46673571D01*
X145553333Y-46721190D01*
X145505714Y-46816428D01*
X145505714Y-47006904D01*
X145553333Y-47102142D01*
X145648571Y-47149761D01*
X145743809Y-47149761D01*
X145839047Y-46673571D01*
X146172380Y-48006904D02*
X145172380Y-48006904D01*
X146124761Y-48006904D02*
X146172380Y-47911666D01*
X146172380Y-47721190D01*
X146124761Y-47625952D01*
X146077142Y-47578333D01*
X145981904Y-47530714D01*
X145696190Y-47530714D01*
X145600952Y-47578333D01*
X145553333Y-47625952D01*
X145505714Y-47721190D01*
X145505714Y-47911666D01*
X145553333Y-48006904D01*
X146772380Y-43673571D02*
X146772380Y-43864047D01*
X146820000Y-43959285D01*
X146915238Y-44054523D01*
X147105714Y-44102142D01*
X147439047Y-44102142D01*
X147629523Y-44054523D01*
X147724761Y-43959285D01*
X147772380Y-43864047D01*
X147772380Y-43673571D01*
X147724761Y-43578333D01*
X147629523Y-43483095D01*
X147439047Y-43435476D01*
X147105714Y-43435476D01*
X146915238Y-43483095D01*
X146820000Y-43578333D01*
X146772380Y-43673571D01*
X147105714Y-44530714D02*
X148105714Y-44530714D01*
X147153333Y-44530714D02*
X147105714Y-44625952D01*
X147105714Y-44816428D01*
X147153333Y-44911666D01*
X147200952Y-44959285D01*
X147296190Y-45006904D01*
X147581904Y-45006904D01*
X147677142Y-44959285D01*
X147724761Y-44911666D01*
X147772380Y-44816428D01*
X147772380Y-44625952D01*
X147724761Y-44530714D01*
X147724761Y-45816428D02*
X147772380Y-45721190D01*
X147772380Y-45530714D01*
X147724761Y-45435476D01*
X147629523Y-45387857D01*
X147248571Y-45387857D01*
X147153333Y-45435476D01*
X147105714Y-45530714D01*
X147105714Y-45721190D01*
X147153333Y-45816428D01*
X147248571Y-45864047D01*
X147343809Y-45864047D01*
X147439047Y-45387857D01*
X147105714Y-46292619D02*
X147772380Y-46292619D01*
X147200952Y-46292619D02*
X147153333Y-46340238D01*
X147105714Y-46435476D01*
X147105714Y-46578333D01*
X147153333Y-46673571D01*
X147248571Y-46721190D01*
X147772380Y-46721190D01*
X149277142Y-44054523D02*
X149324761Y-44006904D01*
X149372380Y-43864047D01*
X149372380Y-43768809D01*
X149324761Y-43625952D01*
X149229523Y-43530714D01*
X149134285Y-43483095D01*
X148943809Y-43435476D01*
X148800952Y-43435476D01*
X148610476Y-43483095D01*
X148515238Y-43530714D01*
X148420000Y-43625952D01*
X148372380Y-43768809D01*
X148372380Y-43864047D01*
X148420000Y-44006904D01*
X148467619Y-44054523D01*
X149372380Y-44625952D02*
X149324761Y-44530714D01*
X149229523Y-44483095D01*
X148372380Y-44483095D01*
X149372380Y-45149761D02*
X149324761Y-45054523D01*
X149277142Y-45006904D01*
X149181904Y-44959285D01*
X148896190Y-44959285D01*
X148800952Y-45006904D01*
X148753333Y-45054523D01*
X148705714Y-45149761D01*
X148705714Y-45292619D01*
X148753333Y-45387857D01*
X148800952Y-45435476D01*
X148896190Y-45483095D01*
X149181904Y-45483095D01*
X149277142Y-45435476D01*
X149324761Y-45387857D01*
X149372380Y-45292619D01*
X149372380Y-45149761D01*
X149324761Y-45864047D02*
X149372380Y-45959285D01*
X149372380Y-46149761D01*
X149324761Y-46245000D01*
X149229523Y-46292619D01*
X149181904Y-46292619D01*
X149086666Y-46245000D01*
X149039047Y-46149761D01*
X149039047Y-46006904D01*
X148991428Y-45911666D01*
X148896190Y-45864047D01*
X148848571Y-45864047D01*
X148753333Y-45911666D01*
X148705714Y-46006904D01*
X148705714Y-46149761D01*
X148753333Y-46245000D01*
X149324761Y-47102142D02*
X149372380Y-47006904D01*
X149372380Y-46816428D01*
X149324761Y-46721190D01*
X149229523Y-46673571D01*
X148848571Y-46673571D01*
X148753333Y-46721190D01*
X148705714Y-46816428D01*
X148705714Y-47006904D01*
X148753333Y-47102142D01*
X148848571Y-47149761D01*
X148943809Y-47149761D01*
X149039047Y-46673571D01*
X149372380Y-48006904D02*
X148372380Y-48006904D01*
X149324761Y-48006904D02*
X149372380Y-47911666D01*
X149372380Y-47721190D01*
X149324761Y-47625952D01*
X149277142Y-47578333D01*
X149181904Y-47530714D01*
X148896190Y-47530714D01*
X148800952Y-47578333D01*
X148753333Y-47625952D01*
X148705714Y-47721190D01*
X148705714Y-47911666D01*
X148753333Y-48006904D01*
X149972380Y-43673571D02*
X149972380Y-43864047D01*
X150020000Y-43959285D01*
X150115238Y-44054523D01*
X150305714Y-44102142D01*
X150639047Y-44102142D01*
X150829523Y-44054523D01*
X150924761Y-43959285D01*
X150972380Y-43864047D01*
X150972380Y-43673571D01*
X150924761Y-43578333D01*
X150829523Y-43483095D01*
X150639047Y-43435476D01*
X150305714Y-43435476D01*
X150115238Y-43483095D01*
X150020000Y-43578333D01*
X149972380Y-43673571D01*
X150305714Y-44530714D02*
X151305714Y-44530714D01*
X150353333Y-44530714D02*
X150305714Y-44625952D01*
X150305714Y-44816428D01*
X150353333Y-44911666D01*
X150400952Y-44959285D01*
X150496190Y-45006904D01*
X150781904Y-45006904D01*
X150877142Y-44959285D01*
X150924761Y-44911666D01*
X150972380Y-44816428D01*
X150972380Y-44625952D01*
X150924761Y-44530714D01*
X150924761Y-45816428D02*
X150972380Y-45721190D01*
X150972380Y-45530714D01*
X150924761Y-45435476D01*
X150829523Y-45387857D01*
X150448571Y-45387857D01*
X150353333Y-45435476D01*
X150305714Y-45530714D01*
X150305714Y-45721190D01*
X150353333Y-45816428D01*
X150448571Y-45864047D01*
X150543809Y-45864047D01*
X150639047Y-45387857D01*
X150305714Y-46292619D02*
X150972380Y-46292619D01*
X150400952Y-46292619D02*
X150353333Y-46340238D01*
X150305714Y-46435476D01*
X150305714Y-46578333D01*
X150353333Y-46673571D01*
X150448571Y-46721190D01*
X150972380Y-46721190D01*
D12*
X133400000Y-41523214D02*
X133328571Y-41451785D01*
X133114285Y-41308928D01*
X132971428Y-41237500D01*
X132757142Y-41166071D01*
X132400000Y-41094642D01*
X132114285Y-41094642D01*
X131757142Y-41166071D01*
X131542857Y-41237500D01*
X131400000Y-41308928D01*
X131185714Y-41451785D01*
X131114285Y-41523214D01*
X132685714Y-42951785D02*
X132757142Y-42880357D01*
X132828571Y-42666071D01*
X132828571Y-42523214D01*
X132757142Y-42308928D01*
X132614285Y-42166071D01*
X132471428Y-42094642D01*
X132185714Y-42023214D01*
X131971428Y-42023214D01*
X131685714Y-42094642D01*
X131542857Y-42166071D01*
X131400000Y-42308928D01*
X131328571Y-42523214D01*
X131328571Y-42666071D01*
X131400000Y-42880357D01*
X131471428Y-42951785D01*
X133400000Y-43451785D02*
X133328571Y-43523214D01*
X133114285Y-43666071D01*
X132971428Y-43737500D01*
X132757142Y-43808928D01*
X132400000Y-43880357D01*
X132114285Y-43880357D01*
X131757142Y-43808928D01*
X131542857Y-43737500D01*
X131400000Y-43666071D01*
X131185714Y-43523214D01*
X131114285Y-43451785D01*
X132757142Y-45666071D02*
X132828571Y-45880357D01*
X132828571Y-46237500D01*
X132757142Y-46380357D01*
X132685714Y-46451785D01*
X132542857Y-46523214D01*
X132400000Y-46523214D01*
X132257142Y-46451785D01*
X132185714Y-46380357D01*
X132114285Y-46237500D01*
X132042857Y-45951785D01*
X131971428Y-45808928D01*
X131900000Y-45737500D01*
X131757142Y-45666071D01*
X131614285Y-45666071D01*
X131471428Y-45737500D01*
X131400000Y-45808928D01*
X131328571Y-45951785D01*
X131328571Y-46308928D01*
X131400000Y-46523214D01*
X132757142Y-47737500D02*
X132828571Y-47594642D01*
X132828571Y-47308928D01*
X132757142Y-47166071D01*
X132614285Y-47094642D01*
X132042857Y-47094642D01*
X131900000Y-47166071D01*
X131828571Y-47308928D01*
X131828571Y-47594642D01*
X131900000Y-47737500D01*
X132042857Y-47808928D01*
X132185714Y-47808928D01*
X132328571Y-47094642D01*
X132828571Y-48451785D02*
X131828571Y-48451785D01*
X131328571Y-48451785D02*
X131400000Y-48380357D01*
X131471428Y-48451785D01*
X131400000Y-48523214D01*
X131328571Y-48451785D01*
X131471428Y-48451785D01*
X132828571Y-49166071D02*
X131828571Y-49166071D01*
X131328571Y-49166071D02*
X131400000Y-49094642D01*
X131471428Y-49166071D01*
X131400000Y-49237500D01*
X131328571Y-49166071D01*
X131471428Y-49166071D01*
X132757142Y-50523214D02*
X132828571Y-50380357D01*
X132828571Y-50094642D01*
X132757142Y-49951785D01*
X132685714Y-49880357D01*
X132542857Y-49808928D01*
X132114285Y-49808928D01*
X131971428Y-49880357D01*
X131900000Y-49951785D01*
X131828571Y-50094642D01*
X131828571Y-50380357D01*
X131900000Y-50523214D01*
X132828571Y-51166071D02*
X131328571Y-51166071D01*
X132828571Y-51808928D02*
X132042857Y-51808928D01*
X131900000Y-51737500D01*
X131828571Y-51594642D01*
X131828571Y-51380357D01*
X131900000Y-51237500D01*
X131971428Y-51166071D01*
X132828571Y-52523214D02*
X131828571Y-52523214D01*
X131328571Y-52523214D02*
X131400000Y-52451785D01*
X131471428Y-52523214D01*
X131400000Y-52594642D01*
X131328571Y-52523214D01*
X131471428Y-52523214D01*
X132828571Y-54380357D02*
X131328571Y-54380357D01*
X132042857Y-54380357D02*
X132042857Y-55237500D01*
X132828571Y-55237500D02*
X131328571Y-55237500D01*
X132828571Y-56166071D02*
X132757142Y-56023214D01*
X132685714Y-55951785D01*
X132542857Y-55880357D01*
X132114285Y-55880357D01*
X131971428Y-55951785D01*
X131900000Y-56023214D01*
X131828571Y-56166071D01*
X131828571Y-56380357D01*
X131900000Y-56523214D01*
X131971428Y-56594642D01*
X132114285Y-56666071D01*
X132542857Y-56666071D01*
X132685714Y-56594642D01*
X132757142Y-56523214D01*
X132828571Y-56380357D01*
X132828571Y-56166071D01*
X132828571Y-57308928D02*
X131828571Y-57308928D01*
X132114285Y-57308928D02*
X131971428Y-57380357D01*
X131900000Y-57451785D01*
X131828571Y-57594642D01*
X131828571Y-57737500D01*
X132828571Y-58237500D02*
X131828571Y-58237500D01*
X131328571Y-58237500D02*
X131400000Y-58166071D01*
X131471428Y-58237500D01*
X131400000Y-58308928D01*
X131328571Y-58237500D01*
X131471428Y-58237500D01*
X132757142Y-59523214D02*
X132828571Y-59380357D01*
X132828571Y-59094642D01*
X132757142Y-58951785D01*
X132614285Y-58880357D01*
X132042857Y-58880357D01*
X131900000Y-58951785D01*
X131828571Y-59094642D01*
X131828571Y-59380357D01*
X131900000Y-59523214D01*
X132042857Y-59594642D01*
X132185714Y-59594642D01*
X132328571Y-58880357D01*
X131471428Y-61308928D02*
X131400000Y-61380357D01*
X131328571Y-61523214D01*
X131328571Y-61880357D01*
X131400000Y-62023214D01*
X131471428Y-62094642D01*
X131614285Y-62166071D01*
X131757142Y-62166071D01*
X131971428Y-62094642D01*
X132828571Y-61237500D01*
X132828571Y-62166071D01*
X131328571Y-63094642D02*
X131328571Y-63237500D01*
X131400000Y-63380357D01*
X131471428Y-63451785D01*
X131614285Y-63523214D01*
X131900000Y-63594642D01*
X132257142Y-63594642D01*
X132542857Y-63523214D01*
X132685714Y-63451785D01*
X132757142Y-63380357D01*
X132828571Y-63237500D01*
X132828571Y-63094642D01*
X132757142Y-62951785D01*
X132685714Y-62880357D01*
X132542857Y-62808928D01*
X132257142Y-62737500D01*
X131900000Y-62737500D01*
X131614285Y-62808928D01*
X131471428Y-62880357D01*
X131400000Y-62951785D01*
X131328571Y-63094642D01*
X131471428Y-64166071D02*
X131400000Y-64237500D01*
X131328571Y-64380357D01*
X131328571Y-64737499D01*
X131400000Y-64880357D01*
X131471428Y-64951785D01*
X131614285Y-65023214D01*
X131757142Y-65023214D01*
X131971428Y-64951785D01*
X132828571Y-64094642D01*
X132828571Y-65023214D01*
X131328571Y-65951785D02*
X131328571Y-66094642D01*
X131400000Y-66237499D01*
X131471428Y-66308928D01*
X131614285Y-66380357D01*
X131900000Y-66451785D01*
X132257142Y-66451785D01*
X132542857Y-66380357D01*
X132685714Y-66308928D01*
X132757142Y-66237499D01*
X132828571Y-66094642D01*
X132828571Y-65951785D01*
X132757142Y-65808928D01*
X132685714Y-65737499D01*
X132542857Y-65666071D01*
X132257142Y-65594642D01*
X131900000Y-65594642D01*
X131614285Y-65666071D01*
X131471428Y-65737499D01*
X131400000Y-65808928D01*
X131328571Y-65951785D01*
X135228571Y-41094642D02*
X133728571Y-41094642D01*
X135228571Y-41737500D02*
X134442857Y-41737500D01*
X134300000Y-41666071D01*
X134228571Y-41523214D01*
X134228571Y-41308928D01*
X134300000Y-41166071D01*
X134371428Y-41094642D01*
X134228571Y-42237500D02*
X134228571Y-42808928D01*
X133728571Y-42451785D02*
X135014285Y-42451785D01*
X135157142Y-42523214D01*
X135228571Y-42666071D01*
X135228571Y-42808928D01*
X134228571Y-43094642D02*
X134228571Y-43666071D01*
X133728571Y-43308928D02*
X135014285Y-43308928D01*
X135157142Y-43380357D01*
X135228571Y-43523214D01*
X135228571Y-43666071D01*
X134228571Y-44166071D02*
X135728571Y-44166071D01*
X134300000Y-44166071D02*
X134228571Y-44308928D01*
X134228571Y-44594642D01*
X134300000Y-44737500D01*
X134371428Y-44808928D01*
X134514285Y-44880357D01*
X134942857Y-44880357D01*
X135085714Y-44808928D01*
X135157142Y-44737500D01*
X135228571Y-44594642D01*
X135228571Y-44308928D01*
X135157142Y-44166071D01*
X135157142Y-45451785D02*
X135228571Y-45594642D01*
X135228571Y-45880357D01*
X135157142Y-46023214D01*
X135014285Y-46094642D01*
X134942857Y-46094642D01*
X134800000Y-46023214D01*
X134728571Y-45880357D01*
X134728571Y-45666071D01*
X134657142Y-45523214D01*
X134514285Y-45451785D01*
X134442857Y-45451785D01*
X134300000Y-45523214D01*
X134228571Y-45666071D01*
X134228571Y-45880357D01*
X134300000Y-46023214D01*
X135085714Y-46737500D02*
X135157142Y-46808928D01*
X135228571Y-46737500D01*
X135157142Y-46666071D01*
X135085714Y-46737500D01*
X135228571Y-46737500D01*
X134300000Y-46737500D02*
X134371428Y-46808928D01*
X134442857Y-46737500D01*
X134371428Y-46666071D01*
X134300000Y-46737500D01*
X134442857Y-46737500D01*
X133657142Y-48523214D02*
X135585714Y-47237500D01*
X133657142Y-50094642D02*
X135585714Y-48808928D01*
X134228571Y-51237500D02*
X135442857Y-51237500D01*
X135585714Y-51166071D01*
X135657142Y-51094642D01*
X135728571Y-50951785D01*
X135728571Y-50737500D01*
X135657142Y-50594642D01*
X135157142Y-51237500D02*
X135228571Y-51094642D01*
X135228571Y-50808928D01*
X135157142Y-50666071D01*
X135085714Y-50594642D01*
X134942857Y-50523214D01*
X134514285Y-50523214D01*
X134371428Y-50594642D01*
X134300000Y-50666071D01*
X134228571Y-50808928D01*
X134228571Y-51094642D01*
X134300000Y-51237500D01*
X135228571Y-51951785D02*
X134228571Y-51951785D01*
X133728571Y-51951785D02*
X133800000Y-51880357D01*
X133871428Y-51951785D01*
X133800000Y-52023214D01*
X133728571Y-51951785D01*
X133871428Y-51951785D01*
X134228571Y-52451785D02*
X134228571Y-53023214D01*
X133728571Y-52666071D02*
X135014285Y-52666071D01*
X135157142Y-52737500D01*
X135228571Y-52880357D01*
X135228571Y-53023214D01*
X135228571Y-53523214D02*
X133728571Y-53523214D01*
X135228571Y-54166071D02*
X134442857Y-54166071D01*
X134300000Y-54094642D01*
X134228571Y-53951785D01*
X134228571Y-53737500D01*
X134300000Y-53594642D01*
X134371428Y-53523214D01*
X134228571Y-55523214D02*
X135228571Y-55523214D01*
X134228571Y-54880357D02*
X135014285Y-54880357D01*
X135157142Y-54951785D01*
X135228571Y-55094642D01*
X135228571Y-55308928D01*
X135157142Y-55451785D01*
X135085714Y-55523214D01*
X135228571Y-56237500D02*
X133728571Y-56237500D01*
X134300000Y-56237500D02*
X134228571Y-56380357D01*
X134228571Y-56666071D01*
X134300000Y-56808928D01*
X134371428Y-56880357D01*
X134514285Y-56951785D01*
X134942857Y-56951785D01*
X135085714Y-56880357D01*
X135157142Y-56808928D01*
X135228571Y-56666071D01*
X135228571Y-56380357D01*
X135157142Y-56237500D01*
X135085714Y-57594642D02*
X135157142Y-57666071D01*
X135228571Y-57594642D01*
X135157142Y-57523214D01*
X135085714Y-57594642D01*
X135228571Y-57594642D01*
X135157142Y-58951785D02*
X135228571Y-58808928D01*
X135228571Y-58523214D01*
X135157142Y-58380357D01*
X135085714Y-58308928D01*
X134942857Y-58237500D01*
X134514285Y-58237500D01*
X134371428Y-58308928D01*
X134300000Y-58380357D01*
X134228571Y-58523214D01*
X134228571Y-58808928D01*
X134300000Y-58951785D01*
X135228571Y-59808928D02*
X135157142Y-59666071D01*
X135085714Y-59594642D01*
X134942857Y-59523214D01*
X134514285Y-59523214D01*
X134371428Y-59594642D01*
X134300000Y-59666071D01*
X134228571Y-59808928D01*
X134228571Y-60023214D01*
X134300000Y-60166071D01*
X134371428Y-60237500D01*
X134514285Y-60308928D01*
X134942857Y-60308928D01*
X135085714Y-60237500D01*
X135157142Y-60166071D01*
X135228571Y-60023214D01*
X135228571Y-59808928D01*
X135228571Y-60951785D02*
X134228571Y-60951785D01*
X134371428Y-60951785D02*
X134300000Y-61023214D01*
X134228571Y-61166071D01*
X134228571Y-61380357D01*
X134300000Y-61523214D01*
X134442857Y-61594642D01*
X135228571Y-61594642D01*
X134442857Y-61594642D02*
X134300000Y-61666071D01*
X134228571Y-61808928D01*
X134228571Y-62023214D01*
X134300000Y-62166071D01*
X134442857Y-62237500D01*
X135228571Y-62237500D01*
X133657142Y-64023214D02*
X135585714Y-62737500D01*
X135157142Y-64451785D02*
X135228571Y-64594642D01*
X135228571Y-64880357D01*
X135157142Y-65023214D01*
X135014285Y-65094642D01*
X134942857Y-65094642D01*
X134800000Y-65023214D01*
X134728571Y-64880357D01*
X134728571Y-64666071D01*
X134657142Y-64523214D01*
X134514285Y-64451785D01*
X134442857Y-64451785D01*
X134300000Y-64523214D01*
X134228571Y-64666071D01*
X134228571Y-64880357D01*
X134300000Y-65023214D01*
X134228571Y-66380357D02*
X135228571Y-66380357D01*
X134228571Y-65737500D02*
X135014285Y-65737500D01*
X135157142Y-65808928D01*
X135228571Y-65951785D01*
X135228571Y-66166071D01*
X135157142Y-66308928D01*
X135085714Y-66380357D01*
X135228571Y-67094642D02*
X134228571Y-67094642D01*
X133728571Y-67094642D02*
X133800000Y-67023214D01*
X133871428Y-67094642D01*
X133800000Y-67166071D01*
X133728571Y-67094642D01*
X133871428Y-67094642D01*
X135228571Y-67808928D02*
X133728571Y-67808928D01*
X134657142Y-67951785D02*
X135228571Y-68380357D01*
X134228571Y-68380357D02*
X134800000Y-67808928D01*
X135228571Y-69666071D02*
X134442857Y-69666071D01*
X134300000Y-69594642D01*
X134228571Y-69451785D01*
X134228571Y-69166071D01*
X134300000Y-69023214D01*
X135157142Y-69666071D02*
X135228571Y-69523214D01*
X135228571Y-69166071D01*
X135157142Y-69023214D01*
X135014285Y-68951785D01*
X134871428Y-68951785D01*
X134728571Y-69023214D01*
X134657142Y-69166071D01*
X134657142Y-69523214D01*
X134585714Y-69666071D01*
X134228571Y-70380357D02*
X135228571Y-70380357D01*
X134371428Y-70380357D02*
X134300000Y-70451785D01*
X134228571Y-70594642D01*
X134228571Y-70808928D01*
X134300000Y-70951785D01*
X134442857Y-71023214D01*
X135228571Y-71023214D01*
X134228571Y-72380357D02*
X135228571Y-72380357D01*
X133657142Y-72023214D02*
X134728571Y-71666071D01*
X134728571Y-72594642D01*
X134228571Y-73808928D02*
X135442857Y-73808928D01*
X135585714Y-73737500D01*
X135657142Y-73666071D01*
X135728571Y-73523214D01*
X135728571Y-73308928D01*
X135657142Y-73166071D01*
X135157142Y-73808928D02*
X135228571Y-73666071D01*
X135228571Y-73380357D01*
X135157142Y-73237500D01*
X135085714Y-73166071D01*
X134942857Y-73094642D01*
X134514285Y-73094642D01*
X134371428Y-73166071D01*
X134300000Y-73237500D01*
X134228571Y-73380357D01*
X134228571Y-73666071D01*
X134300000Y-73808928D01*
X135228571Y-74523214D02*
X134228571Y-74523214D01*
X133728571Y-74523214D02*
X133800000Y-74451785D01*
X133871428Y-74523214D01*
X133800000Y-74594642D01*
X133728571Y-74523214D01*
X133871428Y-74523214D01*
X134228571Y-75023214D02*
X134228571Y-75594642D01*
X133728571Y-75237500D02*
X135014285Y-75237500D01*
X135157142Y-75308928D01*
X135228571Y-75451785D01*
X135228571Y-75594642D01*
X135228571Y-76094642D02*
X133728571Y-76094642D01*
X135228571Y-76737500D02*
X134442857Y-76737500D01*
X134300000Y-76666071D01*
X134228571Y-76523214D01*
X134228571Y-76308928D01*
X134300000Y-76166071D01*
X134371428Y-76094642D01*
X134228571Y-78094642D02*
X135228571Y-78094642D01*
X134228571Y-77451785D02*
X135014285Y-77451785D01*
X135157142Y-77523214D01*
X135228571Y-77666071D01*
X135228571Y-77880357D01*
X135157142Y-78023214D01*
X135085714Y-78094642D01*
X135228571Y-78808928D02*
X133728571Y-78808928D01*
X134300000Y-78808928D02*
X134228571Y-78951785D01*
X134228571Y-79237500D01*
X134300000Y-79380357D01*
X134371428Y-79451785D01*
X134514285Y-79523214D01*
X134942857Y-79523214D01*
X135085714Y-79451785D01*
X135157142Y-79380357D01*
X135228571Y-79237500D01*
X135228571Y-78951785D01*
X135157142Y-78808928D01*
X133657142Y-81237500D02*
X135585714Y-79951785D01*
X134800000Y-81666071D02*
X134800000Y-82380357D01*
X135228571Y-81523214D02*
X133728571Y-82023214D01*
X135228571Y-82523214D01*
X135228571Y-83023214D02*
X133728571Y-83023214D01*
X134657142Y-83166071D02*
X135228571Y-83594642D01*
X134228571Y-83594642D02*
X134800000Y-83023214D01*
X135228571Y-84880357D02*
X134442857Y-84880357D01*
X134300000Y-84808928D01*
X134228571Y-84666071D01*
X134228571Y-84380357D01*
X134300000Y-84237500D01*
X135157142Y-84880357D02*
X135228571Y-84737500D01*
X135228571Y-84380357D01*
X135157142Y-84237500D01*
X135014285Y-84166071D01*
X134871428Y-84166071D01*
X134728571Y-84237500D01*
X134657142Y-84380357D01*
X134657142Y-84737500D01*
X134585714Y-84880357D01*
X135157142Y-85523214D02*
X135228571Y-85666071D01*
X135228571Y-85951785D01*
X135157142Y-86094642D01*
X135014285Y-86166071D01*
X134942857Y-86166071D01*
X134800000Y-86094642D01*
X134728571Y-85951785D01*
X134728571Y-85737500D01*
X134657142Y-85594642D01*
X134514285Y-85523214D01*
X134442857Y-85523214D01*
X134300000Y-85594642D01*
X134228571Y-85737500D01*
X134228571Y-85951785D01*
X134300000Y-86094642D01*
X135228571Y-86808928D02*
X133728571Y-86808928D01*
X135228571Y-87451785D02*
X134442857Y-87451785D01*
X134300000Y-87380357D01*
X134228571Y-87237500D01*
X134228571Y-87023214D01*
X134300000Y-86880357D01*
X134371428Y-86808928D01*
X135228571Y-88166071D02*
X134228571Y-88166071D01*
X133728571Y-88166071D02*
X133800000Y-88094642D01*
X133871428Y-88166071D01*
X133800000Y-88237500D01*
X133728571Y-88166071D01*
X133871428Y-88166071D01*
X134657142Y-88880357D02*
X134657142Y-90023214D01*
X133728571Y-91023214D02*
X133728571Y-91166071D01*
X133800000Y-91308928D01*
X133871428Y-91380357D01*
X134014285Y-91451785D01*
X134300000Y-91523214D01*
X134657142Y-91523214D01*
X134942857Y-91451785D01*
X135085714Y-91380357D01*
X135157142Y-91308928D01*
X135228571Y-91166071D01*
X135228571Y-91023214D01*
X135157142Y-90880357D01*
X135085714Y-90808928D01*
X134942857Y-90737500D01*
X134657142Y-90666071D01*
X134300000Y-90666071D01*
X134014285Y-90737500D01*
X133871428Y-90808928D01*
X133800000Y-90880357D01*
X133728571Y-91023214D01*
X134228571Y-92808928D02*
X135228571Y-92808928D01*
X133657142Y-92451785D02*
X134728571Y-92094642D01*
X134728571Y-93023214D01*
D13*
X154860000Y-59960000D02*
G75*
G03X154160000Y-60660000I0J-700000D01*
G01*
X154160000Y-61260000D02*
G75*
G03X154860000Y-61960000I700000J0D01*
G01*
X156260000Y-61960000D02*
G75*
G03X156960000Y-61260000I0J700000D01*
G01*
X156960000Y-60660000D02*
G75*
G03X156260000Y-59960000I-700000J0D01*
G01*
X156960000Y-61260000D02*
X156960000Y-60660000D01*
X154860000Y-61960000D02*
X156260000Y-61960000D01*
X154160000Y-60660000D02*
X154160000Y-61260000D01*
X156260000Y-59960000D02*
X154860000Y-59960000D01*
X154890000Y-67580000D02*
G75*
G03X154190000Y-68280000I0J-700000D01*
G01*
X154190000Y-68880000D02*
G75*
G03X154890000Y-69580000I700000J0D01*
G01*
X156290000Y-69580000D02*
G75*
G03X156990000Y-68880000I0J700000D01*
G01*
X156990000Y-68280000D02*
G75*
G03X156290000Y-67580000I-700000J0D01*
G01*
X156990000Y-68880000D02*
X156990000Y-68280000D01*
X154890000Y-69580000D02*
X156290000Y-69580000D01*
X154190000Y-68280000D02*
X154190000Y-68880000D01*
X156290000Y-67580000D02*
X154890000Y-67580000D01*
X119380000Y-59630000D02*
X118050000Y-59630000D01*
X118050000Y-59630000D02*
X118050000Y-60960000D01*
X120650000Y-59630000D02*
X120650000Y-62230000D01*
X120650000Y-62230000D02*
X118050000Y-62230000D01*
X118050000Y-62230000D02*
X118050000Y-108010000D01*
X123250000Y-108010000D02*
X118050000Y-108010000D01*
X123250000Y-59630000D02*
X123250000Y-108010000D01*
X123250000Y-59630000D02*
X120650000Y-59630000D01*
X184210000Y-59630000D02*
X181610000Y-59630000D01*
X184210000Y-59630000D02*
X184210000Y-108010000D01*
X184210000Y-108010000D02*
X179010000Y-108010000D01*
X179010000Y-62230000D02*
X179010000Y-108010000D01*
X181610000Y-62230000D02*
X179010000Y-62230000D01*
X181610000Y-59630000D02*
X181610000Y-62230000D01*
X179010000Y-59630000D02*
X179010000Y-60960000D01*
X180340000Y-59630000D02*
X179010000Y-59630000D01*
D12*
X156393333Y-58612380D02*
X156393333Y-59326666D01*
X156440952Y-59469523D01*
X156536190Y-59564761D01*
X156679047Y-59612380D01*
X156774285Y-59612380D01*
X155917142Y-59612380D02*
X155917142Y-58612380D01*
X155536190Y-58612380D01*
X155440952Y-58660000D01*
X155393333Y-58707619D01*
X155345714Y-58802857D01*
X155345714Y-58945714D01*
X155393333Y-59040952D01*
X155440952Y-59088571D01*
X155536190Y-59136190D01*
X155917142Y-59136190D01*
X154964761Y-58707619D02*
X154917142Y-58660000D01*
X154821904Y-58612380D01*
X154583809Y-58612380D01*
X154488571Y-58660000D01*
X154440952Y-58707619D01*
X154393333Y-58802857D01*
X154393333Y-58898095D01*
X154440952Y-59040952D01*
X155012380Y-59612380D01*
X154393333Y-59612380D01*
X156423333Y-66232380D02*
X156423333Y-66946666D01*
X156470952Y-67089523D01*
X156566190Y-67184761D01*
X156709047Y-67232380D01*
X156804285Y-67232380D01*
X155947142Y-67232380D02*
X155947142Y-66232380D01*
X155566190Y-66232380D01*
X155470952Y-66280000D01*
X155423333Y-66327619D01*
X155375714Y-66422857D01*
X155375714Y-66565714D01*
X155423333Y-66660952D01*
X155470952Y-66708571D01*
X155566190Y-66756190D01*
X155947142Y-66756190D01*
X154423333Y-67232380D02*
X154994761Y-67232380D01*
X154709047Y-67232380D02*
X154709047Y-66232380D01*
X154804285Y-66375238D01*
X154899523Y-66470476D01*
X154994761Y-66518095D01*
X121340476Y-58547142D02*
X121388095Y-58594761D01*
X121530952Y-58642380D01*
X121626190Y-58642380D01*
X121769047Y-58594761D01*
X121864285Y-58499523D01*
X121911904Y-58404285D01*
X121959523Y-58213809D01*
X121959523Y-58070952D01*
X121911904Y-57880476D01*
X121864285Y-57785238D01*
X121769047Y-57690000D01*
X121626190Y-57642380D01*
X121530952Y-57642380D01*
X121388095Y-57690000D01*
X121340476Y-57737619D01*
X120911904Y-58642380D02*
X120911904Y-57642380D01*
X120340476Y-58642380D01*
X120340476Y-57642380D01*
X119959523Y-57642380D02*
X119292857Y-57642380D01*
X119721428Y-58642380D01*
X182776666Y-58547142D02*
X182824285Y-58594761D01*
X182967142Y-58642380D01*
X183062380Y-58642380D01*
X183205238Y-58594761D01*
X183300476Y-58499523D01*
X183348095Y-58404285D01*
X183395714Y-58213809D01*
X183395714Y-58070952D01*
X183348095Y-57880476D01*
X183300476Y-57785238D01*
X183205238Y-57690000D01*
X183062380Y-57642380D01*
X182967142Y-57642380D01*
X182824285Y-57690000D01*
X182776666Y-57737619D01*
X182348095Y-58642380D02*
X182348095Y-57642380D01*
X181776666Y-58642380D01*
X181776666Y-57642380D01*
X180776666Y-58642380D02*
X181348095Y-58642380D01*
X181062380Y-58642380D02*
X181062380Y-57642380D01*
X181157619Y-57785238D01*
X181252857Y-57880476D01*
X181348095Y-57928095D01*
X180157619Y-57642380D02*
X180062380Y-57642380D01*
X179967142Y-57690000D01*
X179919523Y-57737619D01*
X179871904Y-57832857D01*
X179824285Y-58023333D01*
X179824285Y-58261428D01*
X179871904Y-58451904D01*
X179919523Y-58547142D01*
X179967142Y-58594761D01*
X180062380Y-58642380D01*
X180157619Y-58642380D01*
X180252857Y-58594761D01*
X180300476Y-58547142D01*
X180348095Y-58451904D01*
X180395714Y-58261428D01*
X180395714Y-58023333D01*
X180348095Y-57832857D01*
X180300476Y-57737619D01*
X180252857Y-57690000D01*
X180157619Y-57642380D01*
M02*
